<svg xmlns="http://www.w3.org/2000/svg" width="19.834" height="15" viewBox="0 0 19.834 15">
  <g id="icon-distance" transform="translate(0)">
    <g id="c" transform="translate(0 0)">
      <g id="Group_6" data-name="Group 6">
        <path id="Path_13" data-name="Path 13" d="M235.733,0c-3.335-.075-5.766,3.8-4.521,7.119.38.813,3.529,6.619,4.012,7.554a.567.567,0,0,0,1.018,0c.5-.972,3.616-6.71,4.012-7.557C241.5,3.8,239.068-.072,235.733,0Zm-.012,7.806c-3.146-.058-3.145-5.12,0-5.177C238.867,2.691,238.866,7.753,235.721,7.81Z" transform="translate(-220.75 -0.003)" fill="#fff"/>
        <path id="Path_14" data-name="Path 14" d="M2.974,4.014A2.983,2.983,0,0,0,.2,8.048c.233.46,2.163,3.751,2.459,4.281a.36.36,0,0,0,.624,0c.308-.55,2.216-3.8,2.459-4.282A2.983,2.983,0,0,0,2.974,4.014ZM2.967,8.437a1.467,1.467,0,0,1,0-2.934A1.467,1.467,0,0,1,2.967,8.437Z" transform="translate(0 -3.863)" fill="#fff"/>
        <path id="Path_15" data-name="Path 15" d="M113.511,230.03c-.138-.038-.28-.074-.422-.108l.121-.509c.148.035.3.073.439.113l-.139.5Zm-.847-.2c-.143-.029-.287-.055-.428-.079l.086-.516c.147.024.3.052.446.082l-.1.513Zm-.858-.142c-.144-.019-.29-.035-.432-.047l.047-.521c.149.013.3.03.452.05l-.067.519Zm-2.182-.076,0-.523c.144,0,.291,0,.439-.008l.015.523C109.922,229.608,109.771,229.61,109.624,229.612Zm-.451,0c-.153,0-.305-.007-.451-.013l.022-.523c.141.006.289.01.437.013l-.008.523Zm1.768,0c-.145-.007-.291-.012-.433-.012l0-.523c.15,0,.3.005.455.013Zm-2.672-.039c-.156-.012-.308-.026-.453-.043l.06-.52c.138.016.283.03.432.041l-.039.522Zm-.906-.106c-.159-.027-.312-.057-.453-.09l.121-.509c.13.031.271.059.418.083Zm-.9-.22a3.172,3.172,0,0,1-.445-.189l.243-.464a2.682,2.682,0,0,0,.372.157l-.17.5Zm-.866-.479a1.279,1.279,0,0,1-.321-.449l.483-.2a.762.762,0,0,0,.192.265Zm.116-.963-.522-.039a1.61,1.61,0,0,1,.074-.368c.016-.049.033-.1.053-.143l.482.2a1.035,1.035,0,0,0-.036.1,1.11,1.11,0,0,0-.051.249Zm.275-.642-.384-.355a1.669,1.669,0,0,1,.413-.321l.256.457A1.134,1.134,0,0,0,105.983,227.162Zm.642-.369-.154-.5a3.724,3.724,0,0,1,.466-.108l.089.516a3.244,3.244,0,0,0-.4.093Zm.823-.148-.052-.521c.15-.015.3-.026.45-.037l.038.522c-.148.011-.293.022-.437.036Zm.887-.072-.051-.521a3.218,3.218,0,0,0,.406-.061l.118.51A3.712,3.712,0,0,1,108.335,226.573Zm.993-.318-.36-.38A.114.114,0,0,0,109,225.8a.672.672,0,0,0,.005-.084c0-.013,0-.025,0-.038l.522-.038c0,.025,0,.05,0,.076a1.241,1.241,0,0,1-.009.147.633.633,0,0,1-.2.393Zm-.42-.79a.84.84,0,0,0-.3-.153l.165-.5a1.323,1.323,0,0,1,.48.262l-.351.388Zm-.688-.247c-.123-.021-.265-.04-.422-.055l.051-.521c.171.017.321.037.459.06Zm-.854-.089c-.135-.008-.277-.015-.437-.021l.019-.523c.164.006.311.013.45.021l-.031.522Zm-.878-.033-.442-.007.006-.523.446.007Zm-.884-.011-.443,0v-.523l.445,0,0,.523Z" transform="translate(-100.63 -215.031)" fill="#fff"/>
      </g>
    </g>
  </g>
</svg>
