<svg xmlns="http://www.w3.org/2000/svg" width="20.881" height="20.883" viewBox="0 0 20.881 20.883">
  <path id="icon-linkedin" d="M11.091,26.174a.7.7,0,0,1-.208.5.713.713,0,0,1-.5.206H7.36a.712.712,0,0,1-.5-.206.7.7,0,0,1-.208-.5V13.593a.7.7,0,0,1,.208-.5.712.712,0,0,1,.5-.206H10.38a.711.711,0,0,1,.5.206.7.7,0,0,1,.208.5ZM8.87,11.7a2.885,2.885,0,0,1-1.6-.48A2.848,2.848,0,0,1,8.31,6.054a2.879,2.879,0,0,1,2.947,1.213,2.837,2.837,0,0,1-.357,3.6A2.88,2.88,0,0,1,8.87,11.7ZM26.88,26.231a.647.647,0,0,1-.191.459.655.655,0,0,1-.462.19H22.985a.655.655,0,0,1-.462-.19.646.646,0,0,1-.191-.459v-5.9c0-.881.26-3.856-2.316-3.856-2,0-2.4,2.038-2.485,2.952v6.807a.647.647,0,0,1-.191.459.655.655,0,0,1-.462.19H13.744a.655.655,0,0,1-.462-.19.646.646,0,0,1-.191-.459v-12.7a.646.646,0,0,1,.191-.458.655.655,0,0,1,.461-.19h3.135a.655.655,0,0,1,.461.19.646.646,0,0,1,.191.458v1.1c.74-1.1,1.842-1.957,4.186-1.957,5.191,0,5.162,4.818,5.162,7.465Z" transform="translate(-5.999 -5.999)" fill="#1e3734"/>
</svg>
