<svg xmlns="http://www.w3.org/2000/svg" width="15" height="20" viewBox="0 0 15 20">
  <path id="icon-personne" d="M4.688,2.813A2.813,2.813,0,1,1,7.5,5.625,2.812,2.812,0,0,1,4.688,2.813Zm9.946.054a1.25,1.25,0,0,0-1.768,0L9.482,6.25H5.518L2.134,2.866A1.25,1.25,0,0,0,.366,4.634l3.7,3.7V18.75A1.25,1.25,0,0,0,5.313,20h.625a1.25,1.25,0,0,0,1.25-1.25V14.375h.625V18.75A1.25,1.25,0,0,0,9.063,20h.625a1.25,1.25,0,0,0,1.25-1.25V8.33l3.7-3.7a1.25,1.25,0,0,0,0-1.768Z" transform="translate(0)" fill="#fff"/>
</svg>
