<svg xmlns="http://www.w3.org/2000/svg" width="30" height="30" viewBox="0 0 30 30">
  <path id="Icon_awesome-phone" data-name="Icon awesome-phone" d="M28.909,1.441,22.816.035A1.415,1.415,0,0,0,21.2.849L18.392,7.412a1.4,1.4,0,0,0,.4,1.641l3.551,2.906A21.715,21.715,0,0,1,11.964,22.341L9.058,18.79a1.4,1.4,0,0,0-1.641-.4L.855,21.2a1.423,1.423,0,0,0-.82,1.617l1.406,6.094A1.406,1.406,0,0,0,2.812,30,27.184,27.184,0,0,0,30,2.812,1.4,1.4,0,0,0,28.909,1.441Z" transform="translate(0.001 0.001)" fill="#033333"/>
</svg>
