<svg xmlns="http://www.w3.org/2000/svg" width="20.88" height="16.704" viewBox="0 0 20.88 16.704">
  <path id="icon-twitter" d="M26.88,9.978a8.283,8.283,0,0,1-.969,1.179,9,9,0,0,1-1.173,1q.01.14.015.276t.005.276a11.451,11.451,0,0,1-.275,2.5A12.629,12.629,0,0,1,21.8,20.593a11.531,11.531,0,0,1-2.564,2.234,11.769,11.769,0,0,1-3.125,1.4,12.9,12.9,0,0,1-3.548.482,12.376,12.376,0,0,1-3.421-.477A11.9,11.9,0,0,1,6,22.807a8.5,8.5,0,0,0,1.02.06,8.714,8.714,0,0,0,2.819-.462,8.557,8.557,0,0,0,2.5-1.345,4.274,4.274,0,0,1-2.472-.828,4.307,4.307,0,0,1-.918-.919,4.2,4.2,0,0,1-.607-1.175q.2.03.4.05a4.012,4.012,0,0,0,.4.02,4.23,4.23,0,0,0,1.122-.151,4.225,4.225,0,0,1-1.381-.532A4.37,4.37,0,0,1,7.8,16.6a4.161,4.161,0,0,1-.969-2.675v-.05a4.174,4.174,0,0,0,1.947.532,4.369,4.369,0,0,1-.8-.688,4.249,4.249,0,0,1-.6-.838,4.3,4.3,0,0,1-.377-.954,4.033,4.033,0,0,1-.133-1.034,4.261,4.261,0,0,1,.143-1.1,3.81,3.81,0,0,1,.438-1.019,11.776,11.776,0,0,0,1.815,1.782A12.278,12.278,0,0,0,11.4,11.9a12.331,12.331,0,0,0,2.36.888,12.043,12.043,0,0,0,2.528.386A3.107,3.107,0,0,1,16.2,12.7a4.713,4.713,0,0,1-.025-.487,4.046,4.046,0,0,1,.336-1.641,4.261,4.261,0,0,1,.918-1.34,4.332,4.332,0,0,1,1.361-.9A4.219,4.219,0,0,1,20.457,8a4.3,4.3,0,0,1,1.708.346,4.251,4.251,0,0,1,1.422.989,8.607,8.607,0,0,0,1.4-.4,8.527,8.527,0,0,0,1.31-.627,4.163,4.163,0,0,1-1.876,2.329,8.607,8.607,0,0,0,2.457-.662Z" transform="translate(-6 -8)" fill="#1e3734"/>
</svg>
