<svg xmlns="http://www.w3.org/2000/svg" width="30.179" height="30" viewBox="0 0 30.179 30">
  <path id="Icon_simple-email" data-name="Icon simple-email" d="M31.828,13.846a14.06,14.06,0,0,1-.553,3.356,9.263,9.263,0,0,1-1.447,2.947,7.37,7.37,0,0,1-2.454,2.094,7.531,7.531,0,0,1-3.583.8,5.653,5.653,0,0,1-2.591-.572,4.23,4.23,0,0,1-1.751-1.618,5.767,5.767,0,0,1-4.7,2.126,5.265,5.265,0,0,1-2.342-.516,4.718,4.718,0,0,1-1.757-1.472,6.153,6.153,0,0,1-1.019-2.3,8.966,8.966,0,0,1-.133-3,12.845,12.845,0,0,1,1.015-3.678,9.861,9.861,0,0,1,1.876-2.818,7.774,7.774,0,0,1,5.715-2.424,10.79,10.79,0,0,1,1.876.144,8.316,8.316,0,0,1,1.456.394,8.2,8.2,0,0,1,1.206.574c.368.214.738.435,1.106.66l-.911,9.448a2.837,2.837,0,0,0,.027,1.106,1.5,1.5,0,0,0,.374.682,1.37,1.37,0,0,0,.607.356,2.447,2.447,0,0,0,2.134-.379,4.2,4.2,0,0,0,1.144-1.312,7.919,7.919,0,0,0,.769-1.972,12.268,12.268,0,0,0,.337-2.456A14.2,14.2,0,0,0,27.8,9.42a8.386,8.386,0,0,0-5.261-5.838,13.443,13.443,0,0,0-4.92-.812,11.867,11.867,0,0,0-4.866.956,11.054,11.054,0,0,0-3.7,2.651,12.4,12.4,0,0,0-2.421,3.987,16.4,16.4,0,0,0-1.019,4.968,14.958,14.958,0,0,0,.52,5.069,8.869,8.869,0,0,0,2.055,3.633,8.642,8.642,0,0,0,3.481,2.182,14.674,14.674,0,0,0,4.8.724,18.186,18.186,0,0,0,3.153-.306c.52-.094,1.013-.206,1.483-.33a11.983,11.983,0,0,0,1.277-.412l.659,2.673a7.668,7.668,0,0,1-1.429.637,14.924,14.924,0,0,1-1.689.441A18.2,18.2,0,0,1,16.406,30a20.339,20.339,0,0,1-6.43-.934,12.01,12.01,0,0,1-4.687-2.778A11.4,11.4,0,0,1,2.474,21.7a17.744,17.744,0,0,1-.786-6.368A17.766,17.766,0,0,1,3.04,9.221a14.537,14.537,0,0,1,8.225-8.059A17.03,17.03,0,0,1,17.7,0a17.821,17.821,0,0,1,6.235,1.007,12.214,12.214,0,0,1,4.5,2.831A11.344,11.344,0,0,1,31.1,8.211,15.171,15.171,0,0,1,31.828,13.846Zm-17.86,1.837a5.8,5.8,0,0,0,.366,3.163,1.9,1.9,0,0,0,1.809,1.069,2.194,2.194,0,0,0,.62-.1,2.272,2.272,0,0,0,.713-.386,3.544,3.544,0,0,0,.724-.787,5.776,5.776,0,0,0,.665-1.331l.711-7.341a4.687,4.687,0,0,0-1.106-.131,4.171,4.171,0,0,0-1.84.381,3.513,3.513,0,0,0-1.3,1.117,6.235,6.235,0,0,0-.865,1.837,14.2,14.2,0,0,0-.491,2.512Z" transform="translate(-1.67)" fill="#033333"/>
</svg>
