<svg xmlns="http://www.w3.org/2000/svg" width="20.448" height="20.448" viewBox="0 0 20.448 20.448">
  <path id="icon-insta" d="M5.953,11.885a5.948,5.948,0,0,1,5.933-5.933h8.583A5.948,5.948,0,0,1,26.4,11.885v8.583A5.948,5.948,0,0,1,20.468,26.4H11.885a5.948,5.948,0,0,1-5.933-5.933Zm5.933-4.367a4.382,4.382,0,0,0-4.367,4.367v8.583a4.382,4.382,0,0,0,4.367,4.367h8.583a4.382,4.382,0,0,0,4.367-4.367V11.885a4.382,4.382,0,0,0-4.367-4.367Zm4.291,11.813a3.155,3.155,0,1,0-3.155-3.155A3.155,3.155,0,0,0,16.177,19.331Zm0,1.566a4.721,4.721,0,1,0-4.721-4.721A4.721,4.721,0,0,0,16.177,20.9Zm4.72-9.441a.944.944,0,1,0-.944-.944A.944.944,0,0,0,20.9,11.456Z" transform="translate(-5.953 -5.953)" fill="#1e3734" fill-rule="evenodd"/>
</svg>
