<svg xmlns="http://www.w3.org/2000/svg" width="18.005" height="18" viewBox="0 0 18.005 18">
  <g id="moulin-shape" transform="translate(0)">
    <!-- <path id="Path_276" data-name="Path 276" d="M12.558,12.49c.3-.029.748-.163,2.516-2.037.9-.957,1.62-1.807,2.147-2.466a.087.087,0,0,0,.02-.024c.058-.07.107-.134.156-.2a.166.166,0,0,0,.037-.049h0A2.991,2.991,0,0,0,18,5.962V.622c0-.2-.073-.314-.184-.314a.384.384,0,0,0-.247.134l-5.043,5.03a.232.232,0,0,0,0-.041c-.029-.3-.166-.74-2.047-2.5-.955-.9-1.809-1.619-2.469-2.147a.156.156,0,0,0-.023-.02C7.921.7,7.856.654,7.8.606A.259.259,0,0,0,7.758.577v0a.049.049,0,0,0-.012,0v0A3.02,3.02,0,0,0,5.986,0l0,0H.623C.287,0,.2.2.443.433l5.043,5.03-.013,0-.028,0c-.3.029-.742.16-2.514,2.037-.923.985-1.661,1.86-2.2,2.523l-.09.114a.369.369,0,0,0-.041.049.174.174,0,0,0-.029.046A2.969,2.969,0,0,0,0,11.99v5.346c0,.2.074.314.185.314a.371.371,0,0,0,.246-.139l5.1-5.084c.16,1.308,1.993,2.618,4.215,4.519a.05.05,0,0,0,.017.012c0,.008.008.012.017.02s.008,0,.008,0c.149.122.292.25.44.377,0,.008.012.012.02.017a.059.059,0,0,0,.016,0v0a2.7,2.7,0,0,0,.517.245,4.51,4.51,0,0,0,.755.2A17.4,17.4,0,0,0,14.462,18c.846,0,1.818-.017,2.936-.037.328,0,.407-.2.176-.43L12.518,12.49l.013,0,.028,0Zm4.867,5.191a.38.38,0,0,1,.058.07.4.4,0,0,1-.091.01c-1.1.02-2.083.037-2.933.037a16.746,16.746,0,0,1-2.891-.173,4.35,4.35,0,0,1-.721-.187,2.92,2.92,0,0,1-.383-.17v-.088l-.139,0-.106-.09c-.085-.073-.169-.146-.254-.218v-.036l-.1-.048c-.353-.3-.7-.59-1.026-.867-1.669-1.395-2.986-2.5-3.11-3.515l-.05-.416L.286,17.366a.443.443,0,0,1-.072.062.436.436,0,0,1-.008-.094V11.99a2.763,2.763,0,0,1,.534-1.638l.01-.014.01-.019.007-.01a.231.231,0,0,1,.023-.028L.8,10.272l.007-.01.089-.112c.7-.864,1.438-1.71,2.188-2.512C4.857,5.757,5.249,5.688,5.454,5.667l.793.264L.587.288A.43.43,0,0,1,.526.214.441.441,0,0,1,.623.2h5.36A2.794,2.794,0,0,1,7.537.671v.1l.134,0c.022.018.044.035.067.053.038.03.078.06.119.094l.019.016L7.884.94c.822.656,1.648,1.375,2.456,2.136,1.891,1.771,1.962,2.16,1.981,2.362l-.265.791L17.716.586a.479.479,0,0,1,.072-.06A.425.425,0,0,1,17.8.62V5.966a2.783,2.783,0,0,1-.468,1.549H17.31l-.061.113-.008.008-.006,0-.06.076c-.03.038-.06.077-.094.118l-.016.019-.007.008c-.65.809-1.369,1.635-2.139,2.454-1.776,1.883-2.169,1.951-2.373,1.972l-.793-.264ZM10.818,8.426a1.59,1.59,0,0,0-.134-.32.641.641,0,0,0-.037-.059,1.719,1.719,0,0,0-.316-.4,1.868,1.868,0,0,0-1.315-.536h0a1.849,1.849,0,0,0-.284.023,1.364,1.364,0,0,0-.278.065,1.555,1.555,0,0,0-.3.12.5.5,0,0,0-.065.035,1.645,1.645,0,0,0-.4.3,1.864,1.864,0,0,0-.57,1.3v.047a1.474,1.474,0,0,0,.018.244,1.329,1.329,0,0,0,.058.28,1.848,1.848,0,0,0,.119.308.426.426,0,0,0,.042.078,2.062,2.062,0,0,0,.29.4,1.871,1.871,0,0,0,1.294.58h0a.386.386,0,0,0,.078.006,1.669,1.669,0,0,0,.27-.019,2.116,2.116,0,0,0,.239-.05,1.769,1.769,0,0,0,.364-.145.578.578,0,0,0,.06-.031,1.821,1.821,0,0,0,.409-.31l.06-.06v-.007A1.871,1.871,0,0,0,10.911,9V8.993a1.672,1.672,0,0,0-.029-.3,1.46,1.46,0,0,0-.064-.266ZM10.709,9a1.68,1.68,0,0,1-.5,1.191v0a1.634,1.634,0,0,1-.37.278.162.162,0,0,1-.041.02,1.573,1.573,0,0,1-.336.134,1.726,1.726,0,0,1-.214.044,1.55,1.55,0,0,1-.238.017h0a.234.234,0,0,1-.058,0,1.682,1.682,0,0,1-1.164-.515,1.815,1.815,0,0,1-.266-.368A.248.248,0,0,1,7.5,9.755a1.589,1.589,0,0,1-.109-.287,1.165,1.165,0,0,1-.049-.245,1.285,1.285,0,0,1-.017-.217V8.965A1.663,1.663,0,0,1,7.833,7.8a1.428,1.428,0,0,1,.361-.27A.466.466,0,0,1,8.247,7.5a1.358,1.358,0,0,1,.266-.107,1.168,1.168,0,0,1,.246-.058,1.761,1.761,0,0,1,.254-.02h0A1.67,1.67,0,0,1,10.2,7.8a1.521,1.521,0,0,1,.283.36.394.394,0,0,1,.029.044,1.46,1.46,0,0,1,.119.287,1.2,1.2,0,0,1,.058.241,1.352,1.352,0,0,1,.025.262V9Z" transform="translate(0)" fill="#1e3734"/> -->
    <path id="Path_277" data-name="Path 277" d="M16.424,11.813c.769-.82,1.488-1.645,2.139-2.454l.007-.008.016-.019c.034-.041.064-.079.094-.118l.06-.076.006,0,.008-.008.061-.113h.019A2.783,2.783,0,0,0,19.3,7.462V2.116a.425.425,0,0,0-.01-.095.479.479,0,0,0-.072.06L13.56,7.725l.265-.791c-.019-.2-.09-.59-1.981-2.362-.808-.761-1.633-1.48-2.456-2.136l-.007-.007-.019-.016c-.041-.034-.08-.064-.119-.094-.023-.018-.046-.035-.067-.053l-.134,0v-.1A2.794,2.794,0,0,0,7.488,1.7H2.128a.441.441,0,0,0-.1.01.43.43,0,0,0,.061.074l5.66,5.643-.793-.264c-.2.02-.6.09-2.373,1.972-.75.8-1.487,1.648-2.188,2.512l-.089.112-.007.01-.008.008a.231.231,0,0,0-.023.028l-.007.01-.01.019-.01.014a2.763,2.763,0,0,0-.534,1.638v5.346a.436.436,0,0,0,.008.094.443.443,0,0,0,.072-.062l5.395-5.38.05.416c.124,1.019,1.44,2.121,3.11,3.515.328.276.673.564,1.026.867l.1.048v.036c.085.072.169.145.254.218l.106.09.139,0v.088a2.92,2.92,0,0,0,.383.17,4.35,4.35,0,0,0,.721.187,16.747,16.747,0,0,0,2.891.173c.85,0,1.831-.017,2.933-.037a.4.4,0,0,0,.091-.01.381.381,0,0,0-.058-.07L13.258,13.52l.793.264c.2-.02.6-.089,2.373-1.972Zm-4.973.337a.578.578,0,0,1-.06.031,1.769,1.769,0,0,1-.364.145,2.116,2.116,0,0,1-.239.05,1.669,1.669,0,0,1-.27.019.481.481,0,0,1-.078,0h0a1.877,1.877,0,0,1-1.294-.581,2.062,2.062,0,0,1-.29-.4.426.426,0,0,1-.042-.078,1.848,1.848,0,0,1-.119-.308,1.329,1.329,0,0,1-.058-.28,1.474,1.474,0,0,1-.018-.244v-.047a1.864,1.864,0,0,1,.57-1.3,1.645,1.645,0,0,1,.4-.3.5.5,0,0,1,.065-.035,1.556,1.556,0,0,1,.3-.12,1.364,1.364,0,0,1,.278-.065,1.849,1.849,0,0,1,.284-.023h0a1.868,1.868,0,0,1,1.315.536,1.719,1.719,0,0,1,.316.4.641.641,0,0,1,.037.059,1.59,1.59,0,0,1,.134.32,1.46,1.46,0,0,1,.064.266,1.672,1.672,0,0,1,.029.3V10.5a1.871,1.871,0,0,1-.5,1.272v.007l-.06.06a1.821,1.821,0,0,1-.409.31Zm1.2-2.165Z" transform="translate(-1.505 -1.496)" fill="#1e3734"/>
  </g>
</svg>
