<?xml version="1.0" encoding="UTF-8"?><svg id="Layer_2" xmlns="http://www.w3.org/2000/svg" width="394.81" height="151.91" viewBox="0 0 394.81 151.91"><defs><style>.cls-1{fill:#033;}.cls-2{isolation:isolate;}</style></defs><g id="Molenbeek-logo-texte-vert-uni"><g id="Molenbeek-logo-texte"><g id="en_promenade" class="cls-2"><path class="cls-1" d="M160.14,129.87c-.15,.03-.37,.08-.67,.13-.3,.06-.61,.07-.94,.04-.33-.03-.62-.12-.87-.27-.25-.15-.38-.4-.38-.76,0-.21,.04-.36,.13-.45,.09-.09,.24-.22,.45-.4,.65-.54,1.21-1.23,1.67-2.08,.46-.85,.89-1.76,1.27-2.72,.39-.97,.8-1.93,1.23-2.9,.43-.97,.93-1.84,1.5-2.61,.57-.77,1.26-1.4,2.1-1.88,.83-.48,1.86-.7,3.08-.67,.5,0,1.07,.12,1.7,.36s1.21,.56,1.74,.96,.98,.89,1.34,1.45c.36,.57,.54,1.19,.54,1.88,.15,.24,0,.58-.42,1.03-.43,.45-1.02,.93-1.76,1.45-.74,.52-1.58,1.06-2.52,1.61-.94,.55-1.84,1.06-2.7,1.54-.86,.48-1.62,.89-2.28,1.25-.66,.36-1.09,.62-1.29,.8-.15,.3-.27,.64-.36,1.03-.09,.39-.16,.75-.2,1.09-.04,.34-.08,.66-.09,.94-.01,.28-.02,.5-.02,.65,0,.57-.02,1.19-.07,1.88s-.02,1.33,.09,1.94c.1,.61,.35,1.12,.74,1.52,.39,.4,1.04,.6,1.96,.6,.98,0,1.91-.25,2.77-.74,.86-.49,1.67-1.09,2.41-1.81,.74-.71,1.42-1.49,2.03-2.32,.61-.83,1.16-1.61,1.65-2.34,.49-.73,.93-1.33,1.32-1.81,.39-.48,.71-.71,.98-.71,.3,0,.62,.05,.96,.16,.34,.1,.51,.35,.51,.74,0,.54-.22,1.18-.65,1.92-.43,.74-1,1.53-1.7,2.37-.7,.83-1.5,1.66-2.41,2.48-.91,.82-1.82,1.55-2.75,2.19-.92,.64-1.83,1.16-2.72,1.56-.89,.4-1.68,.6-2.37,.6-1.34,0-2.35-.33-3.04-.98-.68-.65-1.17-1.47-1.45-2.46-.28-.98-.43-2.03-.45-3.15-.02-1.12-.04-2.15-.07-3.1Zm8.21-12.05c-.51,0-1.04,.25-1.61,.74s-1.09,1.09-1.58,1.79-.89,1.41-1.21,2.14c-.31,.73-.47,1.33-.47,1.81,.45,0,1.09-.17,1.94-.51,.85-.34,1.69-.77,2.52-1.27,.83-.51,1.56-1.04,2.19-1.61,.62-.57,.94-1.1,.94-1.61,0-.27-.11-.49-.31-.67-.21-.18-.45-.33-.74-.45-.28-.12-.57-.21-.87-.27-.3-.06-.57-.09-.8-.09Z"/><path class="cls-1" d="M181.84,138.93c-.33-4.02-.62-8.04-.87-12.08-.25-4.03-.53-8.22-.83-12.57,0-.71,.39-1.07,1.16-1.07h.36c.09,0,.19,.12,.31,.36,.12,.24,.25,.68,.38,1.32,.13,.64,.28,1.61,.45,2.9,.16,1.29,.36,2.98,.6,5.07s.51,4.69,.8,7.81c.62-2.02,1.12-3.99,1.47-5.89,.36-1.91,.82-3.64,1.38-5.2s1.36-2.94,2.39-4.13c1.03-1.19,2.51-2.07,4.44-2.63,1.07,.18,1.93,.83,2.59,1.94,.65,1.12,1.17,2.49,1.56,4.13,.39,1.64,.65,3.42,.8,5.34,.15,1.92,.24,3.76,.27,5.51,.03,1.76,.04,3.33,.04,4.71s.03,2.37,.09,2.97c-.09,.24-.22,.45-.4,.62s-.38,.31-.6,.38c-.22,.07-.44,.09-.65,.04-.21-.04-.4-.2-.58-.47,0-.33-.03-1-.09-2.01-.06-1.01-.13-2.19-.22-3.55-.09-1.35-.19-2.8-.29-4.33-.1-1.53-.19-2.98-.27-4.33-.08-1.35-.14-2.54-.2-3.55s-.1-1.68-.13-2.01c-.62-1.1-1.24-1.73-1.85-1.88-.61-.15-1.22,.04-1.83,.58-.61,.54-1.2,1.36-1.76,2.46-.57,1.1-1.1,2.34-1.61,3.73-.51,1.38-.98,2.84-1.43,4.35s-.83,2.98-1.16,4.4c-.33,1.41-.6,2.69-.83,3.84-.22,1.15-.37,2.03-.42,2.66-.09,.21-.28,.41-.56,.6-.28,.19-.58,.33-.89,.42-.31,.09-.62,.11-.94,.07-.31-.04-.54-.21-.69-.51Z"/><path class="cls-1" d="M222.78,151.26c.33-3.12,.51-6.09,.56-8.91,.04-2.81,.03-5.59-.04-8.33-.08-2.74-.19-5.51-.33-8.3-.15-2.8-.24-5.76-.27-8.88,.09-.42,.2-.74,.33-.96s.5-.28,1.09-.16c.62,.15,1,.5,1.12,1.05s.15,1.17,.09,1.85c-.06,.68-.15,1.37-.27,2.05-.12,.69-.12,1.24,0,1.65,.95-.68,1.96-1.4,3.04-2.14,1.07-.74,2.19-1.41,3.35-1.99,1.16-.58,2.37-1.01,3.62-1.29,1.25-.28,2.5-.29,3.75-.02,1.55,.36,2.63,.89,3.24,1.59s.85,1.5,.71,2.41c-.13,.91-.56,1.91-1.27,2.99-.71,1.09-1.59,2.18-2.63,3.28-1.04,1.1-2.2,2.19-3.48,3.26-1.28,1.07-2.53,2.06-3.75,2.97s-2.36,1.7-3.42,2.39c-1.06,.68-1.9,1.19-2.52,1.52-.03,.36-.07,.92-.11,1.67-.04,.76-.09,1.61-.13,2.57s-.09,1.95-.13,2.99c-.04,1.04-.09,2.04-.13,2.99-.04,.95-.09,1.8-.13,2.54-.04,.74-.07,1.29-.07,1.65-.06,.03-.16,.06-.31,.09-.15,.03-.33,.05-.54,.07s-.4,.03-.58,.04c-.18,.01-.3,0-.36-.02-.09,0-.18-.08-.27-.25-.09-.16-.13-.29-.13-.38Zm2.5-24.47c-.09,.42-.11,.93-.07,1.54,.04,.61,.1,1.25,.18,1.92,.07,.67,.16,1.32,.25,1.94,.09,.62,.15,1.16,.18,1.61,1.13-.86,2.45-1.74,3.95-2.63,1.5-.89,2.96-1.86,4.38-2.9s2.67-2.2,3.77-3.48c1.1-1.28,1.83-2.72,2.19-4.33,.12-.62,.07-1.05-.16-1.27-.22-.22-.6-.38-1.14-.47-1.13-.24-2.43-.16-3.88,.25-1.46,.4-2.87,.99-4.22,1.76-1.35,.78-2.54,1.7-3.55,2.77s-1.64,2.17-1.88,3.3Z"/><path class="cls-1" d="M244.7,117.99v-.36c0-.3,.11-.51,.33-.62,.22-.12,.48-.18,.78-.18,.24,0,.46,.02,.67,.07,.21,.04,.37,.22,.49,.51,.09,.45,.18,1.07,.27,1.85,.09,.79,.19,1.66,.31,2.61,.12,.95,.25,1.96,.38,3.01,.13,1.06,.27,2.05,.4,2.99s.27,1.78,.42,2.52c.15,.74,.31,1.31,.49,1.7-.09-2.86,0-5.33,.27-7.43,.27-2.1,.78-3.81,1.54-5.13,.76-1.32,1.8-2.25,3.12-2.77,1.32-.52,2.98-.63,4.98-.33,.92,0,1.38,.49,1.38,1.47,0,.39-.25,.65-.76,.78-.51,.13-1.07,.22-1.7,.27-.62,.04-1.24,.1-1.83,.16-.6,.06-1.03,.21-1.29,.45-1.07,.6-1.82,1.52-2.25,2.77s-.74,2.72-.92,4.42c-.18,1.7-.31,3.55-.38,5.56-.07,2.01-.28,4.07-.6,6.18,0,.3-.12,.52-.36,.67-.24,.15-.53,.22-.87,.22s-.67-.07-.98-.22c-.31-.15-.56-.37-.74-.67l-3.17-20.49Z"/><path class="cls-1" d="M262.79,133.4c-.21-1.37-.31-2.7-.31-4s.08-2.61,.25-3.95c.16-1.34,.4-2.73,.71-4.17s.68-3,1.09-4.67c0-.33,.09-.63,.27-.92,.18-.28,.42-.52,.71-.71,.3-.19,.61-.35,.94-.47,.33-.12,.64-.18,.94-.18,.65,0,1.25,.21,1.79,.62,.54,.42,1.02,.92,1.45,1.52,.43,.6,.8,1.23,1.12,1.9s.57,1.24,.78,1.72c.24,1.04,.41,2.23,.51,3.55,.1,1.33,.11,2.67,.02,4.04-.09,1.37-.3,2.72-.62,4.04-.33,1.32-.79,2.54-1.38,3.64-.6,1.1-1.36,2.02-2.3,2.77-.94,.74-2.05,1.21-3.33,1.38-.68,0-1.21-.23-1.56-.69-.36-.46-.62-1.03-.78-1.7-.16-.67-.25-1.35-.27-2.03-.02-.68-.02-1.25-.02-1.7Zm2.28-.13c0,.3,0,.58,.02,.85s.04,.53,.09,.78c.04,.25,.1,.52,.18,.8,.07,.28,.17,.6,.29,.96h.27c.71,0,1.32-.24,1.83-.71,.51-.47,.94-1.09,1.29-1.85,.36-.76,.65-1.61,.89-2.54,.24-.94,.42-1.86,.56-2.77,.13-.91,.22-1.76,.27-2.54,.04-.79,.07-1.42,.07-1.9v-.89c0-.39-.01-.83-.04-1.32-.03-.49-.08-1-.16-1.52-.08-.52-.19-1-.33-1.43-.15-.43-.34-.78-.58-1.05-.24-.27-.55-.4-.94-.4-.65-.21-1.21-.16-1.67,.13-.46,.3-.83,.8-1.12,1.5-.28,.7-.5,1.56-.65,2.57-.15,1.01-.24,2.13-.27,3.35-.03,1.22-.04,2.52-.02,3.88,.01,1.37,.02,2.74,.02,4.11Z"/><path class="cls-1" d="M276.8,139.38c-.09-.83-.16-1.96-.22-3.39-.06-1.43-.12-2.98-.18-4.67-.06-1.68-.13-3.43-.2-5.25-.07-1.81-.16-3.54-.25-5.18-.09-1.64-.2-3.13-.33-4.46-.13-1.34-.28-2.41-.42-3.21,0-.6,.13-.95,.4-1.05,.27-.1,.61-.16,1.03-.16h.4c.21,0,.36,.02,.45,.04,.27,.89,.44,2.05,.51,3.46,.07,1.41,.13,2.96,.18,4.62,.04,1.67,.09,3.39,.13,5.18,.04,1.79,.14,3.48,.29,5.09,.42-2.35,.77-4.3,1.05-5.85,.28-1.55,.55-2.79,.8-3.73,.25-.94,.49-1.64,.71-2.1,.22-.46,.48-.77,.76-.92,.28-.15,.6-.21,.94-.2s.75,.02,1.23,.02c.54,0,.97,.21,1.32,.62,.34,.42,.61,.95,.8,1.61s.34,1.37,.45,2.14c.1,.77,.2,1.53,.29,2.25,.09,.73,.19,1.39,.29,1.99,.1,.6,.27,1.01,.51,1.25,.74-2.2,1.38-4,1.92-5.4,.54-1.4,1-2.51,1.38-3.33,.39-.82,.73-1.41,1.03-1.76s.57-.57,.8-.65c.24-.07,.45-.08,.65-.02,.19,.06,.39,.09,.6,.09,.8,0,1.41,.42,1.83,1.25,.48,1.34,.8,2.61,.98,3.82,.18,1.21,.28,2.37,.31,3.48,.03,1.12,.04,2.18,.02,3.19s.01,1.99,.09,2.95c.07,.95,.24,1.89,.49,2.81,.25,.92,.69,1.83,1.32,2.72-.24,.48-.48,.8-.71,.96-.24,.16-.57,.25-.98,.25-.36,0-.67-.13-.94-.38s-.49-.57-.67-.94-.32-.75-.42-1.14c-.1-.39-.2-.73-.29-1.03-.12-4.26-.31-7.52-.56-9.8s-.63-3.47-1.14-3.59c-.51-.12-1.15,.87-1.94,2.97-.79,2.1-1.76,5.38-2.92,9.84-.09,.15-.22,.24-.4,.27-.18,.03-.37,.04-.56,.04s-.39,0-.58-.02c-.19-.01-.38,0-.56,.02-.74-4.38-1.36-7.52-1.85-9.44s-.99-2.66-1.5-2.21c-.51,.45-1.07,2.05-1.7,4.8-.62,2.75-1.43,6.62-2.41,11.59l-2.23,.54Z"/><path class="cls-1" d="M302.79,129.87c-.15,.03-.37,.08-.67,.13-.3,.06-.61,.07-.94,.04-.33-.03-.62-.12-.87-.27-.25-.15-.38-.4-.38-.76,0-.21,.04-.36,.13-.45,.09-.09,.24-.22,.45-.4,.65-.54,1.21-1.23,1.67-2.08,.46-.85,.89-1.76,1.27-2.72,.39-.97,.8-1.93,1.23-2.9,.43-.97,.93-1.84,1.5-2.61,.57-.77,1.26-1.4,2.1-1.88,.83-.48,1.86-.7,3.08-.67,.5,0,1.07,.12,1.7,.36s1.21,.56,1.74,.96,.98,.89,1.34,1.45c.36,.57,.54,1.19,.54,1.88,.15,.24,0,.58-.42,1.03-.43,.45-1.02,.93-1.76,1.45-.74,.52-1.58,1.06-2.52,1.61-.94,.55-1.84,1.06-2.7,1.54-.86,.48-1.62,.89-2.28,1.25-.66,.36-1.09,.62-1.29,.8-.15,.3-.27,.64-.36,1.03-.09,.39-.16,.75-.2,1.09-.04,.34-.08,.66-.09,.94-.01,.28-.02,.5-.02,.65,0,.57-.02,1.19-.07,1.88s-.02,1.33,.09,1.94c.1,.61,.35,1.12,.74,1.52,.39,.4,1.04,.6,1.96,.6,.98,0,1.91-.25,2.77-.74,.86-.49,1.67-1.09,2.41-1.81,.74-.71,1.42-1.49,2.03-2.32,.61-.83,1.16-1.61,1.65-2.34,.49-.73,.93-1.33,1.32-1.81,.39-.48,.71-.71,.98-.71,.3,0,.62,.05,.96,.16,.34,.1,.51,.35,.51,.74,0,.54-.22,1.18-.65,1.92-.43,.74-1,1.53-1.7,2.37-.7,.83-1.5,1.66-2.41,2.48-.91,.82-1.82,1.55-2.75,2.19-.92,.64-1.83,1.16-2.72,1.56-.89,.4-1.68,.6-2.37,.6-1.34,0-2.35-.33-3.04-.98-.68-.65-1.17-1.47-1.45-2.46-.28-.98-.43-2.03-.45-3.15-.02-1.12-.04-2.15-.07-3.1Zm8.21-12.05c-.51,0-1.04,.25-1.61,.74s-1.09,1.09-1.58,1.79-.89,1.41-1.21,2.14c-.31,.73-.47,1.33-.47,1.81,.45,0,1.09-.17,1.94-.51,.85-.34,1.69-.77,2.52-1.27,.83-.51,1.56-1.04,2.19-1.61,.62-.57,.94-1.1,.94-1.61,0-.27-.11-.49-.31-.67-.21-.18-.45-.33-.74-.45-.28-.12-.57-.21-.87-.27-.3-.06-.57-.09-.8-.09Z"/><path class="cls-1" d="M324.49,138.93c-.33-4.02-.62-8.04-.87-12.08-.25-4.03-.53-8.22-.83-12.57,0-.71,.39-1.07,1.16-1.07h.36c.09,0,.19,.12,.31,.36,.12,.24,.25,.68,.38,1.32,.13,.64,.28,1.61,.45,2.9,.16,1.29,.36,2.98,.6,5.07s.51,4.69,.8,7.81c.62-2.02,1.12-3.99,1.47-5.89,.36-1.91,.82-3.64,1.38-5.2s1.36-2.94,2.39-4.13c1.03-1.19,2.51-2.07,4.44-2.63,1.07,.18,1.93,.83,2.59,1.94,.65,1.12,1.17,2.49,1.56,4.13,.39,1.64,.65,3.42,.8,5.34,.15,1.92,.24,3.76,.27,5.51,.03,1.76,.04,3.33,.04,4.71s.03,2.37,.09,2.97c-.09,.24-.22,.45-.4,.62s-.38,.31-.6,.38c-.22,.07-.44,.09-.65,.04-.21-.04-.4-.2-.58-.47,0-.33-.03-1-.09-2.01-.06-1.01-.13-2.19-.22-3.55-.09-1.35-.19-2.8-.29-4.33-.1-1.53-.19-2.98-.27-4.33-.08-1.35-.14-2.54-.2-3.55s-.1-1.68-.13-2.01c-.62-1.1-1.24-1.73-1.85-1.88-.61-.15-1.22,.04-1.83,.58-.61,.54-1.2,1.36-1.76,2.46-.57,1.1-1.1,2.34-1.61,3.73-.51,1.38-.98,2.84-1.43,4.35s-.83,2.98-1.16,4.4c-.33,1.41-.6,2.69-.83,3.84-.22,1.15-.37,2.03-.42,2.66-.09,.21-.28,.41-.56,.6-.28,.19-.58,.33-.89,.42-.31,.09-.62,.11-.94,.07-.31-.04-.54-.21-.69-.51Z"/><path class="cls-1" d="M357.39,138.35c-.15-.77-.28-1.7-.38-2.79-.1-1.09-.22-2.19-.33-3.3-.12-1.12-.26-2.16-.42-3.15-.16-.98-.41-1.79-.74-2.41-1.52,3.1-2.86,5.53-4.02,7.3s-2.18,3.04-3.06,3.79c-.88,.76-1.62,1.12-2.21,1.09-.6-.03-1.09-.3-1.47-.8-.39-.51-.66-1.15-.83-1.94-.16-.79-.28-1.53-.33-2.21,0-.65,.15-1.58,.45-2.77,.3-1.19,.7-2.49,1.21-3.91,.51-1.41,1.11-2.85,1.81-4.31,.7-1.46,1.45-2.78,2.25-3.97,.8-1.19,1.64-2.17,2.5-2.95,.86-.77,1.73-1.16,2.59-1.16,1.28-.21,2.22,.07,2.83,.83,.61,.76,.72,2.03,.33,3.82,0,1.96,.08,3.65,.25,5.04,.16,1.4,.34,2.74,.54,4.02,.19,1.28,.37,2.62,.54,4.02,.16,1.4,.25,3.08,.25,5.04,0,.36-.04,.66-.11,.92-.08,.25-.44,.38-1.09,.38-.09,0-.2-.07-.33-.22-.13-.15-.2-.27-.2-.36Zm-2.41-19.96c-.33-.48-.77-.52-1.34-.13s-1.16,1.03-1.79,1.92-1.27,1.96-1.92,3.21c-.66,1.25-1.27,2.52-1.83,3.79s-1.06,2.49-1.47,3.64c-.42,1.15-.7,2.09-.85,2.83,0,1.07,.16,1.67,.49,1.81,.33,.13,.73-.04,1.21-.51,.48-.47,1.02-1.16,1.63-2.05,.61-.89,1.21-1.85,1.79-2.86,.58-1.01,1.13-1.99,1.65-2.95,.52-.95,.93-1.73,1.23-2.32,.27-.63,.48-1.21,.62-1.74,.15-.54,.27-1.05,.38-1.54,.1-.49,.16-.99,.18-1.5,.01-.51,.02-1.04,.02-1.61Z"/><path class="cls-1" d="M371.23,131.34c-.3,.68-.68,1.47-1.14,2.37-.46,.89-1,1.74-1.61,2.54-.61,.8-1.32,1.49-2.12,2.05s-1.7,.85-2.68,.85c-.45,0-.8-.05-1.05-.16-.25-.1-.48-.26-.67-.47-.19-.21-.37-.46-.54-.76-.16-.3-.37-.62-.6-.98-.09-1.46-.14-3.03-.16-4.71-.02-1.68,.07-3.36,.25-5.04s.48-3.27,.92-4.76c.43-1.49,1.04-2.75,1.83-3.79,.79-1.04,1.78-1.79,2.97-2.23,1.19-.45,2.63-.47,4.33-.09,.09-.83,.1-1.95,.04-3.35-.06-1.4-.15-2.87-.27-4.42-.12-1.55-.24-3.04-.36-4.49s-.19-2.63-.22-3.55c0-.27,.13-.47,.38-.6,.25-.13,.53-.22,.83-.25s.59-.03,.87,0c.28,.03,.47,.07,.56,.13-.06,3.66-.07,7.25-.04,10.78,.03,3.53,.07,7.04,.11,10.54,.04,3.5,.1,6.97,.16,10.42,.06,3.45,.09,6.91,.09,10.36,0,.33-.02,.68-.07,1.05-.04,.37-.31,.56-.78,.56-.18,0-.36-.05-.54-.16-.18-.1-.3-.26-.36-.47l-.13-11.38Zm-1.92-12.95c-.92-.06-1.78,.31-2.57,1.09-.79,.79-1.47,1.81-2.05,3.06-.58,1.25-1.05,2.63-1.41,4.13-.36,1.5-.57,2.95-.65,4.33-.07,1.38,.01,2.61,.27,3.68,.25,1.07,.71,1.8,1.36,2.19,.65,0,1.26-.26,1.83-.78,.57-.52,1.09-1.18,1.56-1.99,.48-.8,.89-1.7,1.25-2.7,.36-1,.66-1.96,.92-2.88,.25-.92,.45-1.76,.58-2.52,.13-.76,.2-1.33,.2-1.72,0-.3,.01-.77,.04-1.43,.03-.65,.01-1.31-.04-1.96-.06-.66-.19-1.24-.38-1.74-.19-.51-.5-.76-.92-.76Z"/><path class="cls-1" d="M377.22,129.87c-.15,.03-.37,.08-.67,.13-.3,.06-.61,.07-.94,.04-.33-.03-.62-.12-.87-.27-.25-.15-.38-.4-.38-.76,0-.21,.04-.36,.13-.45,.09-.09,.24-.22,.45-.4,.65-.54,1.21-1.23,1.67-2.08,.46-.85,.89-1.76,1.27-2.72,.39-.97,.8-1.93,1.23-2.9,.43-.97,.93-1.84,1.5-2.61,.57-.77,1.26-1.4,2.1-1.88,.83-.48,1.86-.7,3.08-.67,.5,0,1.07,.12,1.7,.36s1.21,.56,1.74,.96,.98,.89,1.34,1.45c.36,.57,.54,1.19,.54,1.88,.15,.24,0,.58-.42,1.03-.43,.45-1.02,.93-1.76,1.45-.74,.52-1.58,1.06-2.52,1.61-.94,.55-1.84,1.06-2.7,1.54-.86,.48-1.62,.89-2.28,1.25-.66,.36-1.09,.62-1.29,.8-.15,.3-.27,.64-.36,1.03-.09,.39-.16,.75-.2,1.09-.04,.34-.08,.66-.09,.94-.01,.28-.02,.5-.02,.65,0,.57-.02,1.19-.07,1.88s-.02,1.33,.09,1.94c.1,.61,.35,1.12,.74,1.52,.39,.4,1.04,.6,1.96,.6,.98,0,1.91-.25,2.77-.74,.86-.49,1.67-1.09,2.41-1.81,.74-.71,1.42-1.49,2.03-2.32,.61-.83,1.16-1.61,1.65-2.34,.49-.73,.93-1.33,1.32-1.81,.39-.48,.71-.71,.98-.71,.3,0,.62,.05,.96,.16,.34,.1,.51,.35,.51,.74,0,.54-.22,1.18-.65,1.92-.43,.74-1,1.53-1.7,2.37-.7,.83-1.5,1.66-2.41,2.48-.91,.82-1.82,1.55-2.75,2.19-.92,.64-1.83,1.16-2.72,1.56-.89,.4-1.68,.6-2.37,.6-1.34,0-2.35-.33-3.04-.98-.68-.65-1.17-1.47-1.45-2.46-.28-.98-.43-2.03-.45-3.15-.02-1.12-.04-2.15-.07-3.1Zm8.21-12.05c-.51,0-1.04,.25-1.61,.74s-1.09,1.09-1.58,1.79-.89,1.41-1.21,2.14c-.31,.73-.47,1.33-.47,1.81,.45,0,1.09-.17,1.94-.51,.85-.34,1.69-.77,2.52-1.27,.83-.51,1.56-1.04,2.19-1.61,.62-.57,.94-1.1,.94-1.61,0-.27-.11-.49-.31-.67-.21-.18-.45-.33-.74-.45-.28-.12-.57-.21-.87-.27-.3-.06-.57-.09-.8-.09Z"/></g><g id="Molenbeek" class="cls-2" transform="translate(1 29)"><g id="letters" class="cls-2"><path class="cls-1" d="M54.48,3.01V52.98h-10.02V20.48l-13.39,32.5h-7.59L10.02,20.48V52.98H0V3.01H11.38l15.89,37.15L43.17,3.01h11.31Z"/><path class="cls-1" d="M120.05,0V52.98h-10.02V0h10.02Z"/><path class="cls-1" d="M166.51,36.15h-28.99c.24,2.86,1.24,5.11,3.01,6.73,1.77,1.62,3.94,2.43,6.51,2.43,3.72,0,6.37-1.6,7.95-4.8h10.81c-1.14,3.82-3.34,6.96-6.59,9.41-3.25,2.46-7.23,3.69-11.95,3.69-3.82,0-7.24-.85-10.27-2.54s-5.39-4.09-7.09-7.19c-1.7-3.1-2.54-6.68-2.54-10.74s.83-7.71,2.51-10.81c1.67-3.1,4.01-5.49,7.02-7.16s6.47-2.51,10.38-2.51,7.15,.81,10.13,2.43c2.98,1.62,5.3,3.93,6.94,6.91,1.65,2.98,2.47,6.41,2.47,10.27,0,1.43-.1,2.72-.29,3.87Zm-10.09-6.73c-.05-2.58-.98-4.64-2.79-6.19-1.81-1.55-4.03-2.33-6.66-2.33-2.48,0-4.57,.75-6.26,2.26-1.7,1.5-2.73,3.59-3.12,6.26h18.83Z"/><path class="cls-1" d="M207.53,17.22c2.91,2.98,4.37,7.15,4.37,12.49v23.27h-10.02V31.07c0-3.15-.79-5.57-2.36-7.27s-3.72-2.54-6.44-2.54-4.95,.85-6.55,2.54c-1.6,1.69-2.4,4.12-2.4,7.27v21.91h-10.02V13.32h10.02v4.94c1.34-1.72,3.04-3.07,5.12-4.04,2.08-.98,4.35-1.47,6.84-1.47,4.73,0,8.54,1.49,11.45,4.47Z"/><path class="cls-1" d="M236.78,14.46c2.27-1.19,4.86-1.79,7.77-1.79,3.39,0,6.45,.83,9.2,2.51,2.74,1.67,4.92,4.04,6.51,7.12s2.4,6.65,2.4,10.7-.8,7.65-2.4,10.77-3.77,5.55-6.51,7.27c-2.74,1.72-5.81,2.58-9.2,2.58-2.96,0-5.55-.59-7.77-1.75s-4-2.68-5.33-4.55v5.66h-10.02V0h10.02V19.11c1.29-1.91,3.07-3.46,5.33-4.65Zm14.18,12.35c-.98-1.74-2.27-3.07-3.87-3.97-1.6-.91-3.33-1.36-5.19-1.36s-3.52,.47-5.12,1.4-2.89,2.28-3.87,4.04c-.98,1.77-1.47,3.84-1.47,6.23s.49,4.46,1.47,6.23c.98,1.77,2.27,3.11,3.87,4.04s3.3,1.4,5.12,1.4,3.59-.48,5.19-1.43,2.89-2.32,3.87-4.08c.98-1.77,1.47-3.87,1.47-6.3s-.49-4.45-1.47-6.19Z"/><path class="cls-1" d="M306.54,36.15h-28.99c.24,2.86,1.24,5.11,3.01,6.73,1.77,1.62,3.94,2.43,6.51,2.43,3.72,0,6.37-1.6,7.95-4.8h10.81c-1.14,3.82-3.34,6.96-6.59,9.41-3.25,2.46-7.23,3.69-11.95,3.69-3.82,0-7.24-.85-10.27-2.54s-5.39-4.09-7.09-7.19c-1.7-3.1-2.54-6.68-2.54-10.74s.83-7.71,2.51-10.81c1.67-3.1,4.01-5.49,7.02-7.16s6.47-2.51,10.38-2.51,7.15,.81,10.13,2.43c2.98,1.62,5.3,3.93,6.94,6.91,1.65,2.98,2.47,6.41,2.47,10.27,0,1.43-.1,2.72-.29,3.87Zm-10.09-6.73c-.05-2.58-.98-4.64-2.79-6.19-1.81-1.55-4.03-2.33-6.66-2.33-2.48,0-4.57,.75-6.26,2.26-1.7,1.5-2.73,3.59-3.12,6.26h18.83Z"/><path class="cls-1" d="M350.71,36.15h-28.99c.24,2.86,1.24,5.11,3.01,6.73,1.77,1.62,3.94,2.43,6.51,2.43,3.72,0,6.37-1.6,7.95-4.8h10.81c-1.14,3.82-3.34,6.96-6.59,9.41-3.25,2.46-7.23,3.69-11.95,3.69-3.82,0-7.24-.85-10.27-2.54s-5.39-4.09-7.09-7.19c-1.7-3.1-2.54-6.68-2.54-10.74s.83-7.71,2.51-10.81c1.67-3.1,4.01-5.49,7.02-7.16s6.47-2.51,10.38-2.51,7.15,.81,10.13,2.43c2.98,1.62,5.3,3.93,6.94,6.91,1.65,2.98,2.47,6.41,2.47,10.27,0,1.43-.1,2.72-.29,3.87Zm-10.09-6.73c-.05-2.58-.98-4.64-2.79-6.19-1.81-1.55-4.03-2.33-6.66-2.33-2.48,0-4.57,.75-6.26,2.26-1.7,1.5-2.73,3.59-3.12,6.26h18.83Z"/><path class="cls-1" d="M381.78,52.98l-13.46-16.89v16.89h-10.02V0h10.02V30.14l13.32-16.82h13.03l-17.47,19.9,17.61,19.76h-13.03Z"/></g><path class="cls-1" d="M97.35,35.49c2.19-2.34,3.95-4.42,5.24-6.03,.02-.02,.04-.04,.05-.06,.14-.17,.26-.33,.38-.48,.04-.04,.07-.08,.09-.12h.01c.87-1.21,1.38-2.69,1.38-4.29V11.44c0-.5-.18-.77-.45-.77-.17,0-.38,.11-.6,.33l-12.3,12.3s0-.07,0-.1c-.07-.73-.4-1.81-4.99-6.12-2.33-2.2-4.41-3.96-6.02-5.25-.02-.02-.04-.04-.06-.05-.17-.14-.33-.26-.48-.38-.03-.03-.06-.05-.09-.07h0s-.02-.02-.03-.02h0c-1.21-.88-2.7-1.39-4.29-1.39h-13.07c-.82,0-1.02,.48-.44,1.06l12.3,12.3s-.07,0-.1,0c-.73,.07-1.81,.39-6.13,4.98-2.25,2.41-4.05,4.55-5.36,6.17-.08,.1-.15,.19-.22,.28-.04,.04-.07,.08-.1,.12-.03,.03-.05,.07-.07,.11-.89,1.22-1.4,2.71-1.4,4.3v13.07c0,.5,.18,.77,.45,.77,.17,0,.38-.11,.6-.34l12.43-12.43c.39,3.2,4.86,6.4,10.28,11.05,.01,.01,.02,.02,.04,.03,0,.02,.02,.03,.04,.05,0,.01,.02,.01,.02,.01,.36,.3,.71,.61,1.07,.92,0,.02,.03,.03,.05,.04,.01,0,.02,.01,.04,.01h0c.38,.25,.8,.44,1.26,.61,.55,.2,1.16,.36,1.84,.48,1.82,.33,4.16,.43,7.14,.43,2.06,0,4.43-.04,7.16-.09,.8,0,.99-.49,.43-1.05l-12.33-12.33s.07,0,.1,0c.73-.07,1.82-.4,6.13-4.98Zm-14.77,.58s-.09,0-.14-.01c-1.11-.03-2.12-.51-2.84-1.26-.25-.27-.47-.57-.65-.9-.03-.04-.05-.08-.07-.13-.11-.22-.2-.46-.27-.7-.06-.19-.1-.39-.12-.6-.03-.17-.04-.35-.04-.53v-.1c.03-1.12,.5-2.13,1.25-2.85,.26-.27,.56-.49,.88-.66,.04-.03,.09-.05,.13-.07,.21-.11,.43-.2,.65-.26,.19-.07,.39-.11,.6-.14,.2-.03,.41-.05,.62-.05h.01c1.12,0,2.13,.45,2.87,1.18,.27,.25,.5,.55,.69,.88,.03,.04,.05,.07,.07,.11,.12,.22,.22,.46,.29,.7,.07,.19,.11,.39,.14,.59,.04,.21,.06,.42,.06,.64v.03c0,1.13-.46,2.16-1.21,2.91h0c-.27,.28-.57,.51-.9,.69-.03,.02-.07,.04-.1,.05-.26,.14-.53,.25-.82,.33-.17,.05-.34,.08-.52,.11-.19,.03-.38,.04-.58,.04Z"/></g></g></g></svg>