<?xml version="1.0" encoding="UTF-8"?><svg id="Layer_2" xmlns="http://www.w3.org/2000/svg" width="30.68" height="30.68" viewBox="0 0 30.68 30.68"><defs><style>.cls-1{fill:#033;}</style></defs><g id="Layer_10"><g><path class="cls-1" d="M24.44,30c-2.26,0-3.7-.09-4.82-.29-.44-.08-.84-.18-1.2-.31-.25-.09-.45-.18-.64-.28v-.15h-.23s-.46-.4-.6-.52v-.06l-.19-.09c-.55-.48-1.13-.97-1.68-1.43-2.78-2.33-4.98-4.16-5.18-5.86l-.08-.69L.82,29.28c-.06,.06-.1,.09-.13,.11,0-.03,0-.08,0-.16v-8.91c0-.99,.31-1.93,.89-2.73l.26-.34c1.17-1.44,2.4-2.85,3.65-4.18,3.02-3.2,3.64-3.26,3.97-3.29l1.38,.46-1.1-1.04L1.32,.82c-.06-.06-.09-.1-.11-.14,0,0,.02,0,.03,0,.03,0,.08,0,.14,0H10.31c.93,0,1.82,.27,2.59,.78v.16h.23l.31,.25c1.41,1.13,2.79,2.33,4.14,3.6,3.21,3.01,3.27,3.62,3.3,3.96l-.46,1.37,1.04-1.09L29.86,1.32c.06-.06,.1-.09,.13-.11,0,.03,0,.08,0,.16V10.28c0,.93-.27,1.82-.78,2.58h-.03l-.1,.19-.28,.35c-1.12,1.39-2.32,2.77-3.6,4.13-3.02,3.2-3.64,3.26-3.97,3.29l-1.38-.46,1.1,1.04,8.43,8.4c.05,.05,.09,.1,.1,.13,0,0-.1,0-.16,0-1.87,.03-3.48,.06-4.89,.06ZM15.36,12.19c-.16,0-.32,.01-.47,.04-.19,.03-.34,.06-.48,.11-.14,.04-.31,.1-.48,.2-.04,.02-.08,.04-.14,.08-.21,.11-.44,.28-.64,.49-.59,.56-.93,1.34-.95,2.17,0,.22,0,.36,.03,.5,.01,.14,.04,.3,.09,.45,.05,.18,.12,.36,.2,.53,0,.02,.03,.08,.08,.14,.11,.2,.27,.43,.47,.64,.58,.6,1.35,.95,2.18,.97h.1c.16,0,.3,0,.45-.02,.14-.02,.27-.05,.4-.08,.22-.06,.42-.14,.63-.25l.1-.05c.22-.12,.46-.29,.67-.51l.1-.1h0c.53-.59,.83-1.34,.83-2.13,0-.19-.02-.36-.05-.52-.02-.15-.06-.31-.11-.46-.05-.16-.12-.35-.22-.52l-.07-.12c-.13-.23-.31-.46-.51-.65-.58-.57-1.37-.89-2.19-.89h0Z"/><path class="cls-1" d="M10.31,1.02c.8,0,1.57,.22,2.25,.62v.32h.47c.06,.06,.12,.11,.19,.17h.01v.02l.04,.02c1.36,1.09,2.73,2.28,4.07,3.54,2.8,2.62,3.13,3.37,3.19,3.65l-.87,2.61,2.04-2.04,7.96-7.94V10.28c0,.8-.22,1.57-.63,2.24h-.06l-.16,.33h0l-.1,.14c-.05,.06-.1,.12-.15,.19h-.01v.02l-.03,.03c-1.08,1.34-2.27,2.71-3.55,4.07-2.63,2.79-3.38,3.12-3.67,3.17l-2.62-.87,2.05,2.04,7.99,7.96c-1.58,.03-3.01,.05-4.26,.05-2.24,0-3.66-.08-4.76-.28-.42-.07-.8-.17-1.14-.3-.15-.06-.29-.11-.41-.17v-.29h-.45l-.08-.07c-.1-.09-.2-.18-.3-.26v-.11l-.31-.15c-.58-.5-1.14-.97-1.68-1.42-2.72-2.28-4.87-4.07-5.06-5.64l-.17-1.39-.99,.99L1.02,28.59v-8.27c0-.92,.29-1.79,.83-2.53l.04-.06v-.02l.04-.03,.03-.03,.14-.18c1.16-1.44,2.39-2.84,3.63-4.17,2.63-2.79,3.38-3.12,3.67-3.17l2.61,.87-2.05-2.04L2.01,1.02H10.31m4.01,10.99c-.18,.05-.37,.13-.55,.22-.03,.01-.08,.04-.13,.07-.28,.15-.53,.34-.72,.54-.66,.63-1.04,1.49-1.06,2.44v.07c0,.17,.01,.32,.03,.45,.02,.18,.06,.36,.1,.51,.06,.2,.13,.39,.22,.57,.02,.05,.05,.1,.09,.17,.14,.26,.32,.5,.53,.73,.63,.65,1.47,1.03,2.37,1.07,.05,0,.1,0,.16,0,.19,0,.35-.01,.51-.04,.15-.03,.29-.05,.42-.09,.23-.06,.45-.15,.67-.26,.04-.02,.09-.04,.13-.07,.27-.15,.52-.34,.75-.57l.2-.21v-.02c.54-.63,.83-1.42,.83-2.27,0-.19-.02-.38-.05-.54-.02-.14-.06-.34-.12-.49-.06-.21-.15-.42-.24-.59-.03-.05-.05-.09-.09-.14-.17-.28-.36-.52-.56-.71-.66-.64-1.52-1-2.45-1-.17,0-.34,.01-.52,.04-.21,.03-.37,.07-.52,.12M10.31,.34H1.38c-.56,0-.7,.33-.3,.72L9.48,9.45s-.01,0-.02,0c-.02,0-.03,0-.05,0-.5,.05-1.24,.27-4.19,3.39-1.54,1.64-2.77,3.1-3.66,4.2-.05,.07-.1,.13-.15,.19-.03,.03-.05,.05-.07,.08-.02,.02-.03,.05-.05,.07-.61,.83-.96,1.85-.96,2.93v8.91c0,.34,.12,.52,.31,.52,.12,0,.26-.07,.41-.23l8.49-8.47c.27,2.18,3.32,4.36,7.03,7.53,0,0,.01,.01,.03,.02,0,.01,.01,.02,.03,.03,0,0,.01,0,.01,0,.25,.2,.49,.42,.73,.63,0,.01,.02,.02,.03,.03,0,0,.01,0,.03,0h0c.26,.17,.55,.3,.86,.42,.38,.14,.79,.25,1.26,.33,1.24,.22,2.84,.29,4.88,.29,1.41,0,3.03-.03,4.89-.06,.55,0,.68-.33,.29-.72l-8.43-8.4s.01,0,.02,0c.02,0,.03,0,.05,0,.5-.05,1.24-.27,4.19-3.39,1.5-1.59,2.7-3.01,3.58-4.11,.01-.01,.03-.03,.03-.04,.1-.12,.18-.22,.26-.33,.03-.03,.05-.05,.06-.08h0c.59-.82,.94-1.83,.94-2.92V1.38c0-.34-.12-.52-.31-.52-.12,0-.26,.07-.41,.22l-8.41,8.38s0-.05,0-.07c-.05-.5-.27-1.23-3.41-4.17-1.59-1.5-3.01-2.7-4.11-3.58-.01-.01-.03-.03-.04-.03-.12-.1-.23-.18-.33-.26-.02-.02-.04-.03-.06-.05h0s-.01-.01-.02-.01h0c-.83-.6-1.85-.95-2.93-.95h0Zm5.05,17.82s-.06,0-.1,0c-.76-.02-1.45-.35-1.94-.86-.17-.18-.32-.39-.44-.61-.02-.03-.03-.05-.05-.09-.08-.15-.14-.31-.18-.48-.04-.13-.07-.27-.08-.41-.02-.12-.03-.24-.03-.36v-.07c.02-.76,.34-1.45,.85-1.94,.18-.18,.38-.33,.6-.45,.03-.02,.06-.03,.09-.05,.14-.07,.29-.14,.44-.18,.13-.05,.27-.07,.41-.1,.14-.02,.28-.03,.42-.03h0c.77,0,1.46,.31,1.96,.8,.18,.17,.34,.37,.47,.6,.02,.03,.03,.05,.05,.07,.08,.15,.15,.31,.2,.48,.05,.13,.08,.27,.1,.4,.03,.14,.04,.29,.04,.44v.02c0,.77-.31,1.47-.83,1.98h0c-.18,.19-.39,.35-.62,.47-.02,.01-.05,.03-.07,.03-.18,.1-.36,.17-.56,.22-.12,.03-.23,.05-.36,.07-.13,.02-.26,.03-.4,.03h0Z"/></g></g></svg>