<svg id="Layer_1-2" xmlns="http://www.w3.org/2000/svg" width="33.104" height="33.131" viewBox="0 0 33.104 33.131">
  <g id="icon-web">
    <path id="Path_311" data-name="Path 311" d="M22.995,8.516H16.388v6.108c.816.972,3-.929,3.5,1.575H16.371v6.319h3.06q.343,1.31-3.072,1.609v5.518l3.343-1.5v2.207c-6.021,2.224-13.623-.68-17.322-6.577A15.523,15.523,0,0,1,24.229,2.67c5.755,3.916,8.384,11.59,5.966,17.577-1.886-.984-.266-2.535-.763-4-.7,0-1.555.008-2.4,0a2.893,2.893,0,0,1-3.119-2.8c-.253-1.619-.6-3.224-.916-4.922ZM8.032,8.557c-.354,2.06-.7,4.084-1.053,6.136h7.762V8.557Zm6.713,7.785H6.915c.367,1.9.682,3.667,1.072,5.414.07.313.458.784.71.791,2.02.066,4.044.036,6.047.036V16.34ZM5.511,14.75c.352-2.111.692-4.138,1.031-6.175-3.565-.117-3.194-.891-4.532,3.034a25.755,25.755,0,0,0-.65,3.141H5.511Zm24.072.009c-.4-5.5-1.4-6.667-5.075-6.126q.534,3.064,1.07,6.126ZM1.495,16.308c.313,5.326,1.4,6.613,5.052,6.16-.351-2.043-.7-4.086-1.053-6.16h-4ZM14.75,1.49c-3.057.729-4.617,2.812-5.88,5.454h5.88Zm-.024,28.077V24.153h-5.9C10.194,26.765,11.7,28.879,14.726,29.567ZM16.352,1.521v5.4h5.863C20.894,4.3,19.381,2.193,16.352,1.521Zm5.461,1.144-.313.392c.5.791,1.04,1.566,1.5,2.38,1.1,1.933,1.317,2.03,3.816,1.195ZM4.4,6.528q3.1.718,4.826-3.85Q6.815,4.6,4.4,6.528Zm-.358,17.7C6,25.8,7.616,27.1,9.233,28.4l.317-.334a10.979,10.979,0,0,1-1.419-2.3c-.616-1.932-1.939-1.943-4.086-1.534Z" transform="translate(-0.001 0)" fill="#1e3734"/>
    <path id="Path_312" data-name="Path 312" d="M119.314,98.644a17.545,17.545,0,0,1-1.768,2.241c-.707.629-1.362.479-1.37-.6q-.042-6.428,0-12.856c.006-1.084.552-1.472,1.421-.669q4.729,4.353,9.381,8.789c.222.211.471.75.373.874a1.539,1.539,0,0,1-.984.52c-.865.072-1.739.023-2.908.023a30.343,30.343,0,0,0,1.379,3.017c.791,1.323.373,2.043-.971,2.478a4.543,4.543,0,0,0-.961.432c-1.031.626-1.592.236-1.994-.791-.383-.978-.876-1.915-1.594-3.456Zm5.375-3.326-7.02-6.573V98.68c.384-.322.6-.488.8-.669,1.381-1.242,1.541-1.214,2.329.445.475,1,.946,2,1.462,3.1l1.37-.626c-.3-.718-.56-1.364-.85-2q-1.383-3.032,1.909-3.611Z" transform="translate(-94.266 -70.064)" fill="#1e3734"/>
  </g>
</svg>
