<?xml version="1.0" encoding="UTF-8"?><svg id="a" xmlns="http://www.w3.org/2000/svg" viewBox="0 0 812.45 486.89"><defs><style>.b,.c{fill:#fff;}.d{stroke-width:1.06px;}.d,.e,.c,.f{stroke:#000;stroke-miterlimit:10;}.d,.e,.g,.f{fill:none;}.e{stroke-width:.99px;}.c{stroke-width:1.15px;}.f{stroke-width:.41px;}</style></defs><path d="M811,102.5c1.93,0,1.93-3,0-3s-1.93,3,0,3h0Z"/><line class="g" x2="2" y2="79"/><line class="g" x1="8" x2="10" y2="79"/><line class="g" x1="16" x2="18" y2="79"/><g><line class="g" x1="24" y1="196.1" x2="25.19" y2="243.28"/><g><g><g><rect class="b" x="118.32" y="256.03" width="38.31" height="98.14"/><path d="M156.43,256.23v97.73h-37.91v-97.73h37.91m.41-.41h-38.72v98.54h38.72v-98.54h0Z"/></g><g><rect class="b" x="128.57" y="330.37" width="17.06" height="23.8"/><path d="M145.42,330.57v23.39h-16.65v-23.39h16.65m.41-.41h-17.46v24.2h17.46v-24.2h0Z"/></g><g><rect class="b" x="122.49" y="261.64" width="10.98" height="9.97"/><path d="M133.27,261.85v9.56h-10.58v-9.56h10.58m.41-.41h-11.39v10.37h11.39v-10.37h0Z"/></g><g><rect class="b" x="122.49" y="275.48" width="10.98" height="9.97"/><path d="M133.27,275.68v9.56h-10.58v-9.56h10.58m.41-.41h-11.39v10.37h11.39v-10.37h0Z"/></g><g><rect class="b" x="122.49" y="289.31" width="10.98" height="9.97"/><path d="M133.27,289.51v9.56h-10.58v-9.56h10.58m.41-.41h-11.39v10.37h11.39v-10.37h0Z"/></g><g><rect class="b" x="122.49" y="303.14" width="10.98" height="9.97"/><path d="M133.27,303.34v9.56h-10.58v-9.56h10.58m.41-.41h-11.39v10.37h11.39v-10.37h0Z"/></g><g><rect class="b" x="122.49" y="316.97" width="10.98" height="9.97"/><path d="M133.27,317.17v9.56h-10.58v-9.56h10.58m.41-.41h-11.39v10.37h11.39v-10.37h0Z"/></g><g><rect class="b" x="140.34" y="261.64" width="10.98" height="9.97"/><path d="M151.12,261.85v9.56h-10.58v-9.56h10.58m.41-.41h-11.39v10.37h11.39v-10.37h0Z"/></g><g><rect class="b" x="140.34" y="275.48" width="10.98" height="9.97"/><path d="M151.12,275.68v9.56h-10.58v-9.56h10.58m.41-.41h-11.39v10.37h11.39v-10.37h0Z"/></g><g><rect class="b" x="140.34" y="289.31" width="10.98" height="9.97"/><path d="M151.12,289.51v9.56h-10.58v-9.56h10.58m.41-.41h-11.39v10.37h11.39v-10.37h0Z"/></g><g><rect class="b" x="140.34" y="303.14" width="10.98" height="9.97"/><path d="M151.12,303.34v9.56h-10.58v-9.56h10.58m.41-.41h-11.39v10.37h11.39v-10.37h0Z"/></g><g><rect class="b" x="140.34" y="316.97" width="10.98" height="9.97"/><path d="M151.12,317.17v9.56h-10.58v-9.56h10.58m.41-.41h-11.39v10.37h11.39v-10.37h0Z"/></g><line class="f" x1="136.91" y1="329.95" x2="136.91" y2="354.15"/></g><path d="M107.41,380.49c17.48-4.12,35.24,1.06,52.25,4.99,17.14,3.95,34.61,6.36,52.2,7.05s35.04-.28,52.36-2.88c16.97-2.55,34.06-6.37,49.91-13.07,15.61-6.6,29.13-16.73,42.21-27.34,1.61-1.3,3.21-2.61,4.81-3.92,.89-.73-.38-1.99-1.27-1.27-12.97,10.6-26.11,21.29-41.31,28.58-15.56,7.46-32.66,11.58-49.6,14.46s-34.8,4.19-52.3,3.8c-17.58-.39-35.12-2.45-52.31-6.18-16.79-3.65-33.95-9.24-51.34-7.04-2.05,.26-4.08,.62-6.09,1.1-1.12,.26-.65,1.99,.48,1.73h0Z"/><path d="M103.36,359.04c15.87-3.92,32.32-3.41,48.54-3.14,16.89,.28,33.79,.4,50.69,.36,16.9-.05,33.79-.26,50.68-.63,8.4-.19,16.81-.41,25.21-.68,7.51-.24,15.09-.37,22.49-1.81,7.01-1.36,13.42-4.14,19.08-8.5s10.12-9.25,15.32-13.73c1.33-1.14,2.69-2.25,4.11-3.28,.92-.67,.03-2.23-.9-1.55-5.5,4.03-10.19,8.98-15.26,13.51-5.37,4.8-11.2,8.69-18.18,10.71s-14.66,2.44-22.07,2.7c-8.35,.29-16.7,.52-25.05,.73-16.81,.4-33.62,.65-50.43,.72-16.9,.08-33.79,0-50.69-.26-16.05-.24-32.31-1.05-48.18,1.86-1.96,.36-3.9,.78-5.83,1.26-1.12,.28-.64,2,.48,1.73h0Z"/><path d="M121.96,361.44c-1.58-.72-1.81-1.81-1.44-2.61,.41-.9,1.62-1.51,2.97-1.51,1.33,0,2.52,.62,2.93,1.52,.45,.99-.04,1.89-1.43,2.61,.43,.25,.86,.5,1.29,.74,.69,.4,1.39,.78,2.07,1.19,.21,.12,.42,.18,.69,.18,1.46,0,2.91-.01,4.37,0,1.17,0,2.07,.67,2,1.48-.05,.56-.47,.97-1.2,1.18-.23,.07-.29,.14-.29,.31,0,3.87,0,7.75,0,11.62,0,.1,0,.2-.03,.29-.06,.16-.23,.24-.46,.23-.23-.01-.37-.11-.4-.27-.01-.09-.01-.18-.01-.27,0-3.83,0-7.66,0-11.49v-.31h-.39c-1.35,0-2.7-.02-4.04,0-.89,.01-1.66-.16-2.32-.58-.08-.05-.17-.1-.25-.14-.01,0-.04,0-.09-.01,0,.07-.01,.13-.01,.19,0,.67,0,1.35,0,2.02,0,.11,.06,.24,.15,.33,.87,.9,1.73,1.81,2.65,2.67,.75,.71,1.21,1.47,1.43,2.34,.33,1.26,.74,2.5,1.12,3.75,.25,.83-.37,1.56-1.48,1.73-1.07,.16-2.1-.33-2.35-1.14-.43-1.4-.84-2.79-1.28-4.19-.06-.2-.2-.39-.35-.57-.24-.28-.53-.54-.86-.79,0,.17,.03,.34,0,.51-.08,.35-.11,.71-.3,1.03-.83,1.44-1.7,2.87-2.57,4.3-.55,.9-2.08,1.16-3.09,.54-.65-.4-.86-1.04-.5-1.64,.72-1.21,1.43-2.43,2.18-3.63,.26-.42,.38-.83,.38-1.29-.02-2.87,0-5.74-.02-8.6,0-.67,.15-1.26,.94-1.72Zm8.84,4.23h0c.89,0,1.78,0,2.66,0,.51,0,.91-.24,1.02-.57,.1-.31-.12-.67-.55-.82-.19-.07-.43-.1-.65-.1-1.45,0-2.91-.01-4.36,0-.41,0-.73-.08-1.04-.26-1.12-.66-2.25-1.3-3.39-1.94-.84-.47-1.99-.3-2.4,.36-.11,.19-.15,.41-.15,.62,0,3.12,0,6.23-.01,9.35,0,.16-.05,.33-.14,.48-.81,1.37-1.64,2.74-2.45,4.11-.26,.44-.04,.89,.51,1.06,.57,.17,1.16-.02,1.43-.46,.85-1.41,1.7-2.82,2.52-4.24,.15-.26,.22-.55,.24-.84,.04-.49,.01-.98,0-1.47,0-.18,.05-.34,.31-.4,.28-.07,.46,.05,.61,.21,.6,.61,1.2,1.21,1.8,1.82,.1,.1,.18,.23,.22,.35,.19,.59,.36,1.18,.54,1.77,.27,.91,.55,1.82,.83,2.72,.11,.35,.52,.58,1,.6,.43,.02,.89-.18,1.01-.49,.06-.17,.06-.36,.01-.53-.37-1.27-.78-2.52-1.13-3.79-.2-.73-.57-1.37-1.2-1.97-.98-.93-1.9-1.9-2.84-2.86-.1-.11-.19-.25-.19-.37-.02-1.01,0-2.03,0-3.04,0-.16,.04-.3,.27-.38,.23-.08,.41,0,.58,.1,.37,.21,.74,.41,1.1,.63,.43,.26,.91,.37,1.47,.37,.79-.01,1.58,0,2.37,0Zm-5.13-6.14c.02-.86-.94-1.56-2.14-1.58-1.23-.02-2.24,.67-2.25,1.52-.01,.88,.95,1.58,2.19,1.59,1.19,0,2.18-.68,2.2-1.53Z"/><path d="M279.01,379.41l5.37-.15c-.5-.36-1.06-.68-1.52-1.11-2.37-2.23-1.87-5.98,1-7.57,.29-.16,.37-.3,.24-.6-.25-.55-.45-1.12-.7-1.74-.31,.39-.59,.72-.85,1.05-1.02,1.28-2.04,2.56-3.06,3.84-.23,.29-.11,.8,.18,1.05,.38,.33,.79,.53,1.3,.59,.1,.01,.19,.2,.28,.3-.11,.07-.21,.17-.33,.2-.31,.05-.64-.08-.93,.23-.11,.13-.49,.05-.75,.03-.38-.03-.64,0-.78,.45-.16,.53-.76,.81-1.39,.78-.52-.02-1.02-.4-1.21-.9-.04-.11-.08-.21-.18-.35-.49,1.89-1.62,3.21-3.59,3.87l.72,.11v.08c-.32,.04-.65,.11-.97,.11-2.44,.01-4.89,0-7.33,0-.1,0-.21-.1-.31-.16,.1-.05,.19-.13,.29-.14,1.44-.05,2.87-.08,4.26-.12-3.46-1.47-3.67-5.09-2.41-7.05,1.29-2.01,4.48-3.25,7.3-1.39,.38-.33,.77-.64,1.12-.98,.08-.07,.07-.27,.03-.4-.16-.51-.3-1.03-.53-1.51-.15-.31-.44-.56-.67-.84-.47-.58-.94-1.15-1.39-1.75-.39-.52-.39-1.11-.24-1.7,.47-1.85,1.78-2.95,3.53-3.64,1.36-.53,2.78-.71,4.25-.57,.63,.06,.69-.04,.6-.66-.06-.37-.2-.67-.49-.92-.2-.18-.24-.36-.11-.63,.11-.22,.07-.52,.09-.84,.16-.02,.38-.07,.59-.06,.61,.04,1.24,.03,1.83,.16,.91,.21,1.56,1.11,1.53,1.92,0,.28-.09,.42-.38,.29-.4,.38-.45,.83-.38,1.2-.22,.2-.38,.33-.5,.49-.17,.22-.37,.3-.64,.22-.26-.07-.52-.15-.78-.2-.12-.02-.26,.02-.44,.04,.18,.42,.35,.79,.5,1.18,.22,.6,.41,1.21,.65,1.81,.08,.19,.27,.34,.44,.47,.56,.4,1.15,.77,1.7,1.18,.44,.33,.88,.65,1.46,.71,.06,0,.12,.02,.18,.04,.42,.15,.64,.52,.5,.82-.15,.34-.66,.41-1.06,.28-.4-.13-.84-.13-1.27-.18l-.07,.12,1.28,3.2c1.74-.39,3.33-.12,4.71,1.01,.89,.73,1.43,1.65,1.64,2.75,.42,2.12-.67,4.56-3.43,5.52l.5,.11v.11c-3.13,.22-6.25,.23-9.38,0v-.19Zm5.01-7.56c-.12-.04-.29-.15-.34-.11-.51,.42-.9,.92-1.18,1.63,.99,.32,1.94,.62,2.89,.92,.09,.03,.2,0,.3-.01-.02-.09-.02-.2-.07-.28-.53-.72-1.07-1.44-1.6-2.15l.55,.41-.36-.62,.06-.03,1.04,1.66,.09-.05-.83-2.08-.68,.38,.12,.31Zm6.19,1.57c-.1-.77-.64-1.26-1.18-1.76-.81,.79-1.55,1.57-2.05,2.61,.17,0,.29,.03,.4,0,.69-.2,1.38-.41,2.07-.61,.26-.08,.51-.16,.77-.24l-.64,.32,.02,.05,.53-.08c-.11,.09-.23,.11-.35,.14-.77,.23-1.55,.45-2.32,.69-.09,.03-.15,.13-.22,.2,.07,.06,.13,.14,.21,.16,.88,.29,1.77,.57,2.65,.85,.23,.07,.34-.03,.34-.23,0-.59-.02-1.18-.06-1.76,0-.12-.12-.23-.19-.34Zm-23.44-.08c-.38,.8-.33,1.61-.16,2.43,.26-.06,.46-.09,.64-.15,.77-.22,1.55-.45,2.32-.69,.08-.02,.13-.11,.2-.17-.06-.06-.12-.16-.2-.18-.66-.23-1.32-.45-1.98-.67-.25-.08-.51-.13-.77-.19l.02-.07,.67,.13v-.04l-.63-.34c.13,.04,.26,.07,.38,.12,.79,.26,1.57,.52,2.36,.77,.09,.03,.2,0,.3,0-.03-.1-.04-.2-.08-.29-.43-.9-1.13-1.61-1.83-2.37-.57,.48-1.04,1.01-1.26,1.71Zm17.88-7.02l.02-.12c-.15-.05-.29-.1-.44-.16-.81-.31-1.62-.64-2.44-.92-.73-.25-1.14-.76-1.44-1.42-.21-.47-.51-.91-.76-1.34-1.55,.52-3.14,.81-4.29,2,.08,.09,.14,.18,.22,.25,1.19,1.08,2.1,2.34,2.82,3.75,.1,.2,.24,.15,.4,.11,.87-.25,1.75-.49,2.62-.73,.53-.15,1.06-.3,1.64-.46-.08-.17-.15-.3-.21-.44-.06-.13-.1-.26-.16-.39,.13-.04,.26-.13,.38-.13,.54-.01,1.08,0,1.62,0Zm-16.26,5.11c.14,.22,.26,.43,.4,.62,.43,.6,.87,1.2,1.31,1.8,.05,.07,.15,.1,.23,.14,.04-.08,.12-.15,.12-.23,.03-.66,.05-1.32,.06-1.98,0-.28-.02-.56-.04-.84h.09l.03,.67h.07l.11-.65v2.84c.78-.74,1.65-1.38,2.11-2.34-1.06-.89-3.27-.9-4.48-.02Zm10.49,1.01h.15l3.32-4.13-.04-.06-3.86,1.07,.43,3.12Zm7.71,1.6c.94-.75,1.47-1.68,2.08-2.61-1.05-.66-2.15-.81-3.39-.53l.92,2.32,.08-.02v-2.21h.01l.06,.68h.07l.1-.74c-.05,1.02-.19,2.03,.06,3.12Zm-2.8,3.81c.66-.79,1.29-1.53,1.91-2.29,.06-.07,.06-.2,.03-.29-.01-.05-.16-.08-.24-.07-.16,.01-.32,.04-.47,.09-.84,.26-1.67,.52-2.54,.8,.28,.75,.71,1.28,1.3,1.77Zm4.9,.19c-.58-.78-1.14-1.53-1.68-2.29-.19-.27-.38-.32-.68-.15l.02,.32h.05l.06-.21h.06v3c.81-.03,1.47-.23,2.17-.66Zm-6.31-2.21c1-.3,1.95-.58,2.89-.87,.1-.03,.18-.13,.26-.2-.09-.07-.16-.18-.26-.21-.87-.28-1.74-.55-2.62-.83-.19-.06-.3,0-.33,.2-.09,.6-.11,1.19,.06,1.9Zm-14.38,1.98c.37-.4,.73-.76,1.04-1.15,.31-.38,.58-.79,.85-1.2,.04-.06,.06-.16,.04-.23,0-.04-.12-.08-.18-.07-1.05,.19-2.04,.53-3.01,.99,.28,.65,.66,1.21,1.26,1.65Zm22.24-1.64c-.21-.09-.37-.16-.53-.21-.8-.27-1.6-.53-2.4-.79-.07-.02-.17,.02-.26,.04,.02,.07,.02,.16,.05,.22,.12,.22,.24,.44,.39,.64,.47,.6,.95,1.19,1.43,1.8,.64-.47,1.03-1.03,1.31-1.7Zm-17.1,1.72c.63-.49,1.07-1.02,1.32-1.72-1.05-.41-2.01-.98-3.15-.96l-.1,.12,1.93,2.56Zm-.22,.15c-.56-.77-1.09-1.51-1.64-2.24-.1-.13-.27-.2-.41-.3-.03,.14-.07,.28-.1,.42-.01,.06-.03,.12-.03,.18,0,.86,0,1.71,0,2.59,.84,0,1.5-.23,2.18-.65Zm-2.45,.64c0-1.04,.02-2.02,.02-3.01,0-.05-.05-.14-.1-.16-.05-.02-.14,.02-.18,.06-.75,.74-1.34,1.58-1.85,2.5,.63,.36,1.26,.61,2.11,.61Zm15.56-3.3l-1.98,2.65c.68,.42,1.32,.65,2.07,.65,.21-1.01,.22-2.01,.15-3.01,0-.08-.12-.14-.24-.29Zm-9.06-5.01c-.23,.26-.43,.43-.55,.64-.09,.14-.15,.36-.1,.51,.24,.77,.52,1.52,.79,2.28,.12,.33,.5,.37,.75,.14,.41-.36,.34-.72,.12-1.13-.4-.75-.91-1.46-1.01-2.44Zm-5.04,3.97l-.02-.1c.39-.11,.78-.21,1.16-.34,.12-.04,.26-.15,.31-.26,.18-.35,.31-.72,.48-1.08,.1-.21,.04-.35-.19-.47l-2.2,2.31c.44,.06,.78,.11,1.14,.14,.09,0,.21-.04,.27-.11,.11-.11,.19-.25,.34-.44l-1.29,.34Zm3.75-2.35l-.13-.02c-.12,.24-.37,.5-.34,.72,.09,.64,.28,1.26,.45,1.89,.02,.08,.12,.15,.19,.22,.18-.24,.56-.52,.52-.72-.15-.71-.44-1.39-.68-2.08Zm-1.06,3.81c.04-.39-.89-.63-1.96-.47l1.96,.47Zm-.03-2.35c-.33,.44-.35,.76,.19,1.02l-.19-1.02Zm3.22,2.72l.34-.6-.55,.06,.2,.54Zm-1.07-.03l.02,.1,.66,.05-.29-.42-.38,.27Z"/><path d="M220.67,373.74c-.13,.6-.26,1.19-.39,1.79-.12,.54-.2,1.09-.37,1.63-.11,.35-.32,.69-.56,1-.46,.61-1.02,1.18-1.44,1.8-.32,.47-.49,.98-.73,1.47-.1,.2,.01,.33,.32,.39,.34,.07,.69,.15,1.02,.23,.47,.12,.82,.74,.59,1.04-.05,.06-.15,.12-.25,.15-.96,.25-1.94,.3-2.92,.05-.34-.09-.63-.06-.92,.06-.22,.09-.43,.19-.64,.28-.49,.21-1,.15-1.39-.15-.34-.26-.59-.52-.48-.89,.02-.06-.05-.13-.09-.2-.34-.55-.65-1.11-1.03-1.65-.28-.39-.65-.75-1.01-1.16-.13,.1-.19,.14-.24,.19-.13,.13-.29,.15-.47,.05-.18-.1-.33-.11-.55,0-.13,.07-.37,.05-.62,.08,0,0-.04,.05-.06,.11-.14,.39-.46,.68-.94,.91-.47,.22-.94,.43-1.43,.63-.24,.09-.32,.18-.26,.37,.16,.48,.29,.97,.42,1.46,.06,.21,.12,.44-.22,.57-.36,.14-.77,.23-1.14,.04-.27-.14-.52-.32-.7-.51-.48-.52-.72-1.1-.81-1.71-.02-.12,.09-.28,.23-.36,.25-.14,.56-.23,.85-.35,.06-.02,.11-.06,.15-.09,.45-.34,.91-.67,1.36-1.01,.07-.05,.11-.11,.2-.19-.29-.02-.58,.08-.76-.11-.02-.02-.2,0-.29,.03-.17,.04-.34,.11-.51-.01-.03-.02-.17,0-.21,.03-.25,.17-.47,.12-.69-.04,.85-.92,1.12-1.98,1.53-3.02-.08-.03-.15-.06-.22-.08-.47-.2-.62-.53-.34-.85,.11-.13,.11-.24,.05-.37-.34-.78-.74-1.55-.44-2.38,.21-.59,.48-1.18,.72-1.77,.05-.13,.11-.27,.12-.42l-.84,.63h-.06c.03-.12,.07-.23,.08-.34,.06-.49,.13-.98,.18-1.47,.02-.2,0-.39-.02-.59-.08-.56,.3-.94,.99-1.19,.33-.12,.46-.27,.42-.53-.06-.41,.06-.81,.33-1.19,.73-1.01,2.24-1.36,3.72-.85,.36,.12,.71,.24,1.12,.28,.48,.05,.56,.21,.31,.49-.04,.05-.04,.12-.03,.18,.05,.22,.16,.44,.17,.67,.03,.41,0,.81,0,1.22,0,.06,0,.13,0,.19-.09,.67-.43,.97-1.39,1.23,.55,.25,.69,.26,1.02,.06,.35,.31,.82,.52,1.55,.56-.5,.26-.24,.46-.12,.66,.38,.62,.77,1.25,1.17,1.86,.06,.1,.24,.2,.38,.22,.63,.08,1.27,.14,1.98,.21-.34-.43-.64-.8-.91-1.18-.47-.64-.95-1.29-.96-2.03,0-.47,.12-.93,.23-1.4,.05-.2,.1-.36-.29-.41,.28-1.09,.55-2.16,1.15-3.19,.23-.39,.66-.69,1.16-.92,.53-.24,1.08-.47,1.64-.66,.32-.11,.55-.25,.69-.46,.14-.23,.36-.4,.72-.48,.2-.04,.28-.13,.22-.27,0-.02,0-.05,0-.07q-.06-.42-.64-.53c-.09-.02-.17-.04-.26-.06,0-.02-.01-.04,0-.05,.37-.19,.28-.4,.14-.66-.21-.4-.36-.81-.5-1.22-.16-.47-.02-.93,.23-1.36,.49-.87,1.5-1.32,3.15-1.29,.39,0,.78,.06,1.17,.12,.77,.11,1.28,.42,1.51,.93,.09,.2,.26,.35,.44,.51,.26,.25,.41,.57,.53,.88,.09,.24-.26,.19-.43,.21-.09,.26-.2,.51-.26,.76-.04,.18-.07,.38-.04,.56,.19,1-.81,1.49-1.82,1.97-.19,.09-.54,.03-.71,.04,.13,.2,.3,.47,.49,.73,.04,.06,.15,.09,.23,.13,.52,.23,1.07,.45,1.56,.71,.22,.12,.41,.31,.51,.49,.42,.74,.79,1.49,1.19,2.24,.05,.09,.1,.17,.18,.32,.11-.37,.26-.67,.29-.98,.07-.73,.75-1.13,1.58-1.47,.09-.04,.18-.07,.27-.1,0,0,0-.01,.06-.08-.33,.04-.6,.06-.87,.11-.27,.05-.52,.12-.8,.16,.57-.4,1.07-.82,1.4-1.39l-1.06,.21c.08-.07,.12-.11,.17-.14,1.04-.75,1.61-1.64,1.75-2.66,.03-.2,.07-.39,.09-.59,.13-1.34,2.57-1.94,3.93-1.62,.48,.11,.94,.27,1.36,.45,.21,.09,.36,.29,.45,.46,.33,.61,.44,1.23,.27,1.88-.07,.26-.12,.53-.12,.8,0,.56-.05,1.11-.32,1.65-.15,.3-.03,.59,.17,.86,.14,.19,.29,.39,.38,.61l-2.94-1.42c-.09,.12,0,.21,.2,.3,.73,.37,1.46,.75,2.16,1.14,.1,.06,.11,.19,.15,.29,.25,.56,.18,1.13,.11,1.71-.14,1.37,.02,2.73,.47,4.07,.02,.05,.04,.09,.07,.13,.17,.22,.35,.43,.5,.61,.04-.14,.08-.33,.15-.51,.21-.49,.43-.98,.65-1.47,.13-.28,.37-.48,.78-.59,.01,0,.02,0,.03-.01,.59-.21,1.23-.38,1.54-.82-.62-.16-1.45-.92-1.6-1.51-.14-.56-.03-1.1,.32-1.61,.37-.54,1.01-.78,1.88-.74,.16,0,.34-.05,.5-.09,.19-.04,.36-.12,.55-.13,1.41-.09,2.58,.6,2.65,1.56,.02,.29,0,.58,0,.9-.44-.07-.5,.12-.47,.28,.12,.84-.3,1.46-1.63,1.77l.39,.16c.4,.17,.81,.33,1.21,.51,.36,.16,.55,.4,.59,.69,.1,.68,.31,1.36,.28,2.04-.02,.42-.07,.84-.07,1.26,0,.28,.02,.54,.38,.77,.2,.13,.28,.38,.34,.58,.07,.25-.52,.57-.99,.56-.48,0-.69-.13-.79-.48q-.05-.18-.32-.13c.25,1.91,.51,3.82,.76,5.73l-.48,.14c.2,.11,.38,.2,.53,.31,.24,.18,.5,.35,.69,.55,.21,.24,.09,.46-.25,.61-.55,.25-1.51,.24-2.05-.01-.07-.03-.12-.07-.2-.1-.59-.18-.63-.51-.55-.88,.05-.27,.08-.54,.06-.81-.05-.87-.09-1.74-.21-2.61-.07-.52-.28-1.02-.51-1.54-.15,.47-.27,.95-.45,1.41-.35,.88-.3,1.77-.36,2.67,0,.12-.11,.24-.17,.37h-.18c.22,.27,.43,.54,.68,.79,.46,.46,.29,.77-.52,.88-.18,.03-.37,.03-.55,.02-.18,0-.36-.03-.57-.05,.13,.26-.1,.37-.41,.41-1.08,.14-2.13,.18-3.01-.38-.12-.08-.28-.13-.47-.21v.32c-.51,.1-.62,.03-.63-.31,0-.19-.09-.39-.09-.58,0-.19-.02-.4,.08-.57,.15-.25,.17-.48,.08-.73-.48-1.32-.97-2.64-1.44-3.96-.09-.25-.23-.38-.64-.37-.67,.01-1.34-.01-2.01,0-.12,0-.29,.09-.35,.17-.7,1-1.39,2-2.08,3.01-.06,.09-.1,.2-.08,.29,.08,.45,.16,.9,.3,1.35,.05,.16,.26,.31,.4,.45,.08,.08,.2,.13,.27,.21,.18,.19,.12,.38-.18,.41-.57,.06-.99,.32-1.51,.43-.52,.12-1.05,.2-1.58,.28-.25,.03-.52,0-.73,0-.22,.04-.41,.1-.6,.09-.38,0-.76-.04-1.14-.09-.13-.02-.3-.12-.32-.21-.11-.35-.24-.71-.24-1.06,0-.48,.16-.96,.21-1.44,.12-1.23,.23-2.46,.34-3.69,0-.05,0-.1-.03-.14-.51-.96-1.03-1.92-1.54-2.87h-.1Zm-8.93-1.91h-.08c-.01,.09-.02,.17-.03,.26-.09,.38-.18,.76-.26,1.14-.08,.38-.14,.76-.19,1.14,0,.06,.03,.13,.08,.18,.82,.78,1.26,1.66,1.54,2.58,.27,.89,1.3,1.37,2.2,1.97,.53-.63,1.03-1.23,1.52-1.83,.06-.07,.06-.17,.07-.25,.07-.75,.13-1.49,.2-2.24,.01-.14-.06-.2-.23-.27-.2-.08-.47-.19-.52-.32-.1-.23-.31-.26-.59-.28-.62-.04-1.25-.09-1.87-.13-.39-.03-.65-.14-.8-.4-.31-.52-.68-1.03-1.02-1.54Zm25.37,10.29c.19-2.03,.64-4.06,.65-6.11-1.09-.23-2.11-.08-3.1,.13,0,.37-.04,.73,0,1.08,.15,1.11,.34,2.22,.52,3.32,0,.06,.03,.13,.07,.18,.45,.59,1.16,1.02,1.86,1.4Zm-11.07-8.98l-.28,.08c-.38,.1-1-.07-1.1-.34-.13-.34-.09-.67,.32-.93,.18-.12,.25-.24,.24-.42-.04-.49-.09-.99-.07-1.48,.03-.54-.31-.99-.58-1.46-.01-.02-.03-.06-.05-.06-.41-.04-.33-.31-.48-.47-.11-.12-.16-.26-.24-.39-.09,.13-.12,.25-.14,.38-.11,.86-.21,1.72-.32,2.57-.01,.08-.11,.16-.15,.21,.14,.17,.3,.32,.39,.49,.24,.43,.46,.85,.66,1.29,.22,.48,.39,.98,.61,1.51l1.2-.97Zm2.3-5.76c-1.2,1.65-1.43,3.41-1.67,5.24,.4-.26,.64-.51,.74-.82,.2-.61,.46-1.2,1.08-1.69,.04-.03,.06-.08,.08-.13,.44-.88,.03-1.73-.24-2.6Zm7.18,6.28c.18,.38,.23,.78,.54,1.06,.46,.43,1.1,.77,1.66,1.15l.11-.03-.17-.5h-.11c.35-.93,.45-1.89,.39-2.86-.11,.08-.17,.17-.25,.26-.03,.04-.09,.11-.11,.11-.4-.07-.49,.17-.62,.32-.28,.32-.68,.45-1.21,.47-.06,0-.11,.01-.23,.02Zm-10.22,5.85l.09,.04c.12-.11,.29-.22,.37-.35,.16-.27,.31-.56,.42-.85,.22-.62,.41-1.25,.6-1.85l-1.31-.46-.17,3.47Zm-19.55-4.11c.12-.15,.19-.23,.27-.32,.21-.24,.6-.42,.42-.76-.02-.03,.04-.09,.06-.13,.04-.09,.09-.17,.1-.26,0-.19,.01-.38-.04-.56-.11-.37-.27-.74-.41-1.11h-.11c-.22,.35-.45,.68-.67,1.02-.04,.05-.06,.12-.04,.18,.13,.62,.27,1.25,.43,1.94Zm11.44-7.4h.04c-.08,.17-.08,.43-.25,.51-.32,.15-.23,.35-.32,.52-.04,.09-.05,.19-.09,.28-.3,.72,.13,1.38,.31,2.1,.25-.24,.36-.45,.33-.71-.05-.42-.02-.85-.02-1.27,0-.48,0-.96,0-1.43Zm-11.35,2.06l.11,.05c.19-.1,.4-.2,.57-.31,.18-.12,.34-.25,.5,0,.08-.02,.14-.04,.19-.05,.06-.02,.11-.05,.17-.07-.24-.56-.46-1.1-1.23-1.49,.22,.66,.35,1.3-.31,1.88Zm7.63,10.87l1.23-1.48-.1-.08c-.12,.05-.25,.1-.37,.14-.08,.03-.16,.07-.23,.06-.32-.03-.63-.09-.85,.14-.02,.02-.07,.02-.11,.03l.45,1.19Zm20.27-10.59l.13-.02-.16-.95h-.09l.12,.96Zm-20.27,10.61l.17,.47,.33-.35-.5-.12Z"/><path d="M156.69,355.72v-.69c0-7.79,0-15.58-.01-23.38,0-.41,.1-.72,.54-.95,1.52-.8,1.9-1.89,1.84-3.29-.14-3.23-.04-6.47-.04-9.7v-.73h5.83v7.7l.18,.09,6.1-4.64v9.58l12.59-9.55v9.58l12.62-9.58v9.38l.17,.08,12.42-9.43v35.54h-52.24Zm4.18-21.35v4.87h4.2v-4.87h-4.2Zm5.72,.02v4.87h4.25v-4.87h-4.25Zm5.76,4.86h4.21v-4.87h-4.21v4.87Zm-7.26,3.69h-4.21v4.86h4.21v-4.86Zm1.49,4.84h4.24v-4.84h-4.24v4.84Zm5.78-4.87v4.86h4.19v-4.86h-4.19Zm9.95-3.65v-4.87h-4.19v4.87h4.19Zm1.55-4.88v4.88h4.19v-4.88h-4.19Zm9.92,4.89v-4.87h-4.16v4.87h4.16Zm1.56-4.89v4.88h4.18v-4.88h-4.18Zm9.95,.01h-4.21v4.85h4.21v-4.85Zm-27.17,13.39h4.19v-4.85h-4.19v4.85Zm9.93,.02v-4.87h-4.19v4.87h4.19Zm5.77-4.87h-4.19v4.86h4.19v-4.86Zm1.52,4.86h4.21v-4.86h-4.21v4.86Zm9.93,.02v-4.86h-4.15v4.86h4.15Z"/><g><path d="M272.48,333.23c-1.35,.68-1.93,1.85-2.23,3.13-.49,2.06-.65,4.15-.47,6.25,.25,2.87,.48,5.75,.77,8.62,.1,1.06,.33,2.11,.51,3.24-.28,.02-.51,.05-.73,.05-1.93,0-3.86-.02-5.79,0-.55,0-.77-.12-.73-.66,.23-2.68,.35-5.37,.66-8.04,.37-3.22,.91-6.42,1.35-9.63,.36-2.58,.63-5.17,1.05-7.74,.16-.97-.49-1.49-.99-2.13-.1-.12-.23-.22-.35-.33-1.17-1.08-1.53-1.16-3.33-.69,1.55,.8,2.31,2.03,2.58,3.55-1.31,.4-3.6-.31-4.27-1.29-.37-.54-.3-1.02,.39-2.08l-1.92,.73c.44,.45,1,.81,1.22,1.3,.41,.91,.2,2-.32,2.82-1.38-.46-2.37-1.78-2.46-3.24l-2.29,2.17,.1,.07,2.25-.57-.3,1.37c.63,.17,1.3,.25,1.87,.51,.54,.26,.98,.7,1.48,1.07-1,.91-2.69,1.03-3.91,.35,.21,1,.08,1.88-.97,2.39-.85,.41-1.74,.16-2.65-.68-.3,.96-.66,1.87-1.76,2.54l-.91-2.17c-.75,.98-1.86,1.27-3.07,1.38-.28-.84,.36-2.32,1.22-2.75,.38-.19,.57-.43,.79-.79,.49-.8,1.15-1.51,1.75-2.26l-1.7-.63c.22-.37,.38-.64,.55-.91,.58-.34,1.14-.7,1.74-1,1.48-.73,2.43-.41,3.01,.93l3.24-3.14h-1.14c.18-1.21,.6-2.22,1.71-3l-2.65-.17c.83,.77,.9,1.6,.45,2.39-.44,.78-1.08,1.47-1.67,2.17-.3,.35-.52,.22-.71-.16-.67-1.31-.76-2.63-.16-4.13l-1.68,.53c.7,.39,1.23,.71,1.15,1.43-.11,.97-1.35,2.24-2.47,2.51-.53-1.01-.44-2.05-.27-3.2l-2.38,1.81c1.18-.15,1.77,.13,2.18,1.06,.32,.74,.01,1.36-.34,1.99-.07,.01-.15,.01-.2,.05-.8,.5-1.65,.65-2.44,.05-.76-.57-1.05-1.33-.59-2.26-1.14-.04-1.99-.48-2.67-1.46l1.51-.55-1.26-.73c.83-.93,1.84-1.41,3.05-1.51,.7-.06,1.24,.35,1.4,.98,.04,.16,.07,.33,.12,.6l1.19-1.03c-1.14-.12-1.8-.7-2.16-1.52-.33-.78-.55-1.6-.83-2.42,2.32-.31,4.44,1.3,4.27,3.14l1.81-.77c-1.27-2.69-5-3.91-8.2-2.64,.59,.23,1.27,.41,1.19,1.09-.05,.52-.21,1.08-.5,1.53-.31,.48-.82,.86-1.37,1.41l-.66-1.57c-.43,.82-.78,1.64-1.84,1.85,.86,.23,1.26,.91,1.09,1.78-.2,1.01-1.04,1.57-2.17,1.46-1.11-.1-1.7-.86-1.66-2.24-.7,.83-1.5,1.37-2.55,1.61-.53,.12-.59,.03-.56-.46,.08-1.14,.36-2.16,1.55-2.8-.51-.23-.98-.44-1.44-.67-.34-.17-.37-.41-.04-.61,.75-.44,1.51-.86,2.26-1.28-1.26-1.27-1.33-2.34-.18-3.09-.35-.34-.76-.64-1.03-1.03-.27-.39-.38-.87-.56-1.32,1.37-.41,2.56,.33,2.82,1.57l4.12-.65-.96-1.27c-.07,.11-.12,.17-.14,.24-.31,1.02-1.1,1.37-2.11,.89-.84-.4-1.47-1.01-1.97-1.84,1.25-.51,2.45-.52,3.75,0l-.48-1.81c-.21,.24-.35,.43-.53,.59-.58,.52-1.54,.55-2.14,.06-1.15-.94-1.46-2.19-1.6-3.62,1.69,.18,3.11,.63,4.16,1.96,.18-.71,.35-1.35,.52-1.99,.03-.13,.05-.27,.13-.37,.1-.13,.25-.22,.38-.33,.06,.16,.17,.32,.17,.48-.03,.93-.08,1.86-.12,2.79,0,.1,.05,.2,.12,.48,.13-.61,.18-1.06,.33-1.48,.16-.42,.42-.81,.64-1.21,1.13,.51,1.82,2.14,1.66,2.85-.14,.63-.72,.99-1.5,.89-.23-.03-.44-.12-.66-.18l-.16,.13,2.05,2.39,.18-.09c-.35-1.27-.15-2.43,.81-3.57,.4,.5,.84,.89,1.08,1.37,.24,.48,.43,1.07,.34,1.57-.08,.45-.58,.84-.92,1.29,.44,.11,.94,.22,1.43,.35,2.8,.75,5.04,2.24,6.78,4.36,.39,.48,.73,.63,1.41,.57,1.62-.14,3.23,.07,4.79,.53,.27,.08,.54,.14,.72,.19-.09-.62-.3-1.25-.25-1.85,.06-.75,.67-1.08,1.56-1.04-.77,.04-1.37-.13-1.71-.71-.3-.51-.51-1.07-.81-1.73l1.29,.07c-1.48-.68-3-.79-4.65-.39l1.12,.86c.09-.09,.22-.24,.38-.37,.55-.43,1.5-.22,1.62,.39,.17,.83,.12,1.65-.6,2.53l-1.45-1.68c-.59,1.06-1.55,1.73-2.9,2.07-.35-1.23-.11-2.32,.7-3.48-.4,.14-.65,.23-.9,.32-.39,.16-.79,.64-1.14-.06-.03-.06-.32,0-.47-.04-.67-.2-1.34-.39-1.99-.63-.4-.15-.42-.47-.03-.62,.66-.26,1.36-.47,2.07-.59,.46-.08,.86,.22,.91,.66,.09,.72,.44,.65,.94,.34,.11-.07,.21-.14,.39-.27-1.22-.16-1.67-.94-2.03-1.79-.15-.35,0-.6,.42-.52,.64,.12,1.36,.19,1.88,.51,.37,.23,.47,.84,.68,1.28l-.15,.2,.99-.25c-.3-.35-.67-.71-.94-1.12-.26-.39-.42-.84-.67-1.35,1.21-.02,2.26-.03,2.88,.84,.22,.31,.02,.86,0,1.37h1.44c-1.09-.93-1.46-2.06-1.44-3.33,1.03-.14,2.79,.71,3.2,1.52,.37,.73,.04,1.41-.8,1.8l3.82,1.49c-.15-2.19-8.29-8.01-10.12-7.16,.77,1.57,.58,2.25-1.03,3.26-.61,.38-1.33,.63-2.1,.99-.23-1.12-.08-2.04,.26-2.96,.37-1.02,1.09-1.59,2.37-1.53l-.04-.24c-.64-.18-1.26-.4-1.91-.52-.14-.03-.4,.27-.52,.46-.16,.27-.21,.58-.33,.86-.37,.86-.78,1.12-2,1.27,.07,.05,.12,.1,.18,.12,1.11,.23,1.46,.65,1.34,1.66-.11,.93-.84,1.52-1.89,1.52-1.08,0-1.8-.52-1.91-1.41-.03-.26-.03-.53,0-.79,.08-.67,.46-.97,1.18-.95,.19,0,.37,.02,.35,.02,.26-.7,.33-1.44,.76-1.88,.45-.46,1.25-.63,1.88-1.04-1.56-.38-3.02-1-4.67-.78,.05,.03,.11,.11,.15,.1,.71-.12,1.27,.02,1.54,.72,.28,.72,.02,1.68-.58,2.1-.74,.52-1.83,.52-2.51-.02-.65-.52-.93-1.6-.46-2.27,.23-.33,.73-.5,.97-.66-.43,.03-1-.16-1.31-.73-.27-.49-.47-1.02-.71-1.55,1.45-.33,2.75,.47,2.88,1.63l4.26,.36-1.31-1.96c-.03,.13-.03,.28-.1,.39-.22,.31-.42,.8-.72,.86-.45,.1-1.07,.03-1.44-.21-.76-.49-.97-1.32-1.1-2.13-.04-.28-.04-.56-.07-.92,1.36,.1,2.41,.63,3.33,1.67l-.15-1.91c1.65,.28,3.08,.76,3.97,2.04,.58,.83,.21,1.66-1.02,2.36l2.67,.58c-.07-1.76,1.01-2.64,3.17-2.65,.31,.94-.38,2.23-1.64,3.04,1.18,.51,2.37,.95,3.48,1.52,1.12,.57,2.16,1.27,3.26,1.92,.11-.93,.08-1.9,.37-2.8,.37-1.14,.15-2.16-.27-3.19-.16-.38-.4-.74-.63-1.14l-1.19,.51c.51,.19,1.04,.24,1.3,.52,.26,.27,.32,.77,.33,1.16,.02,.77-.47,1.34-1.24,1.59-.77,.25-1.7,.05-2.15-.49-.53-.63-.6-1.37-.24-2.04,.19-.35,.75-.53,1.04-.73-.52,.12-1.06-.17-1.38-.72-.29-.5-.47-1.06-.72-1.64,1.73-.07,2.63,.5,2.93,1.82l.89-.45c-1.01-1.2-2.25-1.89-3.78-2.18-.97-.18-1.94-.39-2.84-.58l.35,1.15c.14-.05,.3-.13,.48-.18,.75-.25,1.53-.02,1.87,.55,.33,.55,.05,1.34-.63,1.77-.81,.51-2.31,.72-3.45,.44l.82-1.73h-3.15c.64-1.33,1.51-2.13,3.04-2.41-.86-.76-1.43-1.58-1.68-2.64,1.31-.17,2.49-.08,3.53,.62,.82,.55,.8,1.14,0,2.28h1.99c-.4-.62-.93-1.24-1.22-1.94-.29-.69-.33-1.47-.49-2.29,1.26-.03,2.13,.54,3.06,.92,.15,.14,.3,.27,.46,.41,1.22,1.08,.98,2.3-.57,2.92-.05,.02-.08,.1-.13,.15l1.63,.62c0-.44-.04-.81,0-1.17,.14-1.22,.26-2.46,1.45-3.3l-.69-.72c-.31,1.13-1.17,1.24-2.17,1.1-1.07-1.31-.68-2.77,1.27-4.34,.35,.82,.67,1.58,1,2.34,.3-.48,.61-.96,.91-1.44,.88,.46,1.23,1.47,.98,2.69,.72-.08,1.4,.02,1.82,.61,.24,.33,.47,.72,.51,1.11,.1,.86-.66,1.71-1.55,1.86-1.02,.17-1.95-.41-2.37-1.47-.49,1.31-.15,3.16,.71,4.25,.55,.7,1.02,1.46,1.57,2.26l.75-.87c-.8-.1-1.44-.31-1.51-1.08-.09-1.03,.34-1.9,1.05-2.68,.87,.57,1.28,1.41,1.44,2.86l1.68-.97c-.02-.05-.03-.12-.05-.13-1.52-.33-1.95-.96-1.58-2.37,.29-1.09,.97-1.97,1.84-2.74,1.33,.86,1.73,3.43,.73,4.88,.49-.09,.93-.14,1.35-.26,.1-.03,.21-.37,.15-.44-1.02-1.08-.39-2.01,.33-2.89,.36-.44,.86-.78,1.31-1.18,1.2,1.48,.95,3.6-.49,4.31,.54,.07,.97,.23,1.28-.37,.14-.27,.67-.54,.99-.52,.83,.06,1.66,.28,2.47,.48,.09,.02,.19,.48,.13,.51-.76,.43-1.51,.89-2.33,1.16-.32,.11-.83-.25-1.25-.39-.22-.08-.47-.26-.67-.22-1.13,.24-2.24,.54-3.53,.86l.85,.84c.53-.92,2.27-1.31,3.04-.69,.14,.11-.04,.55-.08,.84-.71,.33-1.43,.65-2.14,.98,.47,.73,.08,1.75-.53,2.2-.64,.47-1.68,.51-2.39,.04-.75-.49-.98-1.36-.57-2.23,.12-.26,.32-.48,.48-.72,.45-.09,.9-.18,1.36-.26l-.51-.6-.83,.88c-.19,.11-.42,.2-.56,.35-.96,1-1.67,2.13-1.95,3.45-.47,2.26-.63,4.48,1.13,6.41,.21,.23,.33,.53,.48,.8,1.35,2.4,1.73,5.02,2.07,7.65,.13,1.03,.21,2.06,.31,3.13l3.08-3.31c-.14-.05-.27-.11-.4-.13-1.07-.18-1.57-.57-1.55-1.55,.01-.83,.19-1.7,.53-2.47,.29-.66,.44-1.16,0-1.81-.41-.6-.54-1.32-.25-2.23l2.37,1.22c.07,.09,.15,.17,.21,.27,.63,.93,.2,1.75-.99,1.85-.08,0-.16,.03-.34,.07,1.09,1.18,1.99,2.36,1.55,3.98l.19,.06,1.72-2.14c-.39,.03-.53,.05-.67,.06-1.14,.04-1.78-.58-1.51-1.6,.3-1.13,1.09-1.95,2.39-2.62l.56,2.7c1.16-1.68,.18-5.53-1.85-7.27h0c-1.14-1.01-2.92-1.6-3.76-1.25,.87,.65,1.13,1.23,.71,1.89-.66,1.07-1.75,1.59-3.04,1.91-.27-1.3,.04-2.42,.64-3.53-.28,.16-.57,.35-.62,.58-.16,.7-.71,1.02-1.34,1.24-.34,.12-.72,.11-1.09,.16,.01-.34-.03-.69,.05-1,.3-1.1,.81-1.36,2.04-1.17,.12,.02,.27-.1,.41-.16-.93-.29-1.74-.59-2.33-1.36,.83-.55,1.67-.79,2.6-.56,.81,.21,.55,.9,.61,1.4l2.48-.34c-1.04-1.03-.84-2.74,.42-3.73,.18,.1,.35,.2,.53,.29,.01,.08,0,.18,.05,.25,.7,1.11,1.33,2.23-.2,3.32l1.09,.3,.57-3.3-1.52-.55,.29-1.59,.82-1.07,.32,.18,.57,1.1,1.49-1.45c.72,.69,.42,1.48,.56,2.25,.73-.73,1.59-1.02,2.57-.99,.14,.97-.46,1.93-1.38,2.36,.24,.41,.62,.81,.69,1.25,.07,.44-.06,.97-.29,1.37-.39,.7-1.48,.95-2.33,.65-.89-.31-1.31-1.09-1.16-2.1,.12-.77,.37-.91,1.81-1.03-.29-.61-.88-.45-1.35-.41-.19,.02-.43,.37-.49,.6-.4,1.55-.19,2.98,1,4.23,.86,.9,1.41,1.97,1.73,3.13,.06,.21,.12,.42,.32,.65,.08-.21,.2-.41,.24-.62,.5-2.78,1.03-5.56,1.47-8.35,.25-1.62,.71-2.26,2.43-2.71l-.21,2.23c.13-.07,.33-.19,.54-.3,.22-.11,.45-.22,.75-.37,.47,1.43,.51,2.73-.39,4.04,.99-.34,1.98-.51,2.66-1.3-1.56-.29-1.99-1.01-1.42-2.4,.2-.49,.53-.94,.91-1.59,.42,.6,.77,.99,.99,1.44,.21,.42,.3,.9,.62,1.37l.56-1.92-.03,.02c.14,.12,.36,.23,.4,.37,.07,.26,.02,.54,.02,.89l.97-.53c-.98-.5-1.1-1.22-.33-1.94,.18-.17,.36-.34,.54-.51h-.02l1.12-.26c.2,.96,.07,1.81-.61,2.59l2.14,.22-1.58,1.98,2.46,.67c-.91,1.02-1.86,1.37-2.82,1.21l1.11,1.17c.37-.39,.7-.91,1.18-1.18,.49-.27,1.13-.3,1.77-.46-.17,1.67-.91,2.47-2.2,2.53,.91-.07,1.33,.37,1.45,1.1,.1,.64-.02,1.22-.55,1.69-.62,.56-1.36,.59-2.12,.35-.73-.23-1.08-.75-1.11-1.52-.02-.56-.06-1.16,.58-1.44,.33-.14,.76-.1,1.11-.14-.44-.36-.85-.75-1.32-1.07-.46-.31-.99-.54-1.55-.84l1.15,2.3c-1.18-.02-2.12-.1-2.63-.88-.22-.35-.02-.93,0-1.52-.44-.25-1.87,.02-2.68,.68,1.53,.43,2.87,1.06,3.58,2.41l-.12,.19-.65-.24-.92,1.14c.07,.02,.13,.05,.19,.05,1.15-.01,1.47,.19,1.62,1.04,.16,.91-.37,1.82-1.25,2.04-.78,.2-1.55,.13-2.11-.44-.6-.61-.66-1.39-.29-2.08,.18-.34,.72-.52,1.02-.73-1,.05-1.49-.67-1.8-1.56-.24-.7-.14-.81,.67-.87-1.42-.21-1.56-.17-2.39,.89-.32,.41-.59,.85-.84,1.29-.21,.37-.35,.76-.52,1.14l2.53-1.55c.22,1.05,.22,1.88-.19,2.68-.27,.53-.66,.9-1.38,.84-.73-.06-.99-.5-1.15-1.28l-.83,2.59c1.05-.93,2.17-1.18,3.4-1.16,0,.92-.26,1.41-1.36,2.61l8.41-1.24-.95-2.04c1.21-.16,2.05,.19,2.8,.88,.72-1.35,2.05-1.5,3.46-1.54,.08,.95-.7,2.24-1.52,2.64-.73,.35-1.3,.08-1.83-.44l.14,.91c1.29,0,1.69,.32,1.7,1.38,0,1.08-.73,1.8-1.88,1.82-.21,0-.42-.04-.64-.06-.37-.26-.83-.47-1.07-.8-.48-.67-.3-1.41,.1-2.28l-5.92,1.3c.19,.17,.37,.22,.55,.26,1.69,.42,3.39,.85,5.08,1.26,.42,.1,.85,.17,1.27,.25,0,.04,0,.11,.02,.12,1.34,.55,2.72,.57,4.06,.4-.27-.5-.63-.92-.73-1.39-.19-.86,.19-1.64,.73-2.33,.37-.47,.81-.9,1.3-1.44,.95,1.42,1.42,2.78,.94,4.32l.14,.14c.45-.34,.91-.67,1.34-1.04,.22-.19,.44-.43,.55-.68,.14-.3,.16-.65,.23-.97-.26-.02-.53,0-.77-.06-.31-.08-.68-.14-.89-.34-.8-.73-1.1-1.64-1.01-2.68,1.19-.02,2.08,.39,3.21,1.56l-.07-1.3c-1.74-.43-2.33-1.16-2.38-2.89,0-.33,.13-.57,.5-.39,.72,.36,1.49,.7,2.08,1.21,.29,.25,.22,.86,.3,1.31,.04,.21,.07,.42,.1,.63h.21c.16-.26,.31-.53,.49-.78,.46-.6,.79-.6,1.05,.11,.24,.65,.28,1.37,.42,2.08,.95-.02,1.64,.36,1.97,1.17,.29,.73,.07,1.5-.59,2.02-1.07,.84-2.9,.28-3.21-.98-.12-.5,.03-.76,.76-1.29l-.77-.89c0,2.02-.8,3.64-2.6,4.88l2.84-.15c.12,1.54-1.57,3.28-3.59,3.63l1.46,.81c.43-.57,.67-1.1,1.09-1.41,.5-.37,1.17-.55,1.9-.39-.05,.95-.46,1.67-1.22,2.25l.12,.18c.16-.08,.38-.13,.48-.25,.61-.76,1.2-.89,2.07-.41,.81,.44,1.37,1.09,1.64,1.89-1.38,.55-2.75,.35-3.65-.44-.23,.63-.39,1.37-.77,1.99-.17,.28-.78,.42-1.2,.46-1.05,.09-1.83-.52-2.01-1.48-.19-.98,.17-1.5,1.39-1.87l-4.69-2.33,.43,1.97c.48-.03,1.15-.16,1.47,.5,.33,.68,.35,1.86-.7,2.44-.93,.51-2.21,.22-2.73-.65-.53-.88-.21-1.93,.76-2.37-1.15-.46-1.6-1.3-1.74-2.41l.78-.07,.04-.14-3.17-1.16-.11,.13c1.26,1.26,2.25,2.64,2.41,4.39,.16,1.75-.29,3.3-1.88,4.59,.89,.01,1.51,.22,1.86,.89,.46,.91,.5,2.19,.05,3.11-1.72-.42-2.9-1.88-2.71-3.42-.56,.18-1,.36-.79,1.06,.18,.62-.24,1.12-.7,1.49-.5,.41-1.09,.71-1.75,1.12-.4-1.2-.34-2.17,.29-3.06,.16-.23,.59-.44,.88-.44,1.54,.02,2.05-1.17,2.89-1.97-.04,0-.09,0-.12,.01-.33,.19-.66,.38-.99,.57-.12-.34-.28-.68-.36-1.03-.06-.23-.04-.48,0-.71,.07-.45,.14-.95,.76-1.06,.65-.12,1.13,.09,1.32,.75l.22-.05c0-.5,.12-1.03-.02-1.49-.29-.93-.67-1.85-1.12-2.73-.26-.5-.67-.42-1.01,.06,.38,.23,.89,.39,1.09,.71,.22,.37,.23,.88,.21,1.33-.03,.66-.7,1.24-1.43,1.38-.87,.16-1.74-.19-2.14-.85-.44-.74-.24-1.64,.58-2.45-1.07-.5-1.42-1.36-1.55-2.38,1.58-.09,2.5,.47,2.85,1.68l.66-.33c-1.22-1.31-2.68-2.1-4.62-2.3,1.32,1.21,1.2,2.56,.87,4.04-1.28-.46-2.31-1.11-2.73-2.23-.29-.76-.3-1.1,.85-1.95-.64,.04-1.29,.04-1.93,.14-.4,.06-.34,.33-.06,.5,1.01,.61,1.02,1.49,.56,2.32-.45,.8-1.12,1.5-1.73,2.21-.24,.29-.48,.18-.64-.14-.53-1.06-.86-2.17-.52-3.3,.16-.52,.69-.95,1.01-1.37-.87-.19-4.32,1.51-5.08,2.55l.87,.22c.49-1.29,1.35-1.82,2.85-1.69-.09,1.01-.5,1.83-1.55,2.39,.73,.48,.94,1.13,.78,1.89-.16,.75-.7,1.28-1.5,1.4-.78,.11-1.47-.05-1.95-.69-.49-.66-.56-1.4-.1-2.04,.22-.31,.78-.42,1.13-.59-.68-.49-1.17-.48-1.74,.07-2.04,1.99-2.86,4.45-3.2,7.08-.08,.6-.1,1.21-.16,1.94l1.88-1.9c.1,.1,.07,.05,.04,.04-1.32-.17-1.7-.91-1.03-1.99,.45-.72,1.01-1.19,1.83-1.52,.48,.92,.57,1.87,.24,2.9,2-1.09,4.09-1.82,6.27-2.04-.14-.46-.46-.93-.34-1.28,.16-.48,.58-.94,1.01-1.28,.45-.35,1.06-.55,1.67-.85,.3,1.24,.02,2.26-.73,3.27l1.43,.07c-.13-.17-.21-.27-.28-.37-.44-.63-.28-1.32,.44-1.68,.91-.47,1.89-.53,2.94-.33-.07,.96-.8,1.52-1.42,2.15l.49,.78c.6-.24,1.13-.59,1.68-.64,.59-.05,1.21,.19,1.96,.33-.73,1.05-1.54,1.55-2.61,1.52,0,.45,.13,.95-.03,1.35-.17,.42-.55,.83-.96,1.08-.71,.43-1.82,.18-2.41-.42-.6-.61-.6-1.54,0-2.3,.55-.7,.85-.73,2.24-.19-.32-.53-.69-.79-1.37-.67-1.09,.19-2.21,.28-3.31,.42-.16,.02-.31,.09-.38,.11l2.48,1.89c-1.27,.62-2.36,.75-3.48,.35-.66-.24-.79-.81-.47-1.89l-2.23,.93-.03,.19c1.92,.4,3.57,1.18,4.68,2.72,.81-1.15,1.5-1.32,2.73-.63,.55,.31,1.01,.74,1.6,1.19-1.24,.67-2.35,.86-3.64,.53l.35,1.61c.44-.28,.82-.6,1.27-.79,.46-.19,.98-.25,1.47-.37l.21,.16-.73,1.77,.02-.02-1.36,.59,1.21,.76-.02-.02c.01,.24,.04,.48,.04,.72,0,.89-.35,1.42-1.15,1.71-.81,.3-1.66,.13-2.22-.44-.53-.53-.69-1.44-.28-2.08,.15-.24,.52-.39,.82-.51,.2-.08,.46-.01,.74-.01l-.97-2.02c.13,.71-.05,1.34-.64,1.8-.55,.43-1.15,.8-1.84,1.27-.41-1.21-.35-2.2,.31-3.1,.19-.25,.66-.4,1.03-.46,.59-.1,.8-.37,.47-.82-.26-.35-.59-.67-.96-1,.21,1.75-1.07,2.39-2.43,2.99-.78-1.49-.09-3.18,1.57-3.57-.45-.19-.77-.37-1.11-.45-.83-.17-1.67-.32-2.51-.41-.5-.06-.94,.13-1.1,.64l.02-.02Zm-9.13-15.01c.42-.04,1.11-.24,1.39,.42,.46,1.09,.29,2.25-1.11,2.68-.26,.08-.54,.07-.83,.11l4.04,2.82c.63-3.13-1.77-7.67-4.08-8.06l.59,2.03Zm-23.55-2.12c1.03,.14,1.21,.79,1.21,1.58,0,1.06-.75,1.52-1.71,1.77,.2,.23,.41,.41,.54,.64,.12,.22,.14,.48,.25,.89,1.33-2.58,3.41-4.08,6.36-4.6-1.56-.75-6-.94-6.64-.27Zm40.15-10.77v5.01l2-1.75c-1.32-.17-1.92-.52-1.81-1.25,.11-.71,.52-1.38,.78-2.01h-.97Zm6.11,2.31c.37,.08,.66,.13,.96,.21q1.27,.31,1.81-.76s-.02-.07-.05-.14c-.88,.33-1.34-.25-1.81-.79l-.91,1.49Zm-34.5,24.86l1.19,.43c.11-1.1,.6-1.78,1.79-1.46l.15-1.18c-.24,.1-.32,.26-.46,.36-.16,.12-.36,.19-.55,.29-.04-.21-.13-.42-.11-.62,.03-.22,.16-.42,.29-.72l-1.3,.29c.97,1.23,.76,1.75-1,2.62Zm41.82-10.08l2.44,1.46,.25-1.97-2.69,.51Zm-54.46,.46l1.71-.46,.1-.85c-.48,.67-.76,.36-.94-.07l-1.46,.47,.58,.91Zm20.99-.46v1.7l2.27-.67-2.27-1.03Zm19.93-3.72c-.39-.18-.77-.27-.99-.49-.4-.41-.69-.23-.9,.1-.24,.36-.38,.77-.63,1.3l2.52-.9Zm-36.05-.04l-.14-.13-2.12,1.66q1.82-.15,2.26-1.53Zm6.64,14.78l.66-.85h-1.4l.74,.85Zm35.04-21.99l.16-.31-1.71-.79-.07,.13,1.61,.97Z"/><path d="M238.71,305l2.45,1.26c-.16-1.29,.56-2.27,1.6-3.09h.31c.2,.71,.51,1.4,.58,2.11,.15,1.38-.7,1.94-2.17,1.47,.02,.16,.04,.3,.05,.44,.04,.55-.15,1-.74,1.22-.63,.23-1.16,.08-1.57-.42-.52-.63-.77-1.81-.51-2.99Z"/><path d="M294.57,332.67c-1.47-.2-2.72-.55-3.69-1.48-.7-.67-.74-1.58-.09-2.17,.65-.6,1.75-.57,2.42,.1,.97,.98,1.33,2.17,1.37,3.55Z"/><path d="M272.48,333.23l-.02,.02c.77-.5,1.36-.56,1.96-.2,.69,.42,.91,.99,.69,1.82-.33,1.21-1.16,2.1-2.16,2.88-1-.81-1.45-3.74-.47-4.52Z"/><path d="M282.84,337.69c1.58-.66,3.12,.3,3.36,2.15-1.31,.2-2.51,.04-3.5-.85l.02,.02,.15-1.34-.02,.02Z"/><path d="M287.01,302.07c-.33-1.11,.05-1.95,1.22-2.65,.72,.76,.8,1.96,.19,2.77h.02l-1.45-.15,.02,.03Z"/><path d="M286.87,303.89c-1.55-.03-2.11-1.21-1.26-2.9,.48,.37,.94,.73,1.4,1.08l-.02-.03c.4,.65,.47,1.28-.14,1.86l.03-.02Z"/><path d="M274.25,310.82c.96,1.4,.18,3.42-.7,4.58-.08,.1-.37,.06-.56,.08-.17-.26-.38-.5-.51-.77-.38-.81-.88-1.61-1.05-2.46-.25-1.22,.78-1.98,2.11-1.69,.25,.05,.48,.17,.72,.26h0Z"/></g><g><path d="M259.29,358.65v-43.6c.02,.13,.07,.26,.07,.39,0,4.1,0,8.21,0,12.31,0,10.15,0,20.31,0,30.46,0,.15-.04,.29-.07,.44Z"/><path d="M226.39,343.34c.12-.63,.02-1.15-.43-1.5-.57-.44-1.17-.81-1.78-1.15-.64-.36-1.32-.59-1.94-1-1.63-1.1-1.95-3.45-.67-5.24,.53-.75,1.23-1.27,1.86-1.89,.09-.09,.2-.15,.3-.23-.11-.34-.23-.64-.3-.96-.09-.36-.15-.75,.12-1.02,.25-.25,.49-.08,.7,.16,.29,.34,.58,.69,.87,1.03,4.89-1.91,9.88-1.61,14.97-.92l-.37-2.34h-.12c-.05,.36-.08,.72-.15,1.07-.03,.15-.13,.28-.2,.41-.1-.11-.26-.19-.29-.33-.2-.88-.38-1.78-.59-2.82-.07,.55-.12,.99-.19,1.43-.03,.17-.09,.34-.14,.5-.12-.08-.26-.12-.35-.23-.14-.17-.25-.38-.38-.57-.01-.02-.04-.01-.11-.03,.02,.49,.04,.97,.04,1.44,0,.49-.13,.62-.45,.42-.26-.16-.52-.32-.75-.52-.09-.08-.11-.3-.16-.46,.12-.03,.25-.12,.37-.09,.17,.05,.32,.18,.53,.31-.02-.59-.05-1.12-.05-1.64,0-.16,.04-.42,.11-.46,.1-.06,.27,0,.38,.09,.18,.14,.33,.35,.45,.48,.24-.56,.45-1.13,.71-1.65,.08-.16,.28-.21,.43-.31,.05,.2,.12,.4,.14,.6,.04,.65,.05,1.3,.08,1.95h.12c.02-.16,.03-.33,.07-.48,.04-.14,.12-.34,.18-.35,.1,0,.26,.09,.31,.21,.21,.51,.4,1.05,.59,1.58,.04,.1,.06,.2,.02,.25,.34-1.12,.68-2.24,1.03-3.36,.06-.19,.16-.36,.25-.53,.19-.37,.39-.7,.43-1.22,.03-.37,.29-.77,.52-1.04,.38-.44,.81-.82,1.24-1.17,.22-.19,.5-.27,.71,.06,.2,.31,.11,.65-.01,.95-.35,.84-.84,1.51-1.44,2.02-.11,.09-.25,.19-.36,.17-.4-.08-.55,.28-.73,.65-.75,1.53-1.1,3.24-1.21,5.06,0,.05,.01,.09,.02,.15,1.4,.59,2.97,.74,3.78,2.77,.21-.5,.38-1.07,.66-1.5,.28-.43,.66-.73,1.02-1.05,.08-.07,.28-.03,.34,.06,.06,.09,.03,.33-.01,.48-.26,.93-.53,1.86-.79,2.79-.02,.06-.01,.12-.01,.11,.46-.4,.94-.84,1.42-1.25,.12-.1,.26-.17,.4-.17,.15,0,.29,.08,.44,.13-.06,.18-.09,.38-.17,.52-.33,.55-.69,1.06-1.02,1.61-.14,.23-.22,.52-.37,.87,.17-.06,.26-.13,.34-.11,.11,.03,.21,.12,.32,.18-.06,.14-.09,.35-.18,.41-.22,.15-.46,.26-.69,.34-.25,.08-.35-.16-.29-.42,.14-.57,.32-1.13,.5-1.68,.06-.2,.18-.36,.21-.61-.36,.52-.71,1.05-1.08,1.57-.07,.1-.18,.13-.28,.2-.05-.15-.17-.31-.15-.45,.09-.75,.2-1.49,.33-2.22,.07-.4,.2-.78,.3-1.18l-.08-.07c-.19,.38-.43,.73-.56,1.15-.4,1.32-.49,2.74-.56,4.15-.04,.75,.31,1.36,.96,1.67,.96,.46,1.96,.66,2.97,.66,.02,0,.04-.03,.04-.02-.06-.63-.12-1.25-.16-1.87,0-.19,.05-.5,.13-.54,.12-.06,.29,.07,.44,.14,.09,.04,.16,.12,.2,.14,.24-.61,.46-1.22,.72-1.8,.07-.16,.26-.22,.4-.32,.07,.19,.19,.37,.21,.57,.07,.53,.11,1.07,.16,1.63,.32-.11,.61-.24,.92-.31,.15-.03,.3,.04,.46,.07-.04,.2-.06,.42-.13,.6-.07,.19-.19,.35-.34,.61,.17,0,.28-.04,.36,0,.1,.05,.17,.18,.25,.27-.08,.12-.14,.33-.23,.35-.3,.06-.61,.08-.91,.05-.23-.02-.29-.25-.16-.53,.09-.19,.2-.36,.36-.66-.27,.13-.46,.22-.64,.32-.33,.17-.42,.07-.42-.4,0-.49-.03-.97-.09-1.46-.32,.52-.36,1.12-.38,1.74,0,.18-.1,.36-.15,.53-.12-.1-.25-.18-.36-.3-.1-.1-.17-.25-.26-.37l-.09,.06c.07,.46,.13,.93,.23,1.38,.02,.1,.21,.18,.32,.18,.75,.02,1.51-.05,2.26,.02,1.05,.09,2.09,.28,3.15,.42,.1-1.27,.22-2.62-.32-3.88h-.1c.04,.76,.09,1.51,.12,2.26,0,.14-.02,.34-.08,.41-.07,.07-.22,.06-.31,0-.24-.14-.47-.3-.68-.5-.09-.08-.1-.31-.15-.46,.12-.02,.24-.07,.35-.05,.1,.01,.2,.09,.35,.17,0-.64,0-1.24,0-1.84,0-.19,0-.38,.04-.57,.04-.19,.11-.36,.16-.55,.15,.09,.36,.13,.45,.29,.21,.36,.35,.78,.54,1.2,.09-.3,.19-.55,.06-.93-.19-.57-.02-1.15,.16-1.67,.14-.4,.32-.79,.51-1.14,.17-.31,.43-.41,.69-.26,.27,.15,.36,.49,.32,.84-.12,1.05-.22,2.14-1.05,2.68-.04,.03-.08,.11-.1,.18-.12,.57-.23,1.13-.27,1.76,.31-.37,.61-.75,.93-1.09,.1-.11,.27-.15,.4-.13,.05,0,.12,.31,.09,.45-.09,.59-.22,1.18-.33,1.76,.22,0,.48-.04,.73,0,.43,.08,.5,.34,.24,.82-.11,.21-.24,.4-.37,.63,.49,.65,.94,1.37,1.1,2.29,.13,.73,.17,1.49,.22,2.24,0,.12-.16,.26-.25,.4-.07-.15-.2-.31-.2-.46,.06-1.41-.27-2.61-.96-3.64-.32-.49-.33-.48-.75-.04,.48,.54,.85,1.2,1.02,2.04,.47,2.28-.39,4.44-2.04,5.26-.9,.45-1.83,.58-2.78,.62-.19,0-.37,0-.57,0,.02,.14,.03,.23,.05,.33,.15,.97,.11,1.12-.5,1.6-.12,.09-.32,.08-.46,.03-1.22-.43-2.43-.16-3.63,.06-.27,.05-.54,.23-.8,.21-.26-.01-.51-.2-.81-.32-.03,.7-.34,.69-.71,.62-.45-.08-.91-.15-1.37-.14-.69,.02-1.1-.44-1.35-1.35-.93,.17-1.86,.32-2.78,.52-2.44,.52-4.85,1.32-7.33,1.48-1.31,.09-2.62,0-3.9-.42-.13-.04-.34-.3-.32-.42,.03-.32,.23-.24,.42-.19,2.01,.6,4.02,.5,6.03,.07,2.29-.49,4.58-1.02,6.87-1.53,.22-.05,.45-.1,.67-.09,.34,.02,.52-.17,.58-.62,.02-.12,.06-.24,.11-.45-.52,.06-1.01,.07-1.5,.17-1.98,.41-3.96,.85-5.94,1.26-1.87,.39-3.74,.73-5.64,.45-1.02-.15-2.01-.43-2.81-1.42-.89-1.11-1.31-2.46-.91-4.1,.24-.98,.09-1.67-.65-2.14-.75-.48-1.53-.87-2.32-1.21-1.04-.45-1.98-1.07-2.69-2.26-.5-.84-.65-1.82-.57-2.87,0-.12,.15-.22,.23-.33,.07,.12,.22,.24,.21,.36-.11,2.27,.92,3.37,2.25,4.13,.62,.36,1.28,.6,1.92,.9,.74,.34,1.46,.74,1.98,1.6Zm-.5-2.43c1.16,1.35,1.22,1.68,.76,3.56-.13,.53-.26,1.09-.29,1.64-.09,1.32,.57,2.64,1.57,3.28,.75,.48,1.55,.63,2.36,.68,2.17,.15,4.3-.35,6.43-.81,1.9-.41,3.8-.72,5.71-1.05,.39-.07,.76-.13,1.12-.42,.28-.22,.67-.23,1.01-.23,.23,0,.47,.18,.69,.31,.25,.14,.4,.39,.36,.86,.47-.49,.89-.94,1.32-1.34,.15-.14,.39-.28,.53-.2,.57,.33,1.12,.27,1.68,.01,.27-.13,.52-.09,.77,.13,.35,.3,.71,.57,1.07,.83,.28,.2,.56,.5,.85,.53,1.36,.11,2.72,.03,3.95-.93,.61-.47,1.03-1.15,1.22-2.09,.31-1.56-.05-2.41-1.18-2.87-1.32-.54-2.67-.67-4.03-.72-1.6-.06-3.21-.15-4.81-.29-.65-.06-1.26-.37-1.74-1.04-.86-1.2-1.26-2.61-1.02-4.29,.1-.74-.05-1.33-.48-1.75-.35-.35-.72-.71-1.13-.88-1.03-.43-2.07-.84-3.12-1.09-1.19-.28-2.4-.5-3.6-.53-1.91-.04-3.82,.05-5.73,.17-1.43,.09-2.84,.47-4.23,.96-.28,.1-.34,.22-.23,.63,.19,.67,.34,1.38,.43,2.09,.09,.67,.07,1.36,.1,2.07,.25-.43,.48-.84,.72-1.23,.05-.08,.18-.15,.24-.12,.08,.05,.14,.2,.17,.33,.03,.12,0,.26-.01,.38-.09,.81-.18,1.62-.27,2.46,.07-.01,.15-.06,.22-.04,.12,.04,.23,.13,.35,.19-.08,.14-.14,.36-.25,.42-.2,.12-.43,.18-.65,.22-.32,.05-.39-.11-.29-.54,.13-.6,.25-1.2,.37-1.8l-.15-.08-.81,2.58Zm-.19-2.2c.11-1.44,.08-2.9-.35-4.3-.07-.25-.18-.38-.38-.48-.27-.13-.47-.05-.68,.13-.47,.41-.98,.79-1.4,1.29-.28,.33-.5,.81-.64,1.29-.07,.23,.1,.6,.17,.91,.04,.17,.16,.39,.11,.49-.11,.27-.28,.13-.42-.02-.39-.41-.51-1.23-.27-1.9,.27-.74,.67-1.32,1.17-1.76,.41-.37,.83-.71,1.26-1.07l-.27-.39c-.85,.57-1.67,1.18-2.25,2.23-.96,1.73-.45,3.22,.75,4.03,.65,.44,1.36,.69,2.05,1.03,.2,.1,.41,.2,.65,.32,.02-1.38-.02-2.63-.95-3.61,.09,.47,.15,.81,.22,1.14,.21,1.06,.18,1.1-.57,.83-.03,.12-.04,.25-.09,.36-.1,.22-.36,.21-.39-.03-.04-.32-.04-.69,.04-.99,.03-.13,.3-.14,.5-.21-.08-.43-.18-.92-.26-1.42-.07-.39,.08-.61,.34-.45,.33,.21,.71,.43,.93,.81,.31,.52,.49,1.18,.72,1.79Zm-.28-6.65c.24,.73,.24,.73,.46,.66,.64-.19,1.28-.35,1.92-.56,1.49-.48,3.02-.56,4.54-.6,1.49-.04,2.98,0,4.47,.1,1.76,.11,3.49,.45,5.19,1.13,.78,.31,1.53,.76,2.22,1.56-.16-1.07-.65-1.58-1.25-1.95-1.38-.84-2.85-1.13-4.33-1.33-3.55-.47-7.1-.54-10.64,.23-.85,.19-1.69,.49-2.58,.76Zm20.6,18.57c.65,.39,.87,.41,1.54,.17,1.13-.4,2.28-.49,3.42-.16,.34,.1,.56,.02,.74-.34-.04-.2-.09-.38-.11-.57-.04-.33-.12-.48-.41-.49-.42,0-.84-.15-1.26-.19-.22-.02-.47,0-.67,.12-.44,.24-.86,.57-1.3,.82-.09,.05-.23-.08-.35-.12,.04-.14,.05-.36,.11-.4,.79-.44,1.48-1.4,2.45-1.05,.02,0,.05-.03,.12-.06-.45-.32-.82-.76-1.35-.43-.46,.28-.93,.23-1.4-.03-.1-.06-.27-.04-.35,.05-.46,.44-.9,.91-1.35,1.38q.21,.35,.18,1.31Zm10.37-8.25l.05-.15c-.44-.33-.86-.74-1.32-.98-1.52-.79-3.13-.77-4.72-.75-1.76,.02-3.51,0-5.2-.9,.33,.76,.73,1.26,1.4,1.41,.93,.21,1.88,.35,2.82,.39,2.35,.1,4.71-.18,6.98,.98Zm-11.03,7.57l-.06-.15c-.05-.3-.09-.59-.14-.89-.02-.15-.03-.36-.1-.42-.37-.31-.76-.44-1.19-.21-.55,.29-.69,.97-.85,1.63-.15,.6,.08,1.09,.55,1.17,.45,.07,.91,.12,1.37,.18q.51,.07,.53-.7s-.07,0-.1,0c-.52,.04-1.05,.1-1.57,.11-.09,0-.18-.22-.28-.34,.1-.1,.2-.24,.31-.29,.1-.04,.23,.02,.35,.02,.39-.03,.78-.07,1.17-.1Zm11.06-11.76l-.07-.06c-.19,.22-.35,.49-.56,.66-.43,.35-.49,.89-.45,1.5,.02,.37,.38,.78,.63,.66,.43-.2,.8-.55,1.08-1.1-.33,.07-.64,.23-.95,.34-.1,.04-.23-.03-.34-.05,.02-.16,.01-.34,.06-.48,.19-.5,.4-.98,.6-1.46Zm-32.55-7.24c.2,.9,.53,1.69,1.06,2.28,.05,.05,.15,.02,.23,.03,0-.13,.03-.29,0-.39-.3-.8-.73-1.43-1.29-1.92Zm20.25-8.64c-.64,.21-1.51,1.22-1.65,1.88,.4,.19,1.3-.82,1.65-1.88Zm12.36,11.02c-.37,.29-.89,1.63-.83,2.05,0,.07,.07,.18,.09,.18,.08-.01,.2-.04,.24-.12,.32-.61,.52-1.28,.5-2.12Z"/><path d="M257.99,318.89c-.59-.02-1.15-.83-1.13-1.63,.02-.84,.59-1.61,1.17-1.58,.62,.04,1.15,.78,1.15,1.6,0,.84-.58,1.62-1.18,1.6Z"/><path d="M255.06,318.88c-.6,0-1.15-.74-1.16-1.58-.01-.83,.57-1.63,1.17-1.62,.6,.02,1.15,.78,1.14,1.6,0,.83-.55,1.59-1.15,1.59Zm.29-1.49v-.18c-.1-.09-.2-.27-.29-.25-.1,.02-.22,.21-.24,.35-.01,.08,.14,.3,.23,.31,.1,.01,.21-.14,.31-.23Zm-.91-.31l.1,.03,.42-.54-.03-.14c-.13,.04-.3,.03-.38,.14-.08,.1-.08,.33-.11,.51Zm.73-.65v.17l.4,.51,.09-.03c-.04-.17-.03-.4-.12-.5-.09-.11-.25-.1-.38-.14Zm-.24,1.69v-.16l-.41-.5-.1,.04c.04,.18,.05,.4,.13,.51,.08,.1,.25,.08,.38,.11Z"/><path d="M232.61,338.66c.07,.49,.13,1.02,.21,1.54,.1,.68-.24,1.12-.66,1.32-1.15,.55-2.94-.2-3.68-1.54-.74-1.35-.46-3.03,.7-3.93,1.1-.85,2.29-1.01,3.51-.75,.45,.1,.89,.34,1.32,.57,.34,.19,.53,.6,.52,1.11,0,.5-.21,.86-.54,1.03-.47,.24-.94,.44-1.38,.64Zm-1.29,2.37c.13-.01,.26-.02,.39-.04,.08-.01,.16-.04,.24-.07,.38-.15,.53-.5,.41-1.02-.09-.38-.21-.75-.34-1.11-.27-.67-.23-.75,.34-.86,.42-.08,.83-.2,1.23-.38,.18-.09,.45-.4,.44-.57-.02-.25-.23-.54-.41-.68-.53-.38-1.11-.44-1.7-.46-.93-.02-1.83,.15-2.63,.87-.93,.84-1.02,2.19-.18,3.24,.63,.78,1.39,1.03,2.21,1.07Z"/><path d="M242.18,344.52c-.43-.2-.88-.37-1.3-.62-.39-.24-.41-.84-.03-1.13,.29-.22,.63-.37,.96-.44,1-.21,2-.18,2.98,.16,.29,.1,.58,.26,.85,.46,.82,.63,.83,1.76,.04,2.46-.6,.54-1.27,.69-1.96,.77-.23,.03-.47,.02-.7,0-.88-.09-1.11-.58-.84-1.65Zm-1.09-1.32v.19c.12,.06,.23,.15,.35,.17,.39,.08,.79,.13,1.18,.22,.12,.03,.26,.14,.34,.27,.03,.05-.07,.27-.13,.39-.05,.12-.13,.23-.19,.35-.21,.41-.14,.66,.23,.72,.23,.04,.47,.03,.7,.03,.64-.01,1.26-.19,1.81-.66,.55-.47,.54-.99-.02-1.41-.17-.13-.36-.23-.55-.31-.79-.35-1.6-.39-2.42-.29-.44,.06-.87,.21-1.31,.32Z"/></g><rect class="g" x="214.62" y="295.84" width="3.57" height="56.74"/><g><path d="M318.68,316.56c-.03-3.09-.06-6.18-.08-9.27,0-.48-.07-.97,.01-1.44,.21-1.28-.33-2.16-1.34-3.04-2.39-2.07-4.66-4.27-6.98-6.42-.16-.15-.28-.33-.46-.55-1.54,1.43-2.98,2.78-4.43,4.13-1.24,1.16-2.5,2.3-3.74,3.47-.66,.62-1.42,.87-2.32,.61-.91-.26-1.35-.89-1.48-1.75-.67-4.24-1.45-8.46-1.98-12.71-.43-3.44,.82-6.5,3.42-8.99,2.76-2.66,5.62-5.23,8.44-7.83,.16-.15,.36-.25,.64-.44-1.06-.96-2.01-1.81-2.94-2.67-1.78-1.64-3.55-3.29-5.33-4.93-.66-.61-.92-1.31-.62-2.15,.29-.82,.97-1.22,1.85-1.34,4.31-.59,8.61-1.21,12.92-1.76,4.15-.53,7.77,.57,10.76,3.28,2.72,2.45,5.38,4.96,8.06,7.45,.23,.21,.42,.47,.67,.76,1.57-1.46,3.01-2.81,4.46-4.16,1.24-1.16,2.5-2.3,3.74-3.47,.65-.61,1.4-.89,2.31-.6,.9,.28,1.33,.9,1.47,1.76,.56,3.55,1.14,7.1,1.72,10.65,.02,.13,.08,.25,.12,.38v5.07c-.06,.14-.13,.27-.17,.41-.6,2.13-1.75,3.97-3.43,5.52-1.85,1.71-3.69,3.42-5.55,5.13-1.03,.94-2.06,1.87-3.23,2.93,.32,.22,.58,.36,.78,.55,2.47,2.28,4.93,4.56,7.4,6.84,.45,.42,.82,.86,.85,1.49,.05,1.19-.75,1.95-2.25,2.15-2.13,.29-4.26,.62-6.4,.86-3.5,.39-6.94,1.38-10.58,.79,0,.41,0,.77,0,1.13-.03,2.72-.06,5.45-.09,8.17h-6.23Zm3.08-37.15c.01-.08,.04-.21,.05-.34,.28-2.94,.59-5.89,.82-8.83,.09-1.1,.18-2.24,0-3.32-.61-3.56-4.26-5.99-8.12-5.48-3,.39-5.99,.81-8.98,1.23-1.3,.18-2.6,.37-3.98,.56,.16,.17,.25,.27,.35,.37,3.04,2.81,6.07,5.62,9.11,8.43,2.76,2.55,5.51,5.1,8.28,7.65,.15,.13,.42,.27,.59,.24,.62-.12,1.23-.32,1.88-.5Zm-21.77,22.76c.19-.17,.28-.24,.37-.32,3.36-3.11,6.72-6.22,10.08-9.33,2.44-2.25,4.87-4.51,7.3-6.77,.15-.14,.3-.4,.26-.56-.15-.59-.38-1.16-.6-1.78-.12-.01-.31-.03-.49-.05-3.6-.28-7.2-.53-10.79-.86-4.83-.44-8.79,3.39-8.05,7.84,.41,2.45,.79,4.9,1.18,7.34,.24,1.46,.47,2.92,.73,4.48Zm21.8-14.7c-.14,1.54-.3,3.14-.44,4.75-.19,2.18-.49,4.36-.53,6.54-.07,3.89,3.72,7.08,7.89,6.63,3.62-.39,7.22-.96,10.82-1.45,.8-.11,1.61-.23,2.51-.35-.24-.24-.4-.39-.56-.54-2.36-2.19-4.72-4.37-7.08-6.56-3.37-3.12-6.74-6.25-10.13-9.36-.13-.12-.39-.25-.55-.22-.64,.15-1.26,.36-1.94,.56Zm21.81-22.72l-.22-.15c-.12,.18-.2,.4-.36,.54-2.44,2.27-4.89,4.54-7.34,6.81-3.27,3.03-6.54,6.05-9.8,9.09-.16,.15-.32,.42-.28,.6,.13,.57,.36,1.13,.57,1.75,.25,.03,.57,.06,.9,.09,1.24,.1,2.48,.2,3.72,.29,2.46,.19,4.91,.46,7.38,.53,4.58,.12,8.05-3.68,7.34-7.85-.47-2.71-.87-5.42-1.31-8.14-.19-1.19-.39-2.38-.59-3.57Zm-1.89,21c-.78,.16-1.57,.4-2.39,.48-.84,.08-1.7,.07-2.54,0-2.6-.19-5.2-.41-7.8-.62-1.14-.09-2.28-.18-3.42-.27l8.3,7.67,7.84-7.26Zm-9.56-13.45l-7.86-7.3c.04,.13,.08,.28,.13,.42,.47,1.28,.58,2.58,.45,3.92-.32,3.31-.63,6.62-.94,9.92-.02,.22,0,.44,0,.66l8.22-7.62Zm-20.71,22.16l7.85,7.27c-.49-1.22-.72-2.56-.6-3.93,.26-2.91,.55-5.82,.82-8.72,.07-.73,.12-1.45,.18-2.25-2.84,2.62-5.58,5.16-8.25,7.63Zm6.65-12.99l-8.23-7.6-7.62,7.02c.99-.11,2.29-.41,3.56-.36,2.57,.09,5.12,.37,7.69,.58,1.5,.12,3,.24,4.6,.36Zm4.77,34.39c0-3.03,0-5.98,0-8.93,0-.13-.1-.31-.21-.37-.6-.29-1.21-.55-1.87-.84v10.11c.11,.01,.18,.03,.26,.03,.58,0,1.16,0,1.83,0Zm-1.12-30.53c1.23,.02,2.16-.8,2.16-1.92,0-1.07-.91-1.95-2.06-1.98-1.16-.03-2.15,.86-2.17,1.95-.01,1.09,.88,1.94,2.07,1.95Z"/><rect class="c" x="320.05" y="316.74" width="3.57" height="54.35"/></g></g><ellipse class="e" cx="227.42" cy="316.14" rx="137.3" ry="132.59"/><ellipse class="d" cx="229.21" cy="316.44" rx="181.38" ry="169.91"/><g><path d="M116.93,206.17c-3.01-2.74-6.62-6.05-9.17-8.61l-.06,.06c1.94,2.84,3.97,5.9,6.25,9.28,2.68,3.96,5.46,7.86,8.36,11.67-.37,.38-.75,.76-1.12,1.14-4.16-2.41-8.37-4.77-12.61-7.07-3.76-2.05-7.19-3.93-10.23-5.76l-.04,.04c2.76,2.39,6.46,5.64,9.78,8.54,3.16,2.78,6.35,5.53,9.57,8.26-.45,.5-.9,1.01-1.35,1.52-7.6-6.29-15.02-12.73-22.26-19.29,.75-.82,1.5-1.62,2.26-2.42,4.37,2.25,8.7,4.55,12.99,6.92,3.25,1.83,6.09,3.53,8.69,5.24l.05-.05c-1.93-2.26-3.9-4.84-6.04-7.89-2.71-3.94-5.3-7.94-7.78-12.02,.79-.74,1.59-1.46,2.39-2.18,7.05,6.63,14.17,13.25,21.36,19.86-.5,.45-1,.91-1.49,1.37-3.2-2.86-6.38-5.73-9.55-8.61Z"/><path d="M131.74,196.66c4.79,5.97,4.66,10.25,2.55,11.96-2.35,1.9-7.06,.53-11.67-4.2-4.88-5-5.45-9.91-2.57-12.2,3-2.38,7.72-.49,11.68,4.44Zm-7.48,6.19c3.13,3.33,6.62,4.88,8.2,3.6,1.55-1.25,.53-4.74-2.45-8.32-2.25-2.69-5.95-5.48-8.14-3.74-2.19,1.75-.32,5.58,2.39,8.46Z"/><path d="M121.97,179.34c.68-.48,1.37-.96,2.05-1.43,5.92,8.11,11.97,16.17,18.15,24.18-.56,.39-1.11,.78-1.66,1.18-6.32-7.93-12.5-15.91-18.54-23.94Z"/><path d="M140.36,191.71c2.98,4.1,5.69,4.82,7.43,3.76,1.25-.77,1.76-1.61,2.1-2.5,.58,.69,1.16,1.38,1.74,2.08-.3,.86-.96,2.04-2.46,2.96-2.86,1.77-7.05-.42-10.75-5.43-3.69-5-4.62-10.28-1.4-12.26,3.6-2.19,7.62,2.32,9.6,5.52,.4,.65,.67,1.18,.85,1.51-2.4,1.38-4.77,2.83-7.12,4.35Zm3.94-5.59c-1.25-2.01-3.76-4.83-5.97-3.47-1.99,1.23-.85,4.65,.5,6.86,1.81-1.17,3.63-2.3,5.47-3.39Z"/><path d="M147.11,181.39c-1.08-1.82-1.98-3.3-2.9-4.72,.6-.33,1.19-.65,1.79-.97,.59,.96,1.19,1.92,1.79,2.87l.04-.02c-.43-1.97-.06-4.32,1.81-5.26,1.57-.8,4.76-.45,7.89,5.81,1.83,3.63,3.68,7.25,5.55,10.86-.6,.28-1.19,.57-1.79,.86-1.86-3.47-3.7-6.94-5.52-10.41-1.52-2.92-3.44-5.04-5.35-4.07-1.33,.68-1.5,2.73-.8,4.7,.14,.45,.41,1.02,.73,1.57,2.04,3.56,4.11,7.11,6.19,10.65-.59,.32-1.17,.63-1.75,.96-2.59-4.27-5.16-8.54-7.69-12.82Z"/><path d="M165.93,188.64c-.57-1.27-1.43-3.15-2.22-4.78-3.57-7.41-7.07-14.83-10.49-22.27,.72-.32,1.45-.64,2.18-.95,1.72,3.89,3.47,7.77,5.23,11.65l.05-.02c-.22-2.37,.52-4.29,2.39-5.04,2.9-1.16,6.44,2.04,8.62,7.81,2.6,6.79,1.69,10.97-.52,11.87-1.44,.58-3.06,.04-4.97-2.08l-.06,.03c.45,1.03,.9,2.06,1.35,3.09-.52,.23-1.04,.46-1.56,.69Zm-1.59-8.24c.19,.42,.43,.82,.65,1.19,1.45,2.17,3.26,3.32,4.61,2.77,1.93-.78,1.89-4.14,.15-8.47-1.52-3.78-3.99-6.58-6.21-5.69-1.41,.57-2.02,2.7-1.25,5.44,.13,.4,.27,.89,.52,1.43,.51,1.11,1.02,2.22,1.53,3.33Z"/><path d="M175.62,174.65c1.76,4.68,4.09,6.06,5.98,5.47,1.36-.42,2.04-1.1,2.58-1.87,.37,.81,.74,1.62,1.11,2.43-.49,.75-1.41,1.72-3.03,2.22-3.11,.98-6.45-2.19-8.64-7.92-2.19-5.72-1.78-11.01,1.68-12.1,3.88-1.2,6.54,4.14,7.59,7.71,.22,.72,.34,1.3,.42,1.67-2.58,.73-5.15,1.52-7.7,2.39Zm5.04-4.37c-.67-2.24-2.32-5.58-4.71-4.83-2.14,.68-1.92,4.25-1.21,6.7,1.96-.66,3.93-1.29,5.91-1.87Z"/><path d="M186.99,171.27c1.38,4.8,3.58,6.35,5.49,5.91,1.38-.32,2.1-.94,2.7-1.67,.3,.83,.61,1.67,.91,2.51-.55,.71-1.53,1.6-3.18,1.99-3.16,.74-6.21-2.67-7.93-8.55-1.72-5.87-.92-11.1,2.59-11.93,3.93-.91,6.16,4.62,6.93,8.25,.16,.74,.24,1.32,.29,1.69-2.61,.53-5.21,1.13-7.8,1.8Zm5.33-3.97c-.49-2.29-1.87-5.73-4.29-5.17-2.17,.51-2.22,4.08-1.71,6.59,1.99-.51,3.99-.98,6-1.42Z"/><path d="M199.12,167.12h.05c.15-.76,.4-1.69,.61-2.45,.72-2.48,1.5-4.96,2.33-7.43,.88-.13,1.76-.25,2.64-.36-1.18,2.95-2.28,5.91-3.29,8.88,2.32,3.66,4.53,7.36,6.6,11.11-.78,.1-1.55,.2-2.33,.31-1.7-3.03-3.47-6.03-5.33-9-.23,.74-.45,1.49-.66,2.23,.46,2.5,.92,4.99,1.39,7.49-.63,.11-1.26,.22-1.88,.34-1.96-9.72-3.86-19.44-5.71-29.16,.76-.14,1.52-.28,2.28-.41,1.08,6.15,2.19,12.3,3.32,18.45Z"/><path d="M214.33,166.73c.47,4.96,2.32,6.86,4.27,6.76,1.4-.07,2.23-.56,2.95-1.17,.14,.87,.29,1.75,.42,2.62-.66,.61-1.79,1.31-3.47,1.41-3.21,.18-5.55-3.7-6.16-9.78-.61-6.07,1.09-11.08,4.66-11.28,3.99-.21,5.19,5.61,5.28,9.32,.02,.75,0,1.34-.02,1.72-2.65,.07-5.29,.21-7.94,.42Zm5.91-2.99c-.07-2.34-.8-5.96-3.26-5.83-2.21,.13-2.89,3.63-2.85,6.18,2.03-.16,4.07-.28,6.1-.36Z"/><path d="M224.83,160.95c-.03-2.09-.07-3.8-.16-5.48,.65,0,1.3-.01,1.95-.01,.04,1.12,.08,2.23,.12,3.34,.02,0,.03,0,.05,0,.58-1.92,2-3.8,4.02-3.76,1.69,.03,4.23,1.82,3.85,8.76-.21,4.02-.42,8.05-.63,12.07-.64-.03-1.28-.06-1.93-.08,.15-3.89,.3-7.77,.45-11.66,.13-3.26-.48-6.01-2.53-6.05-1.43-.03-2.55,1.68-2.92,3.73-.1,.46-.15,1.09-.15,1.71,0,4.06-.01,8.11-.02,12.17-.64,0-1.28,0-1.93,0-.06-4.92-.12-9.84-.18-14.76Z"/><path d="M243.25,162.9c.27-2.58,.44-4.66,.59-6.58,.66,.07,1.31,.14,1.97,.21-.1,1.15-.2,2.31-.3,3.46h.05c1.16-2.35,2.78-3.63,4.75-3.36,2.95,.41,4.42,4.87,3.31,10.92-1.33,7.16-4.26,10.31-6.7,9.98-1.38-.19-2.44-1.49-2.84-3.56h-.04c-.45,3.64-.9,7.28-1.35,10.92-.59-.07-1.19-.13-1.78-.19,.81-7.26,1.59-14.53,2.37-21.79Zm1.44,5.58c-.07,.54-.08,1.04-.09,1.51,.06,2.58,1.01,4.45,2.4,4.64,2.04,.28,3.76-2.67,4.54-7.25,.68-4-.01-7.63-2.3-7.94-1.48-.2-3.08,1.42-3.81,4.12-.13,.45-.26,.98-.32,1.48-.14,1.15-.28,2.3-.42,3.45Z"/><path d="M256.87,164.56c.46-2.34,.83-4.36,1.11-6.22,.64,.12,1.27,.24,1.9,.36-.24,1.3-.48,2.61-.73,3.91l.1,.02c1.08-2.56,2.75-3.97,4.22-3.65,.25,.05,.41,.13,.59,.26-.26,1.13-.52,2.26-.79,3.38-.2-.13-.41-.22-.7-.28-1.51-.33-2.98,1.38-3.83,4.03-.15,.48-.32,1.05-.45,1.66-.75,3.52-1.5,7.05-2.26,10.57-.63-.13-1.25-.25-1.88-.36,.92-4.56,1.82-9.12,2.72-13.67Z"/><path d="M273.57,172.39c-2.37,7.13-6.02,9.44-8.48,8.79-2.76-.74-3.94-5.12-2.46-11.36,1.57-6.6,5.11-9.88,8.43-9,3.44,.92,4.46,5.68,2.51,11.57Zm-8.86-2.21c-1.1,4.31-.62,7.87,1.23,8.36,1.81,.48,4.17-2.28,5.53-6.64,1.03-3.28,1.32-7.75-1.2-8.43-2.53-.67-4.61,2.98-5.56,6.71Z"/><path d="M277.55,168.94c.68-1.98,1.21-3.62,1.67-5.23,.62,.2,1.24,.4,1.86,.61-.33,1.04-.66,2.08-.99,3.12l.07,.02c1.28-1.6,2.98-2.94,4.92-2.24,1.6,.58,2.18,2.6,1.76,5.01l.05,.02c.78-.91,1.56-1.56,2.28-1.95,1.04-.58,2.01-.74,3.11-.29,1.53,.63,3.07,3.23,.02,9.62-1.71,3.62-3.45,7.23-5.2,10.84-.59-.26-1.18-.52-1.77-.77,1.63-3.49,3.25-6.99,4.85-10.48,1.63-3.56,1.81-6.05,.14-6.73-1.18-.48-2.69,.6-3.73,2.13-.28,.43-.61,1.03-.87,1.65-1.6,3.87-3.23,7.74-4.87,11.6-.6-.23-1.19-.46-1.79-.69,1.54-3.77,3.06-7.54,4.56-11.31,1.2-3,1.27-5.5-.33-6.07-1.31-.47-2.89,.95-3.83,2.58-.3,.47-.56,1.05-.77,1.64-1.38,3.85-2.78,7.69-4.19,11.53-.6-.2-1.21-.4-1.81-.6,1.64-4.67,3.26-9.33,4.85-14.01Z"/><path d="M295.44,181.81c-2.24,4.49-1.64,7.08,.15,8,1.29,.66,2.3,.67,3.28,.53-.35,.82-.7,1.64-1.05,2.46-.93,.17-2.33,.19-3.87-.6-2.96-1.51-2.9-6.02-.19-11.55,2.71-5.52,6.86-8.97,10.18-7.3,3.72,1.89,1.71,7.53-.22,10.76-.39,.66-.73,1.14-.95,1.46-2.42-1.32-4.87-2.57-7.34-3.76Zm6.9,.5c1.2-2.04,2.47-5.54,.18-6.7-2.05-1.03-4.52,1.63-5.85,3.85,1.9,.91,3.79,1.86,5.66,2.85Z"/><path d="M307.98,182.31c1.1-1.81,1.98-3.3,2.78-4.79,.59,.34,1.19,.68,1.78,1.02-.56,.98-1.12,1.96-1.68,2.94l.04,.03c1.56-1.34,3.86-2.21,5.67-1.09,1.52,.93,2.91,3.84-1.21,9.59-2.38,3.34-4.78,6.67-7.21,9.99-.56-.37-1.13-.74-1.7-1.11,2.29-3.24,4.56-6.49,6.8-9.74,1.89-2.72,2.81-5.42,.96-6.55-1.29-.79-3.23,.09-4.66,1.66-.34,.34-.72,.85-1.06,1.39-2.2,3.48-4.42,6.94-6.66,10.41-.58-.34-1.16-.68-1.74-1.01,2.65-4.24,5.28-8.48,7.87-12.74Z"/><path d="M315.95,205.51c.52-.7,1.04-1.4,1.56-2.1l-.06-.04c-1.56,.86-3.46,1.26-4.75,.33-1.83-1.32-1.01-4.31,.78-6.71,2.96-4,6.79-4.76,10.63-1.84,.09-.11,.18-.22,.27-.33,1.09-1.32,2.81-3.89,.67-5.44-.97-.7-2.35-.94-3.64-.69,.35-.76,.7-1.52,1.04-2.28,1.53-.29,3.25,.02,4.58,.99,3.25,2.37,1.24,6.31-1.46,9.46-1.67,1.97-3.35,3.94-5.04,5.91-1.18,1.37-2.29,2.73-3.11,3.89-.49-.38-.99-.77-1.48-1.14Zm6.54-8.32c-1.89-1.53-4.57-2.53-7.01,.66-1.49,1.93-1.47,3.36-.61,3.98,1.2,.87,3.06,.13,4.46-1.02,.3-.25,.62-.55,.86-.85,.77-.92,1.53-1.85,2.3-2.77Z"/><path d="M349.39,193.74c-5.94,5.94-11.96,11.83-18.09,17.67-1.35,1.29-2.88,2.77-3.87,3.8-.46-.43-.92-.86-1.39-1.28,.85-.87,1.69-1.74,2.54-2.61l-.04-.03c-2.17,1.19-4.47,1.5-5.87,.28-2.06-1.79-.84-6.26,3.31-11.02,4.52-5.22,9.43-6.75,11.93-4.61,1.55,1.33,1.54,3.33,.79,4.92l.04,.04c2.93-2.95,5.83-5.91,8.71-8.89,.64,.57,1.28,1.15,1.92,1.73Zm-14.72,11.25c.34-.34,.78-.81,1.05-1.2,1.46-1.94,1.88-4.23,.52-5.39-1.88-1.61-5.3,.04-8.38,3.45-2.83,3.13-4.31,6.42-2.59,7.91,1.07,.93,3.24,.62,5.58-1.11,.42-.32,.81-.66,1.24-1.09,.86-.85,1.72-1.71,2.58-2.56Z"/><path d="M338.1,211.88c-3.81,3.51-4.1,6.23-2.6,7.81,1.07,1.13,2.09,1.53,3.13,1.76-.64,.67-1.28,1.33-1.92,1.99-1-.19-2.42-.71-3.7-2.07-2.46-2.59-.83-6.92,3.79-11.26,4.62-4.33,9.98-6.12,12.8-3.24,3.14,3.25-.83,7.98-3.9,10.37-.62,.49-1.14,.83-1.46,1.06-2-2.22-4.05-4.37-6.14-6.44Zm6.82,3.1c1.92-1.52,4.4-4.45,2.48-6.43-1.74-1.78-5.14-.13-7.24,1.52,1.61,1.59,3.2,3.23,4.76,4.91Z"/></g><g><path d="M112.75,416.71c2.78-2.71,6.14-5.94,8.74-8.23l-.06-.06c-2.87,1.68-6.01,3.35-9.6,5.06-4.2,2.01-8.46,3.92-12.78,5.73-.47-.58-.94-1.16-1.4-1.74,2.68-3.72,5.42-7.37,8.24-10.96,2.5-3.18,4.89-5.98,7.21-8.39l-.03-.05c-2.82,2.01-6.66,4.65-10.13,6.96-3.31,2.2-6.64,4.38-9.97,6.55-.56-.77-1.11-1.55-1.66-2.33,7.89-4.88,15.73-9.84,23.52-14.87,.62,.86,1.25,1.72,1.88,2.56-2.92,3.57-5.77,7.21-8.55,10.93-2.15,2.81-4.06,5.3-5.95,7.55l.06,.08c2.53-1.34,5.38-2.67,8.66-4.21,4.23-1.93,8.39-3.95,12.49-6.07,.68,.78,1.37,1.55,2.07,2.31-6.56,6.56-13.06,13.17-19.51,19.84-.64-.69-1.28-1.39-1.91-2.1,2.89-2.87,5.79-5.73,8.7-8.58Z"/><path d="M126.18,432.77c-4.75,5.66-9.93,5.46-12.75,2.79-3.17-2.99-2.65-8.19,1.9-12.56,4.82-4.63,9.76-5.13,12.55-2.51,2.89,2.71,2.24,7.61-1.69,12.29Zm-8.82-7.88c-3.09,3.09-4.02,6.85-1.97,8.77,2,1.88,5.68,.78,8.64-2.61,2.23-2.55,4.16-6.55,1.95-8.62-2.2-2.08-5.92-.24-8.61,2.45Z"/><path d="M140.89,420.12c.61,.5,1.22,.99,1.83,1.48-6.04,7.67-12.09,15.34-18.13,23.01-.74-.59-1.48-1.18-2.22-1.79,6.17-7.56,12.35-15.13,18.52-22.69Z"/><path d="M135.13,440.91c-2.86,3.99-2.1,7.06,.2,8.63,1.64,1.12,2.89,1.39,4.07,1.46-.34,.81-.67,1.63-1.01,2.44-1.14-.04-2.92-.41-4.96-1.81-3.97-2.73-3.8-7.74-.15-12.52,3.66-4.79,8.45-7.08,11.67-4.85,3.63,2.48,1.6,7.91-.36,11.04-.4,.63-.76,1.08-.98,1.38-2.88-1.83-5.71-3.75-8.48-5.78Zm7.83,2.27c1.29-1.92,2.67-5.29,.35-6.88-2.08-1.44-4.97,.62-6.63,2.53,2.06,1.51,4.16,2.96,6.28,4.35Z"/><path d="M149.18,443.98c1.07-1.77,1.92-3.23,2.7-4.68,.62,.38,1.25,.75,1.87,1.11-.52,.97-1.03,1.95-1.54,2.92l.05,.03c1.56-1.29,3.82-2.12,5.77-1.06,1.62,.89,3.43,3.66,.38,9.79-1.79,3.55-3.57,7.1-5.36,10.65-.83-.41-1.65-.84-2.47-1.26,1.78-3.4,3.56-6.8,5.34-10.2,1.49-2.86,2-5.6-.05-6.72-1.43-.79-3.38,.04-4.78,1.57-.33,.33-.69,.84-1,1.37-2.01,3.46-4.03,6.92-6.04,10.38-.8-.47-1.6-.94-2.4-1.42,2.51-4.16,5.02-8.31,7.53-12.47Z"/><path d="M156.98,464.64c.64-1.21,1.55-3.01,2.31-4.61,3.42-7.28,6.84-14.57,10.26-21.85,.68,.32,1.36,.63,2.05,.94-1.72,3.81-3.43,7.63-5.15,11.44l.05,.02c1.72-1.67,3.7-2.37,5.68-1.56,3.02,1.24,3.78,5.89,1.69,11.59-2.43,6.71-6.87,8.87-10.03,7.56-2.03-.84-3.21-2.58-3.13-5.44l-.08-.04c-.49,.99-.98,1.97-1.47,2.96-.72-.33-1.45-.66-2.17-1Zm5.88-6.11c-.19,.41-.32,.85-.43,1.25-.57,2.5,.17,4.73,2,5.49,2.64,1.1,5.34-1.19,6.98-5.47,1.43-3.74,1.36-7.42-1.06-8.42-1.55-.64-3.66,.27-5.28,2.58-.22,.35-.5,.77-.74,1.3-.49,1.09-.98,2.18-1.47,3.27Z"/><path d="M178,463.01c-1.53,4.67,.05,7.33,2.65,8.1,1.85,.55,3.1,.42,4.22,.13-.08,.88-.16,1.75-.24,2.63-1.07,.31-2.85,.51-5.15-.18-4.48-1.36-5.75-6.13-3.71-11.79,2.04-5.67,5.84-9.33,9.49-8.22,4.09,1.22,3.76,7.01,2.83,10.58-.19,.72-.4,1.26-.52,1.61-3.21-.85-6.4-1.8-9.57-2.85Zm7.95-.28c.65-2.22,.97-5.84-1.65-6.63-2.35-.72-4.45,2.13-5.45,4.45,2.35,.78,4.72,1.51,7.1,2.17Z"/><path d="M192.15,467c-1.09,4.79,.72,7.29,3.37,7.82,1.89,.38,3.11,.13,4.2-.26,0,.88,0,1.76,0,2.64-1.04,.41-2.78,.77-5.13,.3-4.57-.94-6.26-5.57-4.76-11.39,1.51-5.84,4.94-9.84,8.65-9.07,4.17,.84,4.38,6.63,3.78,10.26-.12,.73-.28,1.29-.37,1.65-3.27-.55-6.52-1.2-9.75-1.95Zm7.87-1.02c.44-2.27,.43-5.9-2.24-6.44-2.4-.5-4.22,2.54-5,4.94,2.4,.56,4.82,1.06,7.24,1.5Z"/><path d="M207.85,468.33h.06c.44-.64,1.03-1.44,1.51-2.09,1.62-2.11,3.18-4.25,4.69-6.42,.96,.09,1.92,.17,2.88,.25-1.9,2.6-3.9,5.16-5.98,7.68,1.59,4.12,3.34,8.21,5.24,12.28-1.1-.08-2.2-.17-3.3-.27-1.42-3.33-2.74-6.68-3.96-10.04-.52,.63-1.04,1.26-1.57,1.88-.33,2.48-.66,4.96-.98,7.44-.89-.12-1.78-.24-2.67-.37,1.43-9.65,2.87-19.31,4.3-28.96,.73,.11,1.47,.21,2.2,.3-.81,6.1-1.61,12.21-2.42,18.31Z"/><path d="M237.66,470.06c.49,7.37-3.18,10.81-6.83,10.85-4.1,.06-7.12-4.01-6.9-10.31,.23-6.68,3.21-10.49,6.81-10.55,3.73-.06,6.52,3.92,6.92,10.01Zm-11.14,.47c-.07,4.37,1.75,7.7,4.39,7.66,2.58-.04,4.36-3.38,4.15-7.87-.16-3.38-1.48-7.6-4.33-7.55-2.85,.04-4.15,3.96-4.21,7.76Z"/><path d="M240.53,465.44c-.16-2.06-.33-3.74-.54-5.38,.71-.05,1.41-.11,2.12-.18,.15,1.09,.3,2.18,.45,3.27h.06c.49-1.96,1.82-3.94,3.96-4.21,1.79-.21,4.82,1,5.92,7.75,.62,3.92,1.23,7.85,1.85,11.77-.9,.14-1.79,.27-2.69,.39-.53-3.8-1.06-7.6-1.6-11.39-.45-3.19-1.63-5.72-3.9-5.45-1.59,.19-2.66,1.99-2.89,4.04-.07,.46-.07,1.08,0,1.7,.38,3.98,.76,7.96,1.15,11.94-.9,.09-1.81,.16-2.71,.23-.39-4.84-.77-9.67-1.16-14.51Z"/><path d="M262.22,450.74c.46,1.86,.91,3.71,1.37,5.57,1.12-.27,2.23-.55,3.34-.85,.24,.89,.48,1.78,.72,2.67-1.13,.3-2.26,.59-3.4,.87,.86,3.48,1.71,6.97,2.57,10.45,.59,2.4,1.43,3.65,2.88,3.28,.68-.17,1.15-.43,1.44-.63,.27,.87,.55,1.73,.83,2.6-.43,.41-1.2,.83-2.22,1.09-1.24,.31-2.37,.03-3.22-.79-1-.87-1.66-2.54-2.18-4.83-.81-3.54-1.62-7.08-2.43-10.61-.68,.15-1.36,.3-2.04,.45-.19-.9-.39-1.8-.58-2.7,.67-.14,1.33-.29,2-.44-.36-1.55-.71-3.11-1.07-4.66,.67-.48,1.33-.96,1.99-1.44Z"/><path d="M266.94,445.78c.72-.21,1.44-.42,2.17-.64,1.22,3.97,2.44,7.94,3.67,11.91l.05-.02c.07-1.1,.38-2.15,.9-2.96,.49-.81,1.17-1.46,2.02-1.75,1.68-.55,4.91,.01,7.36,6.45,1.39,3.71,2.78,7.42,4.17,11.12-.86,.32-1.72,.63-2.58,.94-1.28-3.6-2.57-7.2-3.85-10.8-1.09-3.03-2.77-5.31-4.95-4.58-1.51,.5-2.21,2.44-2.06,4.47,0,.51,.14,1.04,.35,1.71,1.18,3.84,2.36,7.67,3.55,11.51-.87,.27-1.75,.53-2.62,.78-2.72-9.38-5.44-18.75-8.16-28.13Z"/><path d="M289.29,459.09c1.92,4.52,4.88,5.49,7.37,4.36,1.78-.8,2.65-1.72,3.31-2.68,.52,.71,1.03,1.42,1.56,2.14-.62,.94-1.84,2.26-4.05,3.26-4.31,1.93-8.42-.85-10.61-6.45-2.19-5.62-1.74-10.86,1.77-12.42,3.93-1.77,7.51,2.79,9.16,6.09,.33,.67,.53,1.21,.67,1.56-3.02,1.49-6.08,2.87-9.18,4.15Zm5.87-5.44c-.97-2.1-3.12-5.03-5.64-3.91-2.26,1-1.97,4.53-1.2,6.94,2.3-.95,4.58-1.96,6.84-3.03Z"/><path d="M304.39,445.86c-1.02-1.79-1.89-3.25-2.78-4.64,.62-.35,1.24-.71,1.86-1.08,.58,.91,1.16,1.81,1.73,2.71l.07-.04c-.3-2.03-.14-4.18,1.75-5.37,1.55-.98,3.62-.38,5.44,1.23l.05-.03c-.26-1.17-.3-2.19-.18-3.02,.17-1.22,.62-2.13,1.67-2.89,1.46-1.04,4.64-1.27,8.86,4.22,2.38,3.12,4.75,6.24,7.13,9.35-.73,.56-1.47,1.12-2.21,1.66-2.23-3.04-4.47-6.07-6.7-9.11-2.28-3.09-4.44-4.36-6.09-3.18-1.17,.83-1.23,2.71-.6,4.43,.18,.48,.48,1.07,.85,1.62,2.3,3.41,4.6,6.82,6.9,10.23-.76,.51-1.52,1.02-2.29,1.52-2.18-3.34-4.35-6.69-6.53-10.03-1.74-2.66-3.81-4.06-5.42-3.05-1.32,.83-1.36,2.96-.79,4.74,.15,.54,.41,1.1,.73,1.63,2.05,3.45,4.1,6.91,6.15,10.36-.78,.46-1.57,.92-2.36,1.37-2.41-4.22-4.82-8.43-7.23-12.65Z"/><path d="M337.31,426.65c5.15,5.3,4.42,10.48,1.51,13.01-3.25,2.85-8.3,1.77-12.19-3.19-4.12-5.26-4.2-10.19-1.35-12.7,2.96-2.6,7.78-1.51,12.04,2.88Zm-8.65,8.01c2.76,3.39,6.37,4.7,8.47,2.86,2.05-1.8,1.32-5.59-1.75-8.87-2.31-2.48-6.1-4.78-8.35-2.79-2.26,1.98-.77,5.85,1.63,8.8Z"/><path d="M333.37,416.74c3.31,1.97,6.66,3.88,10.05,5.74,1.66,.88,3.15,1.71,4.57,2.6l.07-.07c-.96-1.39-1.86-2.85-2.85-4.45-2.08-3.26-4.21-6.49-6.4-9.66,.6-.68,1.19-1.37,1.78-2.06,3.84,5.75,7.49,11.67,10.96,17.74-.63,.69-1.27,1.37-1.91,2.05-6.22-3.11-12.29-6.44-18.2-9.95,.65-.64,1.29-1.28,1.94-1.93Z"/><path d="M351.17,412.75c3.83,3.06,7.01,2.36,8.81-.02,1.28-1.7,1.67-3.01,1.85-4.25,.8,.37,1.61,.73,2.41,1.09-.15,1.2-.68,3.08-2.28,5.18-3.12,4.09-8.18,3.75-12.75-.14-4.58-3.92-6.55-8.9-4.01-12.22,2.83-3.75,8.23-1.57,11.26,.54,.61,.43,1.04,.81,1.33,1.05-2.13,3.02-4.34,5.95-6.62,8.77Zm2.97-8.13c-1.86-1.39-5.18-2.87-7-.48-1.64,2.14,.23,5.18,2.04,6.94,1.7-2.1,3.35-4.25,4.96-6.46Z"/></g></g></svg>