<svg id="Calque_1" data-name="Calque 1" xmlns="http://www.w3.org/2000/svg" viewBox="0 0 304.59 185.9"><defs><style>.cls-1{fill:none;}.cls-2{fill:#fff;stroke:#000;stroke-miterlimit:10;stroke-width:1.15px;}</style></defs><path d="M811.3,620.3c20.55-4.08,41.37.94,61.54,4.87a394.23,394.23,0,0,0,60.69,7.1,389.48,389.48,0,0,0,61.83-2.55c20-2.42,40.21-6.05,59.32-12.61,18.68-6.4,35.37-16.61,51.59-27.68,2-1.38,4-2.78,6.07-4.17.94-.64.05-2.2-.9-1.54-16.26,11.19-32.7,22.32-51.21,29.47-18.82,7.28-38.92,11.22-58.84,14a388.31,388.31,0,0,1-61.81,3.52,385.69,385.69,0,0,1-61.49-6.31c-19.73-3.66-39.79-9-60-6.89-2.44.26-4.85.63-7.25,1.11-1.13.22-.65,1.95.48,1.72Z" transform="translate(-808.15 -446.65)"/><path d="M809.25,592.85c18.9-6.08,38.87-5.24,58.46-4.82q31,.68,62,.52t62-1.12c10.17-.32,20.34-.68,30.5-1.15,8.57-.4,17.28-1.06,25.41-4s14.51-8,20.22-14.18,10.61-13,16.25-19.22c1.4-1.54,2.84-3,4.34-4.46.84-.79-.43-2.06-1.26-1.26-11.89,11.33-19.94,27.53-35,35.22-8,4.07-16.94,5.31-25.75,5.86-9.89.63-19.81.89-29.71,1.22q-30.74,1-61.48,1.25t-61.49-.36c-19.27-.37-39-1.71-57.91,2.76q-3.61.86-7.14,2c-1.1.35-.63,2.08.47,1.72Z" transform="translate(-808.15 -446.65)"/><path d="M838.31,582.58a4.75,4.75,0,0,1-2.14-5.55,4.59,4.59,0,0,1,8.76,0c.67,2.1-.06,4-2.13,5.54l1.92,1.58c1,.84,2.06,1.66,3.08,2.52a1.42,1.42,0,0,0,1,.37c2.17,0,4.33,0,6.49,0a3,3,0,0,1,3,3.14,2.74,2.74,0,0,1-1.79,2.51.59.59,0,0,0-.43.66q0,12.35,0,24.69a2.56,2.56,0,0,1,0,.62.59.59,0,0,1-.67.48.6.6,0,0,1-.6-.58,5.43,5.43,0,0,1,0-.57V592.92h-.57c-2,0-4,0-6,0a4.66,4.66,0,0,1-3.45-1.25l-.37-.29a.31.31,0,0,0-.13,0c0,.14,0,.28,0,.41,0,1.43,0,2.86,0,4.29a1.29,1.29,0,0,0,.22.71c1.29,1.9,2.56,3.83,3.94,5.68a11.61,11.61,0,0,1,2.13,5c.49,2.67,1.1,5.31,1.66,8a2.92,2.92,0,1,1-5.69,1.26c-.63-3-1.25-5.94-1.9-8.9a3.92,3.92,0,0,0-.52-1.21,10.09,10.09,0,0,0-1.28-1.68,7.93,7.93,0,0,1,0,1.09,10.11,10.11,0,0,1-.45,2.2c-1.23,3.06-2.52,6.1-3.81,9.14a2.88,2.88,0,0,1-4.59,1.14,3,3,0,0,1-.75-3.48c1.07-2.58,2.13-5.16,3.24-7.71a6.61,6.61,0,0,0,.55-2.74c0-6.09,0-12.19,0-18.28A4.24,4.24,0,0,1,838.31,582.58Zm13.13,9h0c1.32,0,2.64,0,4,0a1.55,1.55,0,0,0,1.52-1.22,1.57,1.57,0,0,0-.82-1.73,2.29,2.29,0,0,0-1-.21c-2.16,0-4.32,0-6.48,0a2.21,2.21,0,0,1-1.55-.55c-1.66-1.4-3.35-2.77-5-4.13a2.23,2.23,0,0,0-3.56.77,3.38,3.38,0,0,0-.23,1.31q0,9.93,0,19.86a2.73,2.73,0,0,1-.2,1q-1.81,4.38-3.64,8.74a1.66,1.66,0,0,0,.76,2.25,1.57,1.57,0,0,0,2.11-1c1.26-3,2.53-6,3.76-9a5.63,5.63,0,0,0,.35-1.78c.05-1,0-2.09,0-3.13,0-.38.07-.73.47-.86s.67.1.9.44c.88,1.29,1.79,2.57,2.67,3.87a2.22,2.22,0,0,1,.32.74c.28,1.25.53,2.51.8,3.77q.6,2.89,1.23,5.79a1.59,1.59,0,0,0,1.49,1.27,1.48,1.48,0,0,0,1.5-1,2.69,2.69,0,0,0,0-1.13c-.55-2.69-1.17-5.36-1.68-8.06a10,10,0,0,0-1.78-4.19c-1.47-2-2.83-4-4.22-6.07a1.54,1.54,0,0,1-.28-.79c0-2.15,0-4.31,0-6.46a.79.79,0,0,1,.4-.81c.34-.17.61,0,.86.22.54.44,1.1.88,1.63,1.33a3.08,3.08,0,0,0,2.19.78C849.08,591.55,850.26,591.57,851.44,591.57Zm-7.63-13.05a3.26,3.26,0,1,0-3.27,3.26A3.28,3.28,0,0,0,843.81,578.52Z" transform="translate(-808.15 -446.65)"/><path d="M1039.56,606.9l9.24-.3a24.59,24.59,0,0,1-2.61-2.11,9.49,9.49,0,0,1,1.72-14.46c.5-.31.64-.57.41-1.15-.43-1-.78-2.13-1.21-3.33-.54.74-1,1.37-1.47,2l-5.26,7.33a1.68,1.68,0,0,0,.31,2,3.79,3.79,0,0,0,2.23,1.12c.18,0,.32.37.48.57-.19.13-.36.34-.57.38-.53.1-1.1-.16-1.6.44-.19.24-.84.1-1.28.06-.66-.05-1.1,0-1.34.86a2.24,2.24,0,0,1-2.39,1.5,2.47,2.47,0,0,1-2.07-1.73,2.64,2.64,0,0,0-.32-.67,9.61,9.61,0,0,1-6.18,7.4l1.24.21v.15a12.14,12.14,0,0,1-1.67.22q-6.3,0-12.61,0c-.18,0-.36-.19-.53-.3.16-.09.32-.25.49-.26,2.47-.09,4.94-.16,7.33-.23-5.95-2.8-6.31-9.71-4.15-13.46a8.5,8.5,0,0,1,12.55-2.65c.66-.63,1.32-1.23,1.93-1.88a1,1,0,0,0,0-.76,22,22,0,0,0-.91-2.89,8.8,8.8,0,0,0-1.15-1.61c-.8-1.11-1.62-2.2-2.39-3.33a4,4,0,0,1-.42-3.26,9.65,9.65,0,0,1,6.07-6.94,14.13,14.13,0,0,1,7.31-1.08c1.08.12,1.19-.09,1-1.26a2.89,2.89,0,0,0-.84-1.76.93.93,0,0,1-.18-1.19,5.51,5.51,0,0,0,.16-1.61,4.43,4.43,0,0,1,1-.11,15.63,15.63,0,0,1,3.14.31,3.81,3.81,0,0,1,2.63,3.67c0,.54-.15.8-.64.55a2.54,2.54,0,0,0-.65,2.3,9.67,9.67,0,0,0-.87.93.89.89,0,0,1-1.1.43,12.08,12.08,0,0,0-1.34-.38,3.07,3.07,0,0,0-.75.07c.31.8.61,1.51.86,2.25.38,1.15.7,2.32,1.11,3.45a2.37,2.37,0,0,0,.77.9c1,.77,2,1.47,2.93,2.26a5,5,0,0,0,2.52,1.35,1.14,1.14,0,0,1,.3.09,1.28,1.28,0,0,1,.87,1.57,1.43,1.43,0,0,1-1.83.54,11.28,11.28,0,0,0-2.18-.36l-.12.23,2.2,6.11a8.34,8.34,0,0,1,8.09,1.93,9.07,9.07,0,0,1,2.83,5.26,9.4,9.4,0,0,1-5.9,10.54l.86.22v.21a99.72,99.72,0,0,1-16.12,0Zm8.62-14.44c-.21-.08-.51-.28-.59-.21a7.37,7.37,0,0,0-2,3.12c1.7.6,3.34,1.19,5,1.75a1.54,1.54,0,0,0,.52,0,1.48,1.48,0,0,0-.13-.53c-.91-1.38-1.83-2.74-2.75-4.11l.94.79-.63-1.18.11-.07,1.8,3.18.15-.08-1.42-4-1.17.74Zm10.63,3a5.86,5.86,0,0,0-2-3.37,17.93,17.93,0,0,0-3.52,5,3,3,0,0,0,.68,0c1.19-.38,2.37-.78,3.56-1.18l1.32-.45-1.09.62,0,.09.91-.16a1.56,1.56,0,0,1-.6.28c-1.33.44-2.66.87-4,1.32-.15.06-.26.25-.38.38.12.1.22.26.36.31,1.52.55,3.05,1.08,4.57,1.62.39.14.59,0,.59-.43,0-1.12,0-2.25-.1-3.37A2,2,0,0,0,1058.81,595.46Zm-40.3-.16a7.83,7.83,0,0,0-.28,4.64c.46-.12.79-.18,1.11-.28l4-1.32c.13,0,.23-.21.34-.33-.11-.12-.2-.29-.33-.35-1.13-.44-2.26-.87-3.4-1.27-.43-.16-.88-.25-1.32-.37l0-.13,1.15.25v-.07l-1.09-.65.66.22c1.35.49,2.7,1,4.06,1.48a1.52,1.52,0,0,0,.52,0,3,3,0,0,0-.13-.54,19.63,19.63,0,0,0-3.15-4.54A7,7,0,0,0,1018.51,595.3Zm30.75-13.42,0-.23-.75-.3c-1.4-.59-2.78-1.21-4.19-1.76a4.38,4.38,0,0,1-2.48-2.72c-.36-.9-.88-1.73-1.3-2.55-2.67,1-5.41,1.55-7.39,3.83a4,4,0,0,0,.39.48,24.47,24.47,0,0,1,4.85,7.16c.17.39.4.29.68.21l4.51-1.4,2.83-.89c-.14-.32-.26-.58-.36-.83s-.18-.49-.27-.74a2.2,2.2,0,0,1,.66-.24C1047.41,581.87,1048.33,581.88,1049.26,581.88Zm-28,9.76c.24.42.44.82.68,1.19.75,1.15,1.5,2.29,2.26,3.43.08.12.26.18.39.27a1.42,1.42,0,0,0,.21-.43c.05-1.27.08-2.53.1-3.79,0-.53,0-1.07-.07-1.6h.15l.06,1.28h.11l.19-1.25v5.42c1.34-1.41,2.84-2.63,3.63-4.48C1027.2,590,1023.38,590,1021.3,591.64Zm18,1.94.26,0,5.71-7.91-.08-.12-6.63,2Zm13.26,3.06a18.84,18.84,0,0,0,3.58-5,6.72,6.72,0,0,0-5.83-1l1.59,4.42.14,0V590.8h0l.11,1.31h.12l.17-1.41A23.89,23.89,0,0,0,1052.6,596.64Zm-4.81,7.28c1.13-1.51,2.22-2.94,3.29-4.38a.74.74,0,0,0,.05-.55c0-.09-.26-.15-.4-.14a3.25,3.25,0,0,0-.81.17c-1.44.49-2.88,1-4.37,1.52A7.68,7.68,0,0,0,1047.79,603.92Zm8.43.36c-1-1.5-2-2.92-2.89-4.37-.33-.52-.66-.62-1.16-.3l0,.62h.08l.1-.41h.1v5.72A6.66,6.66,0,0,0,1056.22,604.28Zm-10.85-4.23c1.72-.57,3.35-1.1,5-1.65.17-.06.3-.25.45-.38-.15-.14-.28-.34-.45-.4-1.49-.54-3-1.06-4.5-1.58-.33-.12-.52,0-.57.38A9.75,9.75,0,0,0,1045.37,600.05Zm-24.72,3.79c.63-.77,1.24-1.45,1.79-2.19s1-1.52,1.47-2.29a.64.64,0,0,0,.06-.43c0-.07-.21-.15-.3-.13a19.06,19.06,0,0,0-5.19,1.88A7.36,7.36,0,0,0,1020.65,603.84Zm38.24-3.14c-.36-.16-.63-.3-.9-.4-1.38-.51-2.75-1-4.14-1.51-.12,0-.29.05-.44.08a1.75,1.75,0,0,0,.09.41,9.18,9.18,0,0,0,.68,1.23c.8,1.15,1.63,2.28,2.46,3.44A7.5,7.5,0,0,0,1058.89,600.7ZM1029.48,604a7,7,0,0,0,2.27-3.27c-1.81-.8-3.46-1.88-5.42-1.85l-.17.23Zm-.38.29c-1-1.48-1.89-2.89-2.83-4.27a2.61,2.61,0,0,0-.7-.57c0,.26-.11.53-.16.8a1.28,1.28,0,0,0-.06.33v4.94A6.29,6.29,0,0,0,1029.1,604.28Zm-4.22,1.23c0-2,0-3.87,0-5.75a.4.4,0,0,0-.17-.3.39.39,0,0,0-.31.11,20.46,20.46,0,0,0-3.18,4.77A6.31,6.31,0,0,0,1024.88,605.51Zm26.76-6.31-3.4,5.06a6,6,0,0,0,3.55,1.24,23.16,23.16,0,0,0,.26-5.75C1052,599.61,1051.85,599.48,1051.64,599.2Zm-15.59-9.57a10.89,10.89,0,0,0-1,1.22,1.49,1.49,0,0,0-.17,1c.41,1.46.88,2.91,1.35,4.35a.74.74,0,0,0,1.29.28,1.66,1.66,0,0,0,.21-2.17A13,13,0,0,1,1036.05,589.63Zm-8.67,7.59,0-.19c.66-.21,1.34-.39,2-.64a1.07,1.07,0,0,0,.54-.49c.3-.67.54-1.38.82-2.06a.64.64,0,0,0-.32-.9l-3.79,4.42c.75.1,1.35.21,2,.26a.61.61,0,0,0,.46-.2,7.52,7.52,0,0,0,.58-.85Zm6.45-4.48-.23,0c-.21.46-.64.95-.59,1.37a31.62,31.62,0,0,0,.78,3.6c0,.16.21.28.32.42.32-.46,1-1,.89-1.37A37.68,37.68,0,0,0,1033.83,592.74ZM1032,600c.06-.75-1.53-1.21-3.38-.9Zm0-4.49c-.56.84-.6,1.45.33,2Zm5.54,5.19.59-1.14-.94.11Zm-1.84-.06,0,.19,1.13.09-.5-.8Z" transform="translate(-808.15 -446.65)"/><path d="M939,595.83c-.17,1.28-.33,2.55-.49,3.82s-.25,2.33-.46,3.47a9.75,9.75,0,0,1-.7,2.14c-.57,1.3-1.27,2.53-1.79,3.84a29,29,0,0,0-.91,3.13.61.61,0,0,0,.39.84c.43.15.86.31,1.27.49a2.08,2.08,0,0,1,.74,2.22.62.62,0,0,1-.31.31,4.42,4.42,0,0,1-3.63.12,1.08,1.08,0,0,0-1.15.12l-.8.6a1.17,1.17,0,0,1-1.74-.32,2.27,2.27,0,0,1-.59-1.89,1,1,0,0,0-.11-.43c-.42-1.17-.8-2.37-1.28-3.51-.34-.84-.8-1.61-1.25-2.47a4,4,0,0,0-.3.4c-.16.28-.36.32-.58.1a.42.42,0,0,0-.68,0c-.16.15-.46.11-.77.17a1.43,1.43,0,0,0-.08.24,3.27,3.27,0,0,1-1.17,1.93c-.58.46-1.17.92-1.78,1.33a.65.65,0,0,0-.32.79c.2,1,.36,2.07.53,3.11.07.44.15.93-.27,1.22s-1,.49-1.43.07a4.44,4.44,0,0,1-.87-1.09,9.11,9.11,0,0,1-1-3.65,1.06,1.06,0,0,1,.28-.77,8.62,8.62,0,0,1,1-.74.86.86,0,0,0,.19-.19c.57-.71,1.13-1.43,1.7-2.15a3.2,3.2,0,0,0,.24-.41c-.36,0-.71.18-.94-.24,0,0-.24,0-.37.06s-.41.24-.63,0c0,0-.2,0-.26.06-.31.37-.58.27-.86-.08a24.76,24.76,0,0,0,1.9-6.43l-.27-.18A1.36,1.36,0,0,1,919,600a1.06,1.06,0,0,0,.06-.8,10.76,10.76,0,0,1-.55-5.07c.26-1.26.59-2.51.89-3.77a5,5,0,0,0,.15-.9l-1.05,1.35-.08,0c0-.23.08-.46.1-.69.08-1.05.16-2.09.22-3.14a10.6,10.6,0,0,0,0-1.26,2.51,2.51,0,0,1,1.23-2.54,1.06,1.06,0,0,0,.52-1.13,5.33,5.33,0,0,1,.42-2.53c.91-2.15,2.79-2.9,4.63-1.82a4,4,0,0,0,1.4.6c.6.11.7.46.38,1.05a.73.73,0,0,0,0,.39,14.32,14.32,0,0,1,.21,1.42c0,.87,0,1.74,0,2.6,0,.14,0,.27,0,.4a2.65,2.65,0,0,1-1.74,2.63c.69.53.86.56,1.27.14a2.47,2.47,0,0,0,1.94,1.19c-.62.55-.3,1-.15,1.4.48,1.33.95,2.66,1.46,4a.82.82,0,0,0,.48.47c.78.18,1.58.29,2.46.45-.42-.92-.79-1.71-1.14-2.51a11.27,11.27,0,0,1-1.19-4.32,20,20,0,0,1,.29-3c.06-.42.13-.76-.36-.86a39,39,0,0,1,1.43-6.79,4.2,4.2,0,0,1,1.45-2,23.17,23.17,0,0,1,2-1.41,1.86,1.86,0,0,0,.87-1,1.6,1.6,0,0,1,.89-1,.44.44,0,0,0,.27-.58.76.76,0,0,1,0-.15c-.07-.9-.07-.9-.8-1.14l-.32-.12c0-.05,0-.1,0-.11.46-.4.35-.86.18-1.4-.26-.85-.45-1.73-.63-2.61a5.72,5.72,0,0,1,.29-2.9,3.65,3.65,0,0,1,3.92-2.76,7.24,7.24,0,0,1,1.45.26,2.49,2.49,0,0,1,1.88,2,4,4,0,0,0,.54,1.1,6,6,0,0,1,.66,1.86c.11.52-.33.42-.54.45-.11.56-.24,1.08-.31,1.61a4.83,4.83,0,0,0-.05,1.2c.23,2.12-1,3.18-2.26,4.2-.24.2-.68.08-.89.09.17.42.38,1,.62,1.55a.83.83,0,0,0,.28.28c.65.5,1.33,1,2,1.5a2.6,2.6,0,0,1,.63,1c.52,1.58,1,3.18,1.48,4.77,0,.19.12.37.22.68a19.33,19.33,0,0,0,.37-2.09,3.88,3.88,0,0,1,2-3.13l.35-.22.07-.16c-.41.08-.75.13-1.08.23s-.65.25-1,.34a8.83,8.83,0,0,0,1.74-3l-1.31.44.21-.31a10,10,0,0,0,2.18-5.67c0-.42.09-.83.11-1.25a3.85,3.85,0,0,1,4.89-3.45,7.6,7.6,0,0,1,1.7,1,2,2,0,0,1,.56,1,8.86,8.86,0,0,1,.35,4,10.74,10.74,0,0,0-.16,1.69,12.2,12.2,0,0,1-.4,3.52,2.65,2.65,0,0,0,.21,1.84,8.71,8.71,0,0,1,.48,1.3l-3.66-3c-.11.26,0,.44.25.65.91.78,1.81,1.6,2.69,2.43.13.12.14.4.19.61a11.4,11.4,0,0,1,.14,3.64,34.55,34.55,0,0,0,.59,8.68,1.15,1.15,0,0,0,.09.28c.21.46.43.92.62,1.31,0-.29.1-.7.19-1.09.26-1,.54-2.08.81-3.12a1.85,1.85,0,0,1,1-1.27l0,0a3.86,3.86,0,0,0,1.92-1.74,5,5,0,0,1-2-3.21,6.69,6.69,0,0,1,.4-3.44,2.19,2.19,0,0,1,2.34-1.57,1.52,1.52,0,0,0,.63-.19,3.26,3.26,0,0,1,.68-.28c1.75-.2,3.21,1.27,3.3,3.32,0,.61,0,1.23,0,1.91-.55-.14-.62.27-.59.61.15,1.8-.37,3.12-2,3.78l.48.35c.5.36,1,.71,1.51,1.09a2,2,0,0,1,.73,1.47A42.52,42.52,0,0,1,968,594c0,.89-.1,1.78-.09,2.68a2.23,2.23,0,0,0,.47,1.63,2.61,2.61,0,0,1,.42,1.24c.09.54-.64,1.21-1.23,1.2s-.86-.28-1-1c-.07-.39-.07-.39-.4-.27.31,4.07.63,8.13.94,12.21l-.59.3c.24.25.47.43.66.66a8.21,8.21,0,0,1,.85,1.18,1,1,0,0,1-.31,1.29,2.24,2.24,0,0,1-2.56,0,1.57,1.57,0,0,0-.24-.21c-.74-.38-.78-1.08-.69-1.89a12.31,12.31,0,0,0,.08-1.72c-.06-1.86-.11-3.72-.26-5.56a18.82,18.82,0,0,0-.64-3.28c-.18,1-.33,2-.56,3a29.26,29.26,0,0,0-.44,5.69,3.26,3.26,0,0,1-.22.78l-.22,0c.28.55.53,1.13.84,1.66.57,1,.35,1.64-.65,1.88a2.65,2.65,0,0,1-.69.05,7.09,7.09,0,0,1-.71-.1.61.61,0,0,1-.52.87c-1.34.3-2.64.37-3.75-.81a4.35,4.35,0,0,0-.58-.46v.69c-.64.21-.77.07-.78-.65,0-.41-.11-.83-.12-1.24a3.7,3.7,0,0,1,.11-1.21,2.81,2.81,0,0,0,.09-1.57c-.6-2.81-1.21-5.62-1.79-8.43-.11-.52-.29-.81-.8-.79-.83,0-1.67,0-2.5,0-.15,0-.36.2-.43.36q-1.32,3.2-2.59,6.42a1.33,1.33,0,0,0-.1.62c.1,1,.2,1.93.38,2.87a3.32,3.32,0,0,0,.5,1c.1.16.25.28.34.45.22.39.15.8-.23.87-.71.12-1.23.68-1.88.92a14.88,14.88,0,0,1-2,.59,3.89,3.89,0,0,1-.9,0,2.71,2.71,0,0,1-.75.2,6.84,6.84,0,0,1-1.42-.2.65.65,0,0,1-.4-.44,12.28,12.28,0,0,1-.3-2.26c0-1,.2-2,.26-3.06.16-2.63.29-5.25.42-7.88a.73.73,0,0,0,0-.29q-.94-3.06-1.92-6.12Zm-11.12-4.09-.1,0c0,.17,0,.35,0,.53-.11.81-.23,1.62-.32,2.43s-.17,1.61-.24,2.42a.71.71,0,0,0,.09.38,15.48,15.48,0,0,1,1.92,5.49c.34,1.9,1.62,2.92,2.74,4.2.65-1.35,1.28-2.62,1.89-3.91a1.53,1.53,0,0,0,.08-.54c.09-1.58.16-3.17.26-4.76a.56.56,0,0,0-.3-.57c-.25-.16-.58-.39-.65-.67a.7.7,0,0,0-.73-.6l-2.33-.28a1.11,1.11,0,0,1-1-.85C928.72,593.92,928.27,592.83,927.84,591.74Zm31.59,21.93c.24-4.32.8-8.65.81-13a5.56,5.56,0,0,0-3.86.28c0,.8,0,1.55,0,2.3.19,2.36.42,4.72.64,7.08a1.18,1.18,0,0,0,.09.38A9.51,9.51,0,0,0,959.43,613.67Zm-13.78-19.15-.35.17a1.09,1.09,0,0,1-1.37-.73,2.08,2.08,0,0,1,.39-2,1.12,1.12,0,0,0,.3-.89c0-1.05-.11-2.11-.08-3.16a8.75,8.75,0,0,0-.73-3.11s0-.13-.06-.13c-.51-.08-.41-.66-.59-1a7.59,7.59,0,0,1-.3-.84,2.39,2.39,0,0,0-.17.8c-.14,1.83-.26,3.66-.41,5.49a1.32,1.32,0,0,1-.18.45c.16.36.37.69.49,1,.29.91.57,1.82.81,2.75s.49,2.08.76,3.21Zm2.86-12.28c-1.49,3.52-1.78,7.27-2.08,11.16a3.57,3.57,0,0,0,.93-1.75,8.48,8.48,0,0,1,1.34-3.6.76.76,0,0,0,.11-.26C949.36,585.9,948.85,584.1,948.51,582.24Zm8.93,13.39a8.83,8.83,0,0,0,.67,2.26,20.18,20.18,0,0,0,2.06,2.46l.13-.07-.2-1.06-.14,0a24.23,24.23,0,0,0,.48-6.13,3.43,3.43,0,0,0-.31.56c0,.08-.11.24-.14.23-.5-.15-.61.36-.77.67a1.66,1.66,0,0,1-1.5,1A1.51,1.51,0,0,0,957.44,595.63Zm-12.73,12.46.12.08a3.68,3.68,0,0,0,.45-.73,13.9,13.9,0,0,0,.52-1.81c.27-1.32.51-2.66.75-3.94l-1.63-1Zm-24.34-8.76.33-.67c.26-.51.75-.9.53-1.62,0-.08,0-.19.08-.28a3.61,3.61,0,0,0,.12-.55,6.85,6.85,0,0,0-.06-1.2c-.14-.8-.33-1.58-.5-2.36l-.14,0c-.28.72-.57,1.43-.84,2.15a.82.82,0,0,0,0,.38C920,596.53,920.18,597.86,920.37,599.33Zm14.25-15.78h0c-.1.38-.1.93-.32,1.1-.39.32-.28.75-.4,1.12-.05.19-.06.39-.11.59-.37,1.53.16,2.94.39,4.47a2.39,2.39,0,0,0,.41-1.51c-.06-.9,0-1.8,0-2.71S934.62,584.57,934.62,583.55ZM920.48,588l.14.12a8.94,8.94,0,0,0,.71-.67c.23-.26.42-.53.62,0a1.94,1.94,0,0,0,.24-.11l.21-.16a5.64,5.64,0,0,0-1.53-3.18C921.14,585.36,921.31,586.72,920.48,588ZM930,611.13,931.5,608l-.13-.17-.46.3c-.1.06-.21.15-.29.14-.4-.07-.79-.19-1.07.29,0,0-.09,0-.14.06Zm25.24-22.58.17,0-.21-2h-.11ZM930,611.17l.21,1,.41-.75Z" transform="translate(-808.15 -446.65)"/><path d="M994.37,566.05a4.29,4.29,0,0,0-2.24,3.13,19.64,19.64,0,0,0-.47,6.25c.25,2.88.49,5.75.77,8.63.11,1.06.33,2.11.52,3.24-.28,0-.51.05-.74.05-1.93,0-3.86,0-5.79,0-.55,0-.77-.12-.73-.66.23-2.68.35-5.37.66-8,.38-3.22.91-6.42,1.36-9.63.35-2.58.63-5.17,1-7.74.15-1-.5-1.49-1-2.13a3.73,3.73,0,0,0-.36-.32c-1.16-1.09-1.53-1.16-3.33-.69a2.33,2.33,0,1,1-1.69,2.26c-.37-.54-.3-1,.39-2.08l-1.93.73c.44.45,1,.81,1.22,1.3a3,3,0,0,1-.32,2.82,3.67,3.67,0,0,1-2.46-3.24L977,562.11l.1.07,2.25-.57-.3,1.37a11.79,11.79,0,0,1,1.86.51,9,9,0,0,1,1.48,1.08,3.52,3.52,0,0,1-3.91.35,1.88,1.88,0,0,1-1,2.38,2.3,2.3,0,0,1-2.65-.68,4,4,0,0,1-1.77,2.54l-.91-2.17a4,4,0,0,1-3.07,1.38,2.74,2.74,0,0,1,1.22-2.76,1.86,1.86,0,0,0,.79-.78,23.07,23.07,0,0,1,1.74-2.26l-1.7-.64.55-.91c.58-.33,1.14-.7,1.74-1,1.48-.72,2.43-.4,3,.94l3.24-3.14h-1.13a4.12,4.12,0,0,1,1.7-3l-2.64-.17a1.79,1.79,0,0,1,.45,2.39,15.68,15.68,0,0,1-1.67,2.17c-.29.35-.52.22-.71-.16a4.67,4.67,0,0,1-.16-4.13l-1.69.53c.7.38,1.24.71,1.15,1.43a3.62,3.62,0,0,1-2.46,2.51,5,5,0,0,1-.27-3.2l-2.38,1.8c1.18-.14,1.77.14,2.17,1.06a2.08,2.08,0,0,1-.34,2,.59.59,0,0,0-.2,0,2,2,0,0,1-2.44,0,1.66,1.66,0,0,1-.59-2.25,3.16,3.16,0,0,1-2.67-1.46l1.51-.55-1.26-.73a4.4,4.4,0,0,1,3-1.51,1.28,1.28,0,0,1,1.4,1c0,.16.06.33.11.6l1.19-1a2.42,2.42,0,0,1-2.15-1.52c-.34-.78-.56-1.6-.84-2.42,2.32-.31,4.45,1.3,4.27,3.14l1.81-.77c-1.27-2.7-5-3.91-8.19-2.64.58.23,1.26.41,1.19,1.09a3.5,3.5,0,0,1-.5,1.53A10.4,10.4,0,0,1,966,555l-.67-1.57c-.43.82-.78,1.64-1.83,1.85a1.42,1.42,0,0,1,1.09,1.78,1.86,1.86,0,0,1-2.18,1.47c-1.11-.11-1.7-.86-1.66-2.25a4.5,4.5,0,0,1-2.55,1.61c-.52.12-.59,0-.56-.45a3,3,0,0,1,1.55-2.8c-.51-.24-1-.44-1.44-.67s-.37-.41,0-.6c.75-.45,1.51-.86,2.25-1.28-1.25-1.27-1.33-2.34-.17-3.1a7.71,7.71,0,0,1-1-1,7.28,7.28,0,0,1-.56-1.31,2.12,2.12,0,0,1,2.82,1.56l4.12-.65-1-1.27a1.9,1.9,0,0,0-.14.24,1.37,1.37,0,0,1-2.11.89,4.51,4.51,0,0,1-2-1.83,4.66,4.66,0,0,1,3.75,0l-.48-1.81a7,7,0,0,1-.53.6,1.7,1.7,0,0,1-2.14.06,4.89,4.89,0,0,1-1.6-3.63,5.64,5.64,0,0,1,4.17,2c.18-.71.35-1.36.52-2a.91.91,0,0,1,.13-.37,2.43,2.43,0,0,1,.38-.33,1.37,1.37,0,0,1,.17.49c0,.93-.08,1.86-.12,2.79a3.41,3.41,0,0,0,.12.47,12.5,12.5,0,0,1,.33-1.48,10.83,10.83,0,0,1,.64-1.21A3.19,3.19,0,0,1,967,544a1.22,1.22,0,0,1-1.5.88,5.06,5.06,0,0,1-.67-.17l-.16.12,2.05,2.39.17-.08a3.66,3.66,0,0,1,.81-3.57,7.51,7.51,0,0,1,1.08,1.37,2.6,2.6,0,0,1,.34,1.56c-.08.45-.58.84-.92,1.29.44.11.94.22,1.43.35a12.87,12.87,0,0,1,6.78,4.36,1.38,1.38,0,0,0,1.41.57,12.9,12.9,0,0,1,4.78.53l.72.19a8.48,8.48,0,0,1-.25-1.85c.06-.75.67-1.08,1.56-1a1.7,1.7,0,0,1-1.71-.71c-.3-.52-.5-1.08-.81-1.74l1.29.08a6.87,6.87,0,0,0-4.65-.4l1.11.86c.1-.09.23-.24.38-.36.55-.43,1.5-.23,1.62.39a2.78,2.78,0,0,1-.59,2.53l-1.45-1.68a4.3,4.3,0,0,1-2.9,2.07,3.84,3.84,0,0,1,.7-3.47c-.4.14-.65.22-.9.32s-.79.64-1.14-.06c0-.07-.31,0-.46,0-.67-.19-1.34-.38-2-.63-.4-.14-.43-.47,0-.62a11.38,11.38,0,0,1,2.07-.59.75.75,0,0,1,.91.66c.09.72.44.65.94.34.11-.06.21-.14.39-.26a2.44,2.44,0,0,1-2-1.8c-.15-.35,0-.6.42-.52a5.56,5.56,0,0,1,1.87.52c.37.23.47.83.69,1.27l-.15.2,1-.25a11.88,11.88,0,0,1-1-1.12,11.32,11.32,0,0,1-.67-1.35c1.21,0,2.26,0,2.88.84.22.3,0,.86,0,1.37h1.44a4,4,0,0,1-1.45-3.32,3.93,3.93,0,0,1,3.2,1.52c.37.73,0,1.41-.8,1.8l3.83,1.48c-.16-2.18-8.29-8-10.12-7.16.77,1.58.58,2.26-1,3.27a18,18,0,0,1-2.1,1,5.13,5.13,0,0,1,.26-3,2.15,2.15,0,0,1,2.37-1.53l0-.24c-.64-.18-1.27-.4-1.92-.52-.13,0-.4.27-.51.46a6.49,6.49,0,0,0-.33.87c-.37.86-.78,1.11-2,1.27.07,0,.12.1.18.11,1.11.23,1.46.66,1.34,1.67a1.74,1.74,0,0,1-1.89,1.51c-1.08,0-1.8-.52-1.9-1.4a3.48,3.48,0,0,1,0-.79c.08-.67.46-1,1.18-.95h.35a5.48,5.48,0,0,1,.76-1.88,12.21,12.21,0,0,1,1.88-1c-1.56-.38-3-1-4.67-.78,0,0,.11.11.15.1a1.22,1.22,0,0,1,1.54.72,1.89,1.89,0,0,1-.58,2.1,2.16,2.16,0,0,1-2.51,0,1.76,1.76,0,0,1-.46-2.26,3,3,0,0,1,1-.66,1.4,1.4,0,0,1-1.31-.73c-.27-.49-.47-1-.71-1.55a2.22,2.22,0,0,1,2.88,1.63l4.26.37-1.31-2a1,1,0,0,1-.1.39c-.22.31-.42.8-.72.86a2.1,2.1,0,0,1-1.44-.21,2.77,2.77,0,0,1-1.09-2.13c0-.28,0-.56-.07-.92a4.65,4.65,0,0,1,3.33,1.67l-.15-1.9a5.55,5.55,0,0,1,4,2c.58.83.21,1.67-1,2.37l2.67.58c-.06-1.76,1-2.64,3.18-2.65.3.94-.38,2.23-1.64,3,1.18.5,2.37.94,3.48,1.51s2.16,1.27,3.26,1.93a14.51,14.51,0,0,1,.37-2.8,4.39,4.39,0,0,0-.27-3.19,10.81,10.81,0,0,0-.62-1.14l-1.19.51c.5.19,1,.24,1.3.52a1.81,1.81,0,0,1,.33,1.16,1.6,1.6,0,0,1-1.25,1.59,2.09,2.09,0,0,1-2.15-.49,1.75,1.75,0,0,1-.24-2c.19-.35.75-.53,1-.72a1.32,1.32,0,0,1-1.38-.72,13.73,13.73,0,0,1-.72-1.64c1.73-.07,2.62.5,2.92,1.82l.9-.45a6.28,6.28,0,0,0-3.78-2.18l-2.84-.58.35,1.15.47-.19a1.57,1.57,0,0,1,1.88.56,1.37,1.37,0,0,1-.63,1.77,5,5,0,0,1-3.45.44l.82-1.74h-3.15a3.87,3.87,0,0,1,3-2.4,4.94,4.94,0,0,1-1.68-2.65,4.91,4.91,0,0,1,3.53.62c.81.56.8,1.15,0,2.28h2a12.23,12.23,0,0,1-1.23-1.94,13.45,13.45,0,0,1-.49-2.28,6.92,6.92,0,0,1,3.06.92l.46.41c1.22,1.08,1,2.3-.57,2.92-.06,0-.09.09-.13.15l1.63.62a8.81,8.81,0,0,1,0-1.16c.14-1.23.25-2.46,1.45-3.3l-.69-.72c-.31,1.12-1.17,1.23-2.17,1.1-1.07-1.31-.69-2.77,1.26-4.34.35.82.68,1.58,1,2.34.31-.48.61-1,.92-1.43a2.32,2.32,0,0,1,1,2.69,1.81,1.81,0,0,1,1.82.6,2.61,2.61,0,0,1,.51,1.11,1.83,1.83,0,0,1-1.55,1.86,2.14,2.14,0,0,1-2.37-1.47,4.7,4.7,0,0,0,.71,4.24c.55.7,1,1.46,1.57,2.26l.75-.87c-.8-.09-1.44-.31-1.51-1.08a3.46,3.46,0,0,1,1-2.68,3.53,3.53,0,0,1,1.44,2.86l1.68-1s0-.12,0-.12c-1.52-.33-2-1-1.58-2.37a5.54,5.54,0,0,1,1.84-2.74c1.33.86,1.73,3.42.73,4.88.49-.09.94-.14,1.35-.26.1,0,.22-.38.16-.44-1-1.08-.39-2,.33-2.89a9.91,9.91,0,0,1,1.31-1.17c1.19,1.48.95,3.6-.49,4.31.54.07,1,.23,1.28-.37a1.29,1.29,0,0,1,1-.52,16.08,16.08,0,0,1,2.47.48c.1,0,.19.48.13.51a13,13,0,0,1-2.33,1.17c-.32.1-.83-.25-1.25-.4-.22-.07-.47-.26-.66-.22-1.13.24-2.24.54-3.53.86l.85.84a2.38,2.38,0,0,1,3-.7c.14.11,0,.56-.08.84l-2.14,1a1.74,1.74,0,0,1-.53,2.2,2.22,2.22,0,0,1-2.39,0,1.68,1.68,0,0,1-.57-2.23,5.63,5.63,0,0,1,.48-.72l1.35-.27-.51-.6-.82.89a2.69,2.69,0,0,0-.57.34,7.06,7.06,0,0,0-1.94,3.46c-.47,2.25-.63,4.47,1.13,6.41a4,4,0,0,1,.48.8,20.42,20.42,0,0,1,2.07,7.65c.13,1,.21,2.07.31,3.14l3.08-3.31a3.71,3.71,0,0,0-.39-.14c-1.07-.17-1.57-.56-1.55-1.55a6.41,6.41,0,0,1,.53-2.47,1.62,1.62,0,0,0,0-1.8,2.47,2.47,0,0,1-.25-2.24l2.37,1.23a2.65,2.65,0,0,1,.21.26c.63.94.2,1.75-1,1.85l-.34.08c1.1,1.17,2,2.36,1.55,4l.19.06,1.72-2.14-.67.06c-1.14,0-1.78-.59-1.52-1.61a4.15,4.15,0,0,1,2.4-2.61l.56,2.7c1.16-1.68.18-5.53-1.85-7.27h0c-1.14-1-2.92-1.6-3.76-1.25.87.65,1.12,1.23.71,1.89a4.59,4.59,0,0,1-3,1.91,4.86,4.86,0,0,1,.64-3.52c-.28.16-.57.35-.62.58a1.77,1.77,0,0,1-1.34,1.23,5.63,5.63,0,0,1-1.09.17,4.23,4.23,0,0,1,.05-1c.31-1.09.81-1.36,2-1.17.13,0,.28-.1.41-.16a4.19,4.19,0,0,1-2.32-1.36,3.14,3.14,0,0,1,2.59-.56c.82.21.55.9.61,1.41l2.48-.34a2.47,2.47,0,0,1,.42-3.73l.53.29a.92.92,0,0,0,0,.25c.69,1.11,1.33,2.23-.2,3.32l1.09.3.57-3.3-1.52-.55.28-1.59.82-1.07.32.18.57,1.1,1.49-1.45c.72.69.42,1.48.56,2.26a3.31,3.31,0,0,1,2.57-1,2.29,2.29,0,0,1-1.37,2.35,4.31,4.31,0,0,1,.69,1.25,2.22,2.22,0,0,1-.29,1.37,2,2,0,0,1-2.33.65,1.76,1.76,0,0,1-1.16-2.1c.12-.76.37-.91,1.81-1-.29-.62-.89-.46-1.35-.41-.19,0-.43.36-.49.59a4.2,4.2,0,0,0,1,4.23,7.27,7.27,0,0,1,1.73,3.14,1.57,1.57,0,0,0,.32.65,4,4,0,0,0,.24-.62c.5-2.78,1-5.56,1.46-8.35a2.7,2.7,0,0,1,2.43-2.7l-.21,2.23.54-.3.76-.37a4.25,4.25,0,0,1-.4,4,5.51,5.51,0,0,0,2.66-1.3c-1.56-.29-2-1-1.42-2.4a14.44,14.44,0,0,1,.91-1.58,12.23,12.23,0,0,1,1,1.43,9.55,9.55,0,0,0,.62,1.38l.56-1.93,0,0c.14.12.36.23.4.37a3.66,3.66,0,0,1,0,.89l1-.53c-1-.5-1.1-1.22-.33-2l.54-.51h0l1.12-.27a2.82,2.82,0,0,1-.61,2.59l2.14.21-1.58,2,2.45.67a3,3,0,0,1-2.82,1.2l1.11,1.17a5.74,5.74,0,0,1,1.18-1.18,7.38,7.38,0,0,1,1.77-.46c-.17,1.68-.91,2.47-2.2,2.54a1.2,1.2,0,0,1,1.45,1.1,1.74,1.74,0,0,1-.54,1.69,2.06,2.06,0,0,1-2.13.35,1.52,1.52,0,0,1-1.11-1.53c0-.55-.06-1.15.59-1.43a3.72,3.72,0,0,1,1.11-.14c-.44-.36-.85-.75-1.32-1.07s-1-.54-1.55-.84l1.15,2.3c-1.18,0-2.13-.1-2.63-.88-.23-.35,0-.93,0-1.52a3.28,3.28,0,0,0-2.68.67,5.34,5.34,0,0,1,3.58,2.41l-.12.19-.65-.24-.92,1.15a.84.84,0,0,0,.2.05c1.15,0,1.47.19,1.62,1a1.78,1.78,0,0,1-1.25,2,2.09,2.09,0,0,1-2.12-.45,1.69,1.69,0,0,1-.29-2.08c.18-.34.72-.52,1-.73-1,.05-1.5-.67-1.8-1.56-.24-.69-.15-.81.67-.86-1.42-.21-1.56-.17-2.4.89a11.77,11.77,0,0,0-.83,1.29c-.21.37-.35.77-.53,1.15l2.54-1.55a3.83,3.83,0,0,1-.2,2.68,1.34,1.34,0,0,1-1.38.84c-.72-.06-1-.5-1.14-1.28l-.83,2.59a4.63,4.63,0,0,1,3.4-1.16c0,.92-.26,1.4-1.35,2.61l8.41-1.25-1-2a3.2,3.2,0,0,1,2.8.88c.72-1.35,2-1.5,3.45-1.53a3.09,3.09,0,0,1-1.52,2.63,1.46,1.46,0,0,1-1.82-.44l.13.91c1.29,0,1.69.31,1.7,1.38a1.76,1.76,0,0,1-1.89,1.82,4.81,4.81,0,0,1-.64-.07,4.6,4.6,0,0,1-1.07-.8c-.48-.67-.29-1.41.11-2.28l-5.92,1.3a1.12,1.12,0,0,0,.54.26c1.7.42,3.39.85,5.09,1.26.41.1.84.17,1.27.25,0,0,0,.11,0,.12a7.76,7.76,0,0,0,4.06.4,6,6,0,0,1-.73-1.39,2.8,2.8,0,0,1,.73-2.33c.36-.47.8-.9,1.3-1.44a4.8,4.8,0,0,1,.93,4.32l.15.13c.44-.34.91-.67,1.33-1a2,2,0,0,0,.55-.68,4.57,4.57,0,0,0,.23-1,5,5,0,0,1-.77-.06,2,2,0,0,1-.89-.34,3.1,3.1,0,0,1-1-2.67,4,4,0,0,1,3.21,1.55l-.07-1.29c-1.74-.43-2.33-1.16-2.37-2.89,0-.33.13-.57.5-.39a9.61,9.61,0,0,1,2.07,1.21c.29.25.22.86.3,1.31,0,.21.07.42.1.63h.21a7.8,7.8,0,0,1,.5-.77c.45-.6.78-.6,1,.11a12.68,12.68,0,0,1,.42,2.09,1.9,1.9,0,0,1,2,1.16,1.7,1.7,0,0,1-.59,2,2.09,2.09,0,0,1-3.21-1c-.12-.5,0-.76.77-1.29l-.77-.89a5.63,5.63,0,0,1-2.6,4.88l2.84-.15c.12,1.54-1.57,3.28-3.58,3.63l1.45.81a7.38,7.38,0,0,1,1.09-1.42,2.33,2.33,0,0,1,1.9-.39,2.85,2.85,0,0,1-1.21,2.25l.12.18a1.74,1.74,0,0,0,.49-.25,1.4,1.4,0,0,1,2.06-.41,3.36,3.36,0,0,1,1.64,1.89,3.5,3.5,0,0,1-3.65-.45,10.6,10.6,0,0,1-.77,2c-.17.28-.78.42-1.21.46a1.79,1.79,0,0,1-2-1.49c-.18-1,.17-1.5,1.39-1.86l-4.69-2.34.43,2c.48,0,1.15-.17,1.48.5a1.84,1.84,0,0,1-.71,2.44,2.11,2.11,0,0,1-2.73-.65,1.61,1.61,0,0,1,.76-2.37,2.69,2.69,0,0,1-1.74-2.41l.78-.08,0-.13-3.17-1.17-.12.13a7.25,7.25,0,0,1,2.42,4.4,4.9,4.9,0,0,1-1.89,4.59,1.85,1.85,0,0,1,1.86.89,3.71,3.71,0,0,1,0,3.11,3.3,3.3,0,0,1-2.71-3.42c-.56.18-1,.36-.79,1.06a1.44,1.44,0,0,1-.71,1.49,19.54,19.54,0,0,1-1.74,1.13,3.17,3.17,0,0,1,.29-3.06,1.18,1.18,0,0,1,.88-.44c1.54,0,2.05-1.17,2.89-2,0,0-.09,0-.12,0l-1,.57a9.67,9.67,0,0,1-.36-1,1.7,1.7,0,0,1,0-.71c.08-.45.14-.94.76-1.06a1,1,0,0,1,1.33.75l.22-.05a4.94,4.94,0,0,0,0-1.49,17.41,17.41,0,0,0-1.12-2.73c-.26-.5-.67-.42-1,.06.38.23.89.39,1.09.72a2.43,2.43,0,0,1,.21,1.32,1.68,1.68,0,0,1-1.43,1.38,2.08,2.08,0,0,1-2.15-.85,2,2,0,0,1,.58-2.45,2.73,2.73,0,0,1-1.55-2.38c1.58-.09,2.51.47,2.85,1.68l.66-.33a7,7,0,0,0-4.61-2.3c1.31,1.21,1.2,2.56.86,4.05a4.12,4.12,0,0,1-2.72-2.23c-.29-.77-.3-1.1.84-2-.64,0-1.29,0-1.92.13-.4.06-.34.33-.07.5a1.56,1.56,0,0,1,.56,2.32,15,15,0,0,1-1.73,2.21c-.24.28-.48.17-.64-.15a4.42,4.42,0,0,1-.52-3.3,5,5,0,0,1,1-1.37c-.87-.18-4.32,1.51-5.08,2.55l.86.22a2.44,2.44,0,0,1,2.85-1.69,2.76,2.76,0,0,1-1.55,2.38,1.66,1.66,0,0,1,.77,1.89,1.71,1.71,0,0,1-1.5,1.4,1.9,1.9,0,0,1-1.94-.68,1.66,1.66,0,0,1-.11-2c.23-.32.79-.42,1.14-.6a1.16,1.16,0,0,0-1.74.08,11.41,11.41,0,0,0-3.2,7.08c-.08.6-.1,1.21-.16,1.94l1.88-1.9c.1.1.08,0,0,0-1.32-.17-1.7-.91-1-2a3.53,3.53,0,0,1,1.84-1.51,3.69,3.69,0,0,1,.24,2.9,16.58,16.58,0,0,1,6.27-2c-.14-.47-.46-.94-.35-1.28a3,3,0,0,1,1-1.28,9.62,9.62,0,0,1,1.67-.86,3.74,3.74,0,0,1-.73,3.28l1.43.07-.28-.37a1.08,1.08,0,0,1,.44-1.69,4.47,4.47,0,0,1,2.94-.32c-.07,1-.81,1.51-1.42,2.15l.49.77a6.22,6.22,0,0,1,1.68-.63,8.18,8.18,0,0,1,2,.33,3,3,0,0,1-2.62,1.52,3.8,3.8,0,0,1,0,1.35,2.44,2.44,0,0,1-1,1.08,2.1,2.1,0,0,1-2.4-.42,1.7,1.7,0,0,1,0-2.3c.55-.7.85-.73,2.24-.19a1.18,1.18,0,0,0-1.37-.67c-1.09.19-2.21.28-3.31.42a1.42,1.42,0,0,0-.38.12l2.49,1.88a4.28,4.28,0,0,1-3.49.36c-.66-.24-.79-.81-.46-1.89l-2.24.93,0,.19a7.24,7.24,0,0,1,4.67,2.73c.82-1.16,1.51-1.33,2.74-.63a16,16,0,0,1,1.6,1.19,4.67,4.67,0,0,1-3.64.53l.34,1.61a8.79,8.79,0,0,1,1.27-.79,9.15,9.15,0,0,1,1.48-.37l.21.16-.73,1.78,0,0-1.36.59,1.22.76,0,0c0,.24,0,.48,0,.72a1.62,1.62,0,0,1-1.15,1.71,2.08,2.08,0,0,1-2.22-.45,1.45,1.45,0,0,1,.54-2.59,2.57,2.57,0,0,1,.74,0l-1-2a1.73,1.73,0,0,1-.64,1.8c-.55.43-1.16.8-1.85,1.27a3.15,3.15,0,0,1,.31-3.1,1.76,1.76,0,0,1,1-.46c.59-.09.8-.37.47-.81a7.51,7.51,0,0,0-1-1c.2,1.76-1.07,2.39-2.44,3a2.4,2.4,0,0,1,1.58-3.57,7.18,7.18,0,0,0-1.11-.45c-.83-.17-1.67-.32-2.51-.41a.93.93,0,0,0-1.1.63Zm-9.13-15c.42,0,1.11-.24,1.39.42a1.79,1.79,0,0,1-1.11,2.68,5.21,5.21,0,0,1-.83.11l4,2.82c.63-3.13-1.77-7.67-4.08-8.06Zm-23.55-2.12c1,.14,1.21.79,1.21,1.58,0,1.06-.75,1.52-1.71,1.77a4.27,4.27,0,0,1,.53.64,4.58,4.58,0,0,1,.25.89,8.35,8.35,0,0,1,6.36-4.61C966.76,548.43,962.33,548.24,961.69,548.91Zm40.15-10.77v5l2-1.76c-1.32-.16-1.93-.52-1.82-1.25a9.65,9.65,0,0,1,.79-2Zm6.1,2.32,1,.2c1.27.31,1.27.32,1.81-.76,0,0,0-.07-.05-.14-.88.33-1.34-.24-1.8-.79Zm-34.5,24.85,1.19.43c.11-1.1.6-1.78,1.79-1.46l.15-1.18c-.24.09-.32.25-.46.36a3.15,3.15,0,0,1-.55.28,1.91,1.91,0,0,1-.1-.62,3.2,3.2,0,0,1,.28-.71l-1.3.29C975.42,563.93,975.21,564.45,973.44,565.31Zm41.82-10.08,2.45,1.46.25-2Zm-54.46.46,1.72-.46.1-.85c-.48.67-.76.35-.94-.07l-1.46.47Zm21-.46v1.7l2.27-.68Zm19.93-3.73a3.72,3.72,0,0,1-1-.49c-.4-.41-.68-.23-.9.1a10.72,10.72,0,0,0-.62,1.3Zm-36.05,0-.14-.13L963.4,553C965.22,552.84,965.22,552.84,965.67,551.47Zm6.63,14.78.66-.85h-1.4Zm35-22,.16-.31-1.71-.79-.06.14Z" transform="translate(-808.15 -446.65)"/><path d="M960.6,537.82l2.44,1.26a3.38,3.38,0,0,1,1.61-3.09h.3a12.28,12.28,0,0,1,.59,2.11c.15,1.37-.7,1.93-2.18,1.47,0,.16,0,.29.06.43a1.09,1.09,0,0,1-.74,1.22,1.3,1.3,0,0,1-1.57-.42A3.69,3.69,0,0,1,960.6,537.82Z" transform="translate(-808.15 -446.65)"/><path d="M1016.46,565.48a6.31,6.31,0,0,1-3.7-1.48,1.42,1.42,0,0,1-.09-2.17,1.77,1.77,0,0,1,2.42.1A5,5,0,0,1,1016.46,565.48Z" transform="translate(-808.15 -446.65)"/><path d="M994.37,566.05h0a1.69,1.69,0,0,1,2-.2,1.45,1.45,0,0,1,.69,1.82,5.53,5.53,0,0,1-2.17,2.88C993.83,569.76,993.38,566.83,994.37,566.05Z" transform="translate(-808.15 -446.65)"/><path d="M1004.73,570.51a2.39,2.39,0,0,1,3.36,2.15,4,4,0,0,1-3.5-.85l0,0,.14-1.35Z" transform="translate(-808.15 -446.65)"/><path d="M1008.9,534.88a2.12,2.12,0,0,1,1.22-2.64,2.18,2.18,0,0,1,.19,2.76h0l-1.45-.13Z" transform="translate(-808.15 -446.65)"/><path d="M1008.76,536.7c-1.55,0-2.11-1.21-1.26-2.9l1.4,1.08,0,0a1.34,1.34,0,0,1-.15,1.86Z" transform="translate(-808.15 -446.65)"/><path d="M996.14,543.63c1,1.4.18,3.42-.71,4.57-.07.1-.37.06-.56.09a6.52,6.52,0,0,1-.51-.78,11.38,11.38,0,0,1-1.05-2.45c-.25-1.23.78-2,2.11-1.69a4.77,4.77,0,0,1,.72.26Z" transform="translate(-808.15 -446.65)"/><polyline class="cls-1" points="98.92 0 98.92 56.74 95.35 56.74 95.35 0"/><path d="M895.57,533.37q0-4.64-.08-9.27a8.65,8.65,0,0,1,0-1.44,3.11,3.11,0,0,0-1.33-3c-2.4-2.07-4.67-4.27-7-6.41-.16-.15-.29-.34-.47-.55l-4.43,4.13c-1.24,1.15-2.5,2.3-3.73,3.46a2.28,2.28,0,0,1-2.32.62,2,2,0,0,1-1.49-1.75c-.66-4.24-1.45-8.46-2-12.71a10.33,10.33,0,0,1,3.42-9c2.76-2.66,5.62-5.23,8.44-7.84a7.4,7.4,0,0,1,.64-.44c-1.06-1-2-1.81-2.94-2.67L877,481.55a1.89,1.89,0,0,1-.63-2.15,2.07,2.07,0,0,1,1.86-1.34c4.3-.6,8.61-1.21,12.92-1.76a12.92,12.92,0,0,1,10.76,3.27c2.72,2.46,5.38,5,8.06,7.46a9,9,0,0,1,.67.76c1.56-1.47,3-2.82,4.45-4.16l3.74-3.47a2.19,2.19,0,0,1,2.31-.6,2,2,0,0,1,1.47,1.75c.56,3.55,1.15,7.1,1.72,10.65,0,.13.08.25.12.38v5.07a3,3,0,0,0-.17.41,11.75,11.75,0,0,1-3.43,5.52c-1.85,1.7-3.69,3.42-5.55,5.12-1,1-2.06,1.88-3.23,2.94a6.76,6.76,0,0,1,.78.55l7.4,6.83a2.18,2.18,0,0,1,.85,1.49c0,1.18-.75,1.94-2.25,2.15-2.13.28-4.25.62-6.39.86-3.5.39-6.94,1.38-10.58.79v1.13l-.09,8.17Zm3.09-37.15c0-.08,0-.21.05-.34.28-2.94.59-5.89.82-8.83a13.17,13.17,0,0,0,0-3.32c-.61-3.56-4.26-6-8.12-5.48-3,.39-6,.81-9,1.22l-4,.56a4.62,4.62,0,0,0,.35.37l9.11,8.43c2.75,2.55,5.51,5.11,8.28,7.65a.9.9,0,0,0,.59.24C897.39,496.59,898,496.4,898.66,496.22ZM876.89,519l.37-.32,10.08-9.33c2.43-2.26,4.87-4.51,7.29-6.77.15-.14.31-.4.27-.56-.15-.59-.39-1.16-.6-1.78l-.49-.05c-3.6-.28-7.2-.53-10.79-.86-4.83-.44-8.79,3.4-8,7.84.4,2.45.78,4.9,1.18,7.34C876.39,516,876.63,517.41,876.89,519Zm21.8-14.71c-.15,1.54-.3,3.15-.44,4.75-.2,2.18-.5,4.36-.54,6.54-.06,3.89,3.73,7.08,7.9,6.63,3.62-.39,7.21-1,10.82-1.45l2.51-.35-.55-.54-7.08-6.56-10.13-9.36a.82.82,0,0,0-.55-.22C900,503.86,899.38,504.07,898.69,504.27Zm21.81-22.72-.22-.14a2.82,2.82,0,0,1-.36.54l-7.34,6.8-9.8,9.09a.82.82,0,0,0-.29.6c.14.57.36,1.13.58,1.76l.9.09,3.71.29c2.46.19,4.92.46,7.38.53,4.58.12,8.06-3.68,7.34-7.85-.47-2.71-.87-5.43-1.31-8.14C920.9,483.93,920.7,482.74,920.5,481.55Zm-1.89,21a23,23,0,0,1-2.39.47,15.39,15.39,0,0,1-2.54,0c-2.6-.19-5.2-.42-7.8-.63l-3.42-.26,8.31,7.67Zm-9.56-13.45-7.87-7.31c0,.14.08.28.13.42a8.74,8.74,0,0,1,.45,3.92q-.48,5-.94,9.93c0,.21,0,.43,0,.66Zm-20.72,22.16,7.85,7.27a8.54,8.54,0,0,1-.6-3.93c.27-2.91.55-5.82.82-8.72.07-.73.12-1.46.18-2.26C893.75,506.26,891,508.8,888.33,511.27Zm6.65-13-8.23-7.6-7.62,7a24.16,24.16,0,0,1,3.57-.36c2.56.1,5.12.38,7.68.58Zm4.77,34.39c0-3,0-6,0-8.93a.44.44,0,0,0-.21-.36c-.59-.3-1.21-.55-1.87-.85v10.11l.27,0Zm-1.12-30.53a2,2,0,0,0,2.17-1.92,2,2,0,0,0-2.06-2,2.07,2.07,0,0,0-2.17,1.95A2,2,0,0,0,898.63,502.14Z" transform="translate(-808.15 -446.65)"/><rect class="cls-2" x="88.78" y="86.9" width="3.57" height="54.35"/></svg>