<?xml version="1.0" encoding="UTF-8"?><svg id="Layer_2" xmlns="http://www.w3.org/2000/svg" width="75" height="87.5" viewBox="0 0 75 87.5"><defs><style>.cls-1{fill:#033333;}.cls-2{fill:#fff;}</style></defs><g id="Layer_1-2"><g id="_3"><path class="cls-1" d="M75,8.38v58.25c0,4.61-3.77,8.38-8.38,8.38h-16.62l-12.5,12.5-12.5-12.5H8.33c-4.63,0-8.33-3.75-8.33-8.33V8.33C0,3.75,3.71,0,8.33,0h58.29c4.61,0,8.38,3.77,8.38,8.38Z"/><path class="cls-2" d="M33,46v7H9v-7h8v-14.33c-.33,.45-.85,.9-1.56,1.35-.7,.45-1.49,.88-2.36,1.29-.87,.41-1.76,.74-2.67,.98-.91,.24-1.71,.37-2.42,.37v-8.32c.63,0,1.41-.2,2.33-.59,.93-.39,1.86-.9,2.81-1.52,.94-.62,1.78-1.22,2.5-1.8,.72-.58,1.18-1.06,1.36-1.43h9v24h7Z"/><path class="cls-2" d="M59.17,35.47c1.43,.21,2.69,.7,3.78,1.47,1.1,.76,1.95,1.73,2.56,2.89,.61,1.16,.91,2.46,.91,3.89,0,1.89-.57,3.53-1.72,4.92-1.15,1.39-2.78,2.47-4.9,3.25-2.12,.78-4.64,1.17-7.57,1.17-2.61,0-4.95-.34-7.02-1.01-2.07-.67-3.83-1.66-5.3-2.95l4.49-5.22c.9,.84,1.96,1.48,3.18,1.91,1.22,.44,2.66,.65,4.33,.65,1.95,0,3.41-.31,4.38-.94,.97-.62,1.46-1.59,1.46-2.9,0-1.44-.58-2.5-1.75-3.21-1.17-.7-3-1.05-5.5-1.05h-1.51v-5.17h1.67c1.91,0,3.43-.36,4.54-1.09,1.11-.73,1.67-1.68,1.67-2.86,0-.65-.18-1.21-.55-1.67-.37-.46-.87-.81-1.51-1.05-.64-.23-1.42-.35-2.32-.35-1.43,0-2.73,.29-3.91,.85-1.18,.57-2.17,1.41-2.97,2.52l-5.22-5.17c.76-.9,1.82-1.67,3.16-2.32,1.34-.64,2.87-1.15,4.59-1.51,1.72-.36,3.49-.54,5.3-.54,2.43,0,4.59,.34,6.47,1,1.88,.67,3.34,1.61,4.38,2.83,1.04,1.22,1.57,2.62,1.57,4.2,0,1.19-.29,2.32-.86,3.4-.57,1.08-1.37,1.98-2.37,2.69-1.01,.72-2.16,1.16-3.44,1.35Z"/></g></g></svg>