<?xml version="1.0" encoding="UTF-8"?><svg id="Layer_2" xmlns="http://www.w3.org/2000/svg" width="75" height="87.5" viewBox="0 0 75 87.5"><defs><style>.cls-1{fill:#033333;}.cls-2{fill:#fff;}</style></defs><g id="Layer_1-2"><g id="_4"><path class="cls-1" d="M75,8.38v58.25c0,4.61-3.77,8.38-8.38,8.38h-16.62l-12.5,12.5-12.5-12.5H8.33c-4.63,0-8.33-3.75-8.33-8.33V8.33C0,3.75,3.71,0,8.33,0h58.29c4.61,0,8.38,3.77,8.38,8.38Z"/><path class="cls-2" d="M32.5,46v7H8.5v-7h8v-14.33c-.33,.45-.85,.9-1.56,1.35-.7,.45-1.49,.88-2.36,1.29-.87,.41-1.76,.74-2.67,.98-.91,.24-1.71,.37-2.42,.37v-8.32c.63,0,1.41-.2,2.33-.59,.93-.39,1.86-.9,2.81-1.52,.94-.62,1.78-1.22,2.5-1.8,.72-.58,1.18-1.06,1.36-1.43h9v24h7Z"/><path class="cls-2" d="M53.5,54v-6.97h-15v-6.89l17.96-20.14h6.04v20.05h5v6.97h-5v6.97h-9Zm-6.45-13.95h7.45v-8.51l-7.45,8.51Z"/></g></g></svg>