<?xml version="1.0" encoding="UTF-8"?><svg id="Layer_2" xmlns="http://www.w3.org/2000/svg" width="75" height="87.5" viewBox="0 0 75 87.5"><defs><style>.cls-1{fill:#033333;}.cls-2{fill:#fff;}</style></defs><g id="Layer_1-2"><g id="_5"><path class="cls-1" d="M75,8.38v58.25c0,4.61-3.77,8.38-8.38,8.38h-16.62l-12.5,12.5-12.5-12.5H8.33c-4.63,0-8.33-3.75-8.33-8.33V8.33C0,3.75,3.71,0,8.33,0h58.29c4.61,0,8.38,3.77,8.38,8.38Z"/><path class="cls-2" d="M51.91,53.11c-2.95,0-5.57-.46-7.86-1.39-2.29-.93-4.07-2.22-5.34-3.9l5.03-4.43c1.08,1.07,2.35,1.92,3.8,2.53s2.91,.92,4.36,.92c1.19,0,2.22-.19,3.08-.56,.86-.37,1.52-.9,1.99-1.57,.47-.67,.7-1.43,.7-2.26,0-.9-.22-1.66-.67-2.31-.45-.64-1.06-1.14-1.85-1.5-.78-.36-1.68-.54-2.69-.54s-2,.19-2.85,.58c-.86,.39-1.57,.9-2.13,1.52h-7.55l4.67-19.21h19.56v6.4h-13.26l-1.18,5.42c.26-.21,.72-.4,1.37-.56,.65-.16,1.54-.25,2.66-.25,2.54,0,4.79,.43,6.77,1.3,1.98,.87,3.52,2.07,4.64,3.61,1.12,1.54,1.68,3.34,1.68,5.4s-.64,3.99-1.93,5.62-3.05,2.9-5.29,3.81c-2.24,.91-4.81,1.37-7.72,1.37Z"/><path class="cls-2" d="M33.16,46.11v7H9.16v-7h8v-14.33c-.33,.45-.85,.9-1.56,1.35-.7,.45-1.49,.88-2.36,1.29-.87,.41-1.76,.74-2.67,.98-.91,.24-1.71,.37-2.42,.37v-8.32c.63,0,1.41-.2,2.33-.59,.93-.39,1.86-.9,2.81-1.52,.94-.62,1.78-1.22,2.5-1.8,.72-.58,1.18-1.06,1.36-1.43h9v24h7Z"/></g></g></svg>