<?xml version="1.0" encoding="UTF-8"?><svg id="Layer_2" xmlns="http://www.w3.org/2000/svg" width="75" height="87.5" viewBox="0 0 75 87.5"><defs><style>.cls-1{fill:#033333;}.cls-2{fill:#fff;}</style></defs><g id="Layer_1-2"><g id="_6"><path class="cls-1" d="M75,8.38v58.25c0,4.61-3.77,8.38-8.38,8.38h-16.62l-12.5,12.5-12.5-12.5H8.33c-4.63,0-8.33-3.75-8.33-8.33V8.33C0,3.75,3.71,0,8.33,0h58.29c4.61,0,8.38,3.77,8.38,8.38Z"/><path class="cls-2" d="M65.52,47.48c-1.27,1.7-2.99,3.05-5.16,4.04-2.17,.99-4.63,1.48-7.39,1.48-3.05,0-5.66-.6-7.83-1.79-2.17-1.2-3.83-2.92-4.99-5.18-1.16-2.26-1.74-4.97-1.74-8.14,0-3.71,.62-6.86,1.88-9.46,1.25-2.6,3.02-4.58,5.32-5.94,2.3-1.36,5.05-2.04,8.25-2.04,2.39,0,4.63,.4,6.73,1.21,2.1,.81,3.93,1.97,5.52,3.5l-4.96,4.53c-.92-.96-2.02-1.7-3.31-2.22-1.29-.52-2.67-.79-4.14-.79s-2.68,.28-3.72,.85c-1.05,.57-1.87,1.39-2.45,2.47-.59,1.08-.92,2.39-.99,3.95,.51-.6,1.13-1.08,1.85-1.46,.72-.37,1.52-.67,2.43-.87,.9-.21,1.87-.31,2.9-.31,2.65,0,5,.47,7.06,1.41,2.06,.94,3.69,2.2,4.88,3.77,1.19,1.57,1.79,3.36,1.79,5.36s-.63,3.95-1.9,5.65Zm-9.51-1.19c.92-.46,1.65-1.09,2.18-1.88,.53-.79,.8-1.64,.8-2.53s-.27-1.76-.8-2.49c-.53-.73-1.26-1.32-2.18-1.77-.92-.45-1.95-.67-3.09-.67-1.07,0-2.06,.22-2.98,.67-.92,.45-1.65,1.04-2.21,1.77-.55,.73-.83,1.56-.83,2.49s.28,1.73,.83,2.51c.55,.78,1.3,1.41,2.23,1.88,.94,.48,1.96,.72,3.06,.72s2.06-.23,2.98-.7Z"/><path class="cls-2" d="M32.58,46v7H8.58v-7h8v-14.33c-.33,.45-.85,.9-1.56,1.35-.7,.45-1.49,.88-2.36,1.29-.87,.41-1.76,.74-2.67,.98-.91,.24-1.71,.37-2.42,.37v-8.32c.63,0,1.41-.2,2.33-.59,.93-.39,1.86-.9,2.81-1.52,.94-.62,1.78-1.22,2.5-1.8,.72-.58,1.18-1.06,1.36-1.43h9v24h7Z"/></g></g></svg>