<?xml version="1.0" encoding="UTF-8"?><svg id="Layer_2" xmlns="http://www.w3.org/2000/svg" width="75" height="87.5" viewBox="0 0 75 87.5"><defs><style>.cls-1{fill:#033333;}.cls-2{fill:#fff;}</style></defs><g id="Layer_1-2"><g id="_8"><path class="cls-1" d="M75,8.38v58.25c0,4.61-3.77,8.38-8.38,8.38h-16.62l-12.5,12.5-12.5-12.5H8.33c-4.63,0-8.33-3.75-8.33-8.33V8.33C0,3.75,3.71,0,8.33,0h58.29c4.61,0,8.38,3.77,8.38,8.38Z"/><path class="cls-2" d="M66.85,42.98c0,2.08-.65,3.9-1.96,5.47-1.31,1.57-3.06,2.78-5.27,3.65-2.21,.87-4.63,1.3-7.28,1.3s-5.02-.44-7.23-1.32c-2.21-.88-3.96-2.13-5.27-3.74-1.31-1.61-1.96-3.47-1.96-5.58,0-1.21,.28-2.29,.83-3.23,.55-.95,1.25-1.77,2.1-2.47,.85-.7,1.71-1.28,2.59-1.74-.85-.37-1.59-.86-2.23-1.46-.64-.6-1.17-1.28-1.57-2.04-.41-.76-.61-1.54-.61-2.34,0-1.51,.41-2.87,1.24-4.06,.83-1.19,1.9-2.18,3.23-2.97,1.32-.79,2.76-1.39,4.3-1.81,1.54-.42,3.07-.63,4.58-.63s3.04,.21,4.61,.63c1.56,.42,3.01,1.02,4.36,1.81,1.34,.79,2.42,1.76,3.23,2.92,.81,1.16,1.21,2.5,1.21,4.01,0,.8-.19,1.59-.58,2.37-.39,.77-.92,1.48-1.6,2.11-.68,.63-1.43,1.12-2.23,1.46,.88,.5,1.75,1.1,2.59,1.81,.85,.71,1.54,1.56,2.1,2.53,.55,.98,.83,2.09,.83,3.32Zm-8.94-.46c0-.65-.16-1.24-.47-1.75-.31-.51-.74-.95-1.27-1.31-.53-.36-1.12-.63-1.76-.82-.64-.19-1.33-.28-2.07-.28-1.03,0-1.96,.18-2.79,.54-.83,.36-1.49,.85-1.99,1.47-.5,.62-.74,1.35-.74,2.19,0,.59,.16,1.14,.47,1.66,.31,.51,.73,.96,1.24,1.33,.51,.37,1.1,.65,1.76,.84,.66,.19,1.34,.28,2.04,.28,1.03,0,1.96-.18,2.79-.54,.83-.36,1.5-.85,2.01-1.47,.51-.62,.77-1.34,.77-2.15Zm-9.87-12.92c0,.74,.21,1.35,.63,1.83,.42,.48,.97,.83,1.65,1.07s1.37,.35,2.07,.35c.66,0,1.32-.12,1.99-.37,.66-.25,1.22-.61,1.68-1.09,.46-.48,.69-1.09,.69-1.83,0-.59-.2-1.11-.61-1.55-.41-.45-.93-.8-1.57-1.07-.64-.26-1.39-.39-2.23-.39s-1.54,.14-2.18,.42c-.64,.28-1.16,.64-1.54,1.09-.39,.45-.58,.97-.58,1.55Z"/><path class="cls-2" d="M33.15,46.4v7H9.15v-7h8v-14.33c-.33,.45-.85,.9-1.56,1.35-.7,.45-1.49,.88-2.36,1.29-.87,.41-1.76,.74-2.67,.98-.91,.24-1.71,.37-2.42,.37v-8.32c.63,0,1.41-.2,2.33-.59,.93-.39,1.86-.9,2.81-1.52,.94-.62,1.78-1.22,2.5-1.8,.72-.58,1.18-1.06,1.36-1.43h9v24h7Z"/></g></g></svg>