<?xml version="1.0" encoding="UTF-8"?><svg id="Layer_2" xmlns="http://www.w3.org/2000/svg" width="75" height="87.5" viewBox="0 0 75 87.5"><defs><style>.cls-1{fill:#033333;}.cls-2{fill:#fff;}</style></defs><g id="Layer_1-2"><g id="_9"><path class="cls-1" d="M75,8.38v58.25c0,4.61-3.77,8.38-8.38,8.38h-16.62l-12.5,12.5-12.5-12.5H8.33c-4.63,0-8.33-3.75-8.33-8.33V8.33C0,3.75,3.71,0,8.33,0h58.29c4.61,0,8.38,3.77,8.38,8.38Z"/><path class="cls-2" d="M52.18,20c-8.34,0-15.48,4.66-15.48,11.08s6.45,10.15,12.57,10.17c.75,0,1.74-.05,2.46-.14l-10.11,11.89h10.41l13.65-16.2c1.38-1.65,2.1-3.78,2.1-5.72,0-6.42-7.11-11.08-15.6-11.08Zm.06,15.9c-3.33,0-6-2.04-6-4.77s2.67-4.75,6-4.75,6.03,2.04,6.03,4.75-2.67,4.77-6.03,4.77Z"/><path class="cls-2" d="M32.22,46v7H8.22v-7h8v-14.33c-.33,.45-.85,.9-1.56,1.35-.7,.45-1.49,.88-2.36,1.29-.87,.41-1.76,.74-2.67,.98-.91,.24-1.71,.37-2.42,.37v-8.32c.63,0,1.41-.2,2.33-.59,.93-.39,1.86-.9,2.81-1.52,.94-.62,1.78-1.22,2.5-1.8,.72-.58,1.18-1.06,1.36-1.43h9v24h7Z"/></g></g></svg>