<?xml version="1.0" encoding="UTF-8"?><svg id="Layer_2" xmlns="http://www.w3.org/2000/svg" width="75" height="87.5" viewBox="0 0 75 87.5"><defs><style>.cls-1{fill:#033333;}.cls-2{fill:#fff;}</style></defs><g id="Layer_1-2"><g id="_0"><path class="cls-1" d="M75,8.38v58.25c0,4.61-3.77,8.38-8.38,8.38h-16.62l-12.5,12.5-12.5-12.5H8.33c-4.63,0-8.33-3.75-8.33-8.33V8.33C0,3.75,3.71,0,8.33,0h58.29c4.61,0,8.38,3.77,8.38,8.38Z"/><path class="cls-2" d="M8.06,53c0-1.76,.14-3.34,.42-4.72,.28-1.39,.74-2.66,1.39-3.82,.65-1.16,1.52-2.24,2.61-3.23,1.09-.99,2.47-1.9,4.14-2.73,1.74-.97,3.19-1.79,4.36-2.45,1.17-.66,2.09-1.22,2.78-1.69,.68-.47,1.18-.91,1.47-1.32,.3-.41,.44-.88,.44-1.41,0-.73-.17-1.36-.5-1.88s-.82-.93-1.44-1.24c-.63-.31-1.41-.46-2.33-.46-.74,0-1.44,.09-2.11,.28-.67,.19-1.31,.46-1.92,.83-.61,.37-1.2,.81-1.78,1.31-.57,.5-1.1,1.07-1.58,1.69l-5.67-6.56c.63-.67,1.43-1.31,2.39-1.92,.96-.61,2.08-1.17,3.36-1.67,1.28-.5,2.66-.91,4.14-1.22,1.48-.31,3.06-.47,4.72-.47,2.67,0,4.92,.4,6.75,1.21,1.83,.81,3.23,1.94,4.19,3.4,.96,1.46,1.44,3.2,1.44,5.23,0,1.24-.19,2.36-.58,3.34s-.9,1.84-1.53,2.57c-.63,.74-1.33,1.41-2.11,2.01-.78,.6-1.57,1.15-2.39,1.64-.89,.45-1.71,.9-2.47,1.33-.76,.43-1.48,.85-2.17,1.25-.69,.4-1.32,.82-1.89,1.27-.57,.45-1.12,.92-1.64,1.41h15.39v8H8.06Z"/><path class="cls-2" d="M52.62,21c9.9,0,15.12,6.74,15.12,15.9s-5.22,15.9-15.12,15.9-15.12-6.74-15.12-15.9,5.19-15.9,15.12-15.9Zm0,25.34c3.78,0,5.52-3.64,5.52-9.44s-1.74-9.42-5.52-9.42-5.52,3.65-5.52,9.42,1.74,9.44,5.52,9.44Z"/></g></g></svg>