<?xml version="1.0" encoding="UTF-8"?><svg id="Layer_2" xmlns="http://www.w3.org/2000/svg" width="75" height="87.5" viewBox="0 0 75 87.5"><defs><style>.cls-1{fill:#033333;}.cls-2{fill:#fff;}</style></defs><g id="Layer_1-2"><g id="_"><path class="cls-1" d="M75,8.38v58.25c0,4.61-3.77,8.38-8.38,8.38h-16.62l-12.5,12.5-12.5-12.5H8.33c-4.63,0-8.33-3.75-8.33-8.33V8.33C0,3.75,3.71,0,8.33,0h58.29c4.61,0,8.38,3.77,8.38,8.38Z"/><path class="cls-2" d="M43.17,36.66c1.43,.25,2.69,.81,3.78,1.7,1.1,.89,1.95,2,2.56,3.35,.61,1.35,.91,2.85,.91,4.52,0,2.2-.57,4.1-1.72,5.71-1.15,1.61-2.78,2.87-4.9,3.77-2.12,.9-4.64,1.36-7.57,1.36-2.61,0-4.95-.39-7.02-1.17-2.07-.78-3.83-1.92-5.3-3.42l4.49-6.05c.9,.97,1.96,1.71,3.18,2.22,1.22,.5,2.66,.76,4.33,.76,1.95,0,3.41-.36,4.38-1.09,.97-.72,1.46-1.85,1.46-3.37,0-1.66-.58-2.9-1.75-3.72-1.17-.81-3-1.22-5.5-1.22h-1.51v-6h1.67c1.91,0,3.43-.42,4.54-1.27,1.11-.84,1.67-1.95,1.67-3.31,0-.75-.18-1.4-.55-1.94-.37-.54-.87-.94-1.51-1.21-.64-.27-1.42-.4-2.32-.4-1.43,0-2.73,.33-3.91,.99-1.18,.66-2.17,1.64-2.97,2.92l-5.22-6c.76-1.04,1.82-1.94,3.16-2.69,1.34-.75,2.87-1.33,4.59-1.75,1.72-.42,3.49-.63,5.3-.63,2.43,0,4.59,.39,6.47,1.16,1.88,.78,3.34,1.87,4.38,3.28,1.04,1.41,1.57,3.04,1.57,4.87,0,1.38-.29,2.69-.86,3.95-.57,1.25-1.37,2.29-2.37,3.12-1.01,.83-2.16,1.35-3.44,1.56Z"/></g></g></svg>