<?xml version="1.0" encoding="UTF-8"?><svg id="Layer_2" xmlns="http://www.w3.org/2000/svg" width="75" height="87.5" viewBox="0 0 75 87.5"><defs><style>.cls-1{fill:#fff;}.cls-2{fill:#1e3734;}</style></defs><g id="Layer_1-2"><g id="_"><path class="cls-2" d="M75,8.38v58.25c0,4.61-3.77,8.38-8.38,8.38h-16.62l-12.5,12.5-12.5-12.5H8.33c-4.63,0-8.33-3.75-8.33-8.33V8.33C0,3.75,3.71,0,8.33,0h58.29c4.61,0,8.38,3.77,8.38,8.38Z"/><path class="cls-1" d="M36.75,58.11c-2.95,0-5.57-.58-7.86-1.73-2.29-1.16-4.07-2.78-5.34-4.87l5.03-5.54c1.08,1.34,2.35,2.4,3.8,3.16s2.91,1.15,4.36,1.15c1.19,0,2.22-.23,3.08-.7,.86-.47,1.52-1.12,1.99-1.96,.47-.84,.7-1.78,.7-2.83,0-1.12-.22-2.08-.67-2.88-.45-.8-1.06-1.43-1.85-1.87-.78-.45-1.68-.67-2.69-.67s-2,.24-2.85,.73c-.86,.49-1.57,1.12-2.13,1.9h-7.55l4.67-24h19.56v8h-13.26l-1.18,6.77c.26-.26,.72-.49,1.37-.7,.65-.2,1.54-.31,2.66-.31,2.54,0,4.79,.54,6.77,1.62,1.98,1.08,3.52,2.58,4.64,4.5,1.12,1.92,1.68,4.17,1.68,6.74s-.64,4.99-1.93,7.02-3.05,3.62-5.29,4.76c-2.24,1.14-4.81,1.71-7.72,1.71Z"/></g></g></svg>