<?xml version="1.0" encoding="UTF-8"?><svg id="Layer_2" xmlns="http://www.w3.org/2000/svg" width="75" height="87.5" viewBox="0 0 75 87.5"><defs><style>.cls-1{fill:#033333;}.cls-2{fill:#fff;}</style></defs><g id="Layer_1-2"><g id="_"><path class="cls-1" d="M75,8.38v58.25c0,4.61-3.77,8.38-8.38,8.38h-16.62l-12.5,12.5-12.5-12.5H8.33c-4.63,0-8.33-3.75-8.33-8.33V8.33C0,3.75,3.71,0,8.33,0h58.29c4.61,0,8.38,3.77,8.38,8.38Z"/><path class="cls-2" d="M49.94,50.78c-1.27,2.1-2.99,3.75-5.16,4.96-2.17,1.21-4.63,1.82-7.39,1.82-3.05,0-5.66-.73-7.83-2.21-2.17-1.47-3.83-3.59-4.99-6.37-1.16-2.78-1.74-6.11-1.74-10.01,0-4.56,.62-8.44,1.88-11.64,1.25-3.2,3.02-5.63,5.32-7.31,2.3-1.67,5.05-2.51,8.25-2.51,2.39,0,4.63,.5,6.73,1.49,2.1,.99,3.93,2.43,5.52,4.3l-4.96,5.57c-.92-1.18-2.02-2.09-3.31-2.73-1.29-.64-2.67-.97-4.14-.97s-2.68,.35-3.72,1.05c-1.05,.7-1.87,1.71-2.45,3.03-.59,1.32-.92,2.94-.99,4.85,.51-.73,1.13-1.33,1.85-1.79,.72-.46,1.52-.82,2.43-1.08,.9-.26,1.87-.39,2.9-.39,2.65,0,5,.58,7.06,1.74,2.06,1.16,3.69,2.7,4.88,4.63,1.19,1.93,1.79,4.13,1.79,6.59s-.63,4.85-1.9,6.95Zm-9.51-1.46c.92-.57,1.65-1.34,2.18-2.32,.53-.97,.8-2.01,.8-3.12s-.27-2.16-.8-3.06c-.53-.9-1.26-1.63-2.18-2.18-.92-.55-1.95-.83-3.09-.83-1.07,0-2.06,.28-2.98,.83-.92,.55-1.65,1.28-2.21,2.18-.55,.9-.83,1.92-.83,3.06s.28,2.13,.83,3.09c.55,.96,1.3,1.73,2.23,2.32,.94,.59,1.96,.88,3.06,.88s2.06-.28,2.98-.85Z"/></g></g></svg>