<?xml version="1.0" encoding="UTF-8"?><svg id="Layer_2" xmlns="http://www.w3.org/2000/svg" width="75" height="87.5" viewBox="0 0 75 87.5"><defs><style>.cls-1{fill:#fff;}.cls-2{fill:#1e3734;}</style></defs><g id="Layer_1-2"><g id="_"><path class="cls-2" d="M75,8.38v58.25c0,4.61-3.77,8.38-8.38,8.38h-16.62l-12.5,12.5-12.5-12.5H8.33c-4.63,0-8.33-3.75-8.33-8.33V8.33C0,3.75,3.71,0,8.33,0h58.29c4.61,0,8.38,3.77,8.38,8.38Z"/><path class="cls-1" d="M51.7,45.01c0,2.47-.65,4.64-1.96,6.5-1.31,1.86-3.06,3.31-5.27,4.34-2.21,1.03-4.63,1.55-7.28,1.55s-5.02-.53-7.23-1.58c-2.21-1.05-3.96-2.53-5.27-4.45-1.31-1.92-1.96-4.13-1.96-6.64,0-1.44,.28-2.72,.83-3.84,.55-1.12,1.25-2.1,2.1-2.93,.85-.83,1.71-1.52,2.59-2.07-.85-.44-1.59-1.02-2.23-1.74-.64-.72-1.17-1.53-1.57-2.43-.41-.9-.61-1.83-.61-2.79,0-1.8,.41-3.41,1.24-4.83,.83-1.42,1.9-2.59,3.23-3.53,1.32-.94,2.76-1.65,4.3-2.15,1.54-.5,3.07-.74,4.58-.74s3.04,.25,4.61,.74c1.56,.5,3.01,1.21,4.36,2.15,1.34,.94,2.42,2.1,3.23,3.47,.81,1.38,1.21,2.97,1.21,4.77,0,.96-.19,1.89-.58,2.81-.39,.92-.92,1.76-1.6,2.51-.68,.75-1.43,1.33-2.23,1.74,.88,.59,1.75,1.31,2.59,2.16,.85,.85,1.54,1.85,2.1,3.01,.55,1.16,.83,2.48,.83,3.95Zm-8.94-.55c0-.78-.16-1.47-.47-2.08-.31-.61-.74-1.13-1.27-1.55-.53-.43-1.12-.75-1.76-.97-.64-.22-1.33-.33-2.07-.33-1.03,0-1.96,.21-2.79,.64-.83,.43-1.49,1.01-1.99,1.75-.5,.74-.74,1.61-.74,2.61,0,.7,.16,1.36,.47,1.97,.31,.61,.73,1.14,1.24,1.58,.51,.44,1.1,.78,1.76,1,.66,.22,1.34,.33,2.04,.33,1.03,0,1.96-.21,2.79-.64,.83-.42,1.5-1.01,2.01-1.75,.51-.74,.77-1.59,.77-2.55Zm-9.87-15.36c0,.88,.21,1.61,.63,2.18,.42,.57,.97,.99,1.65,1.27s1.37,.41,2.07,.41c.66,0,1.32-.15,1.99-.44,.66-.29,1.22-.73,1.68-1.3,.46-.57,.69-1.3,.69-2.18,0-.7-.2-1.31-.61-1.85-.41-.53-.93-.96-1.57-1.27-.64-.31-1.39-.47-2.23-.47s-1.54,.17-2.18,.5c-.64,.33-1.16,.76-1.54,1.3-.39,.53-.58,1.15-.58,1.85Z"/></g></g></svg>