<?xml version="1.0" encoding="UTF-8"?><svg id="Layer_2" xmlns="http://www.w3.org/2000/svg" width="75" height="87.5" viewBox="0 0 75 87.5"><defs><style>.cls-1{fill:#fff;}.cls-2{fill:#1e3734;}</style></defs><g id="Layer_1-2"><g id="_"><path class="cls-2" d="M75,8.38v58.25c0,4.61-3.77,8.38-8.38,8.38h-16.62l-12.5,12.5-12.5-12.5H8.33c-4.63,0-8.33-3.75-8.33-8.33V8.33C0,3.75,3.71,0,8.33,0h58.29c4.61,0,8.38,3.77,8.38,8.38Z"/><path class="cls-1" d="M37.97,16.75c-8.34,0-15.48,5.61-15.48,13.33s6.45,12.22,12.57,12.25c.75,0,1.74-.06,2.46-.17l-10.11,14.31h10.41l13.65-19.5c1.38-1.98,2.1-4.55,2.1-6.89,0-7.73-7.11-13.33-15.6-13.33Zm.06,19.13c-3.33,0-6-2.45-6-5.75s2.67-5.72,6-5.72,6.03,2.45,6.03,5.72-2.67,5.75-6.03,5.75Z"/></g></g></svg>