<?xml version="1.0" encoding="utf-8"?>
<!-- Generator: Adobe Illustrator 26.2.1, SVG Export Plug-In . SVG Version: 6.00 Build 0)  -->
<svg version="1.1" id="Layer_1" xmlns="http://www.w3.org/2000/svg" xmlns:xlink="http://www.w3.org/1999/xlink" x="0px" y="0px"
	 viewBox="0 0 1366 768" style="enable-background:new 0 0 1366 768;" xml:space="preserve">
<style type="text/css">
	.st0{fill:#482AFF;}
	.st1{stroke:#000000;stroke-width:4;stroke-miterlimit:10;}
	.st2{font-family:'MyriadPro-Regular';}
	.st3{font-size:31px;}
</style>
<g>
	<path class="st0" d="M673.5,399.21h-5.62c-4.82,0-8.73-3.92-8.73-8.73v-29c0-4.82,3.92-8.73,8.73-8.73h29
		c4.82,0,8.73,3.92,8.73,8.73v29c0,4.82-3.92,8.73-8.73,8.73h-5.57l-8.91,18.73L673.5,399.21z"/>
	<path d="M696.88,353.51c4.39,0,7.97,3.57,7.97,7.97v29c0,4.39-3.57,7.97-7.97,7.97h-5.08h-0.97l-0.42,0.87l-8.01,16.84l-8.01-16.84
		l-0.42-0.87h-0.97h-5.14c-4.39,0-7.97-3.57-7.97-7.97v-29c0-4.39,3.57-7.97,7.97-7.97H696.88 M696.88,351.98h-29
		c-5.25,0-9.5,4.25-9.5,9.5v29c0,5.25,4.25,9.5,9.5,9.5h5.14l9.39,19.75l9.39-19.75h5.08c5.25,0,9.5-4.25,9.5-9.5v-29
		C706.38,356.23,702.13,351.98,696.88,351.98L696.88,351.98z"/>
</g>
<text transform="matrix(1 0 0 1 672.3845 385.9796)" class="st1 st2 st3">1</text>
</svg>
